<svg width="30" height="18" viewBox="0 0 30 18" fill="none" xmlns="http://www.w3.org/2000/svg">
<path d="M20.2167 11.8815C20.1255 11.9136 20.2254 11.9993 20.2624 12.0336C21.5034 13.1971 22.8965 14.247 24.4918 14.8856C21.5273 15.6998 18.5454 14.3863 16.422 12.3614L15.231 11.0758C16.2112 12.5007 17.4196 13.9878 18.8649 14.9734C19.167 15.1791 19.5147 15.327 19.8168 15.5177C19.856 15.5434 19.9516 15.5541 19.8973 15.6248C16.6655 16.844 12.5534 12.7685 12.4491 11.1679C12.9533 11.7829 13.4923 12.4 14.1813 12.8221C14.6312 13.0985 15.3527 13.4435 15.8809 13.3042C15.2115 11.7657 13.2619 9.76015 12.0166 9.29089C12.0166 9.29089 13.814 8.95449 15.8983 11.0094C16.8676 11.965 18.3216 13.0835 19.7647 12.8521C17.6978 10.7158 16.5742 8.44666 14.0009 7.01318C14.8072 7.11603 16.6524 7.67956 18.5519 9.68087C19.6473 10.8358 21.4164 11.8729 23.0856 11.7507C21.5273 10.2251 20.3558 8.65451 18.904 7.02175C17.1392 5.03758 15.5635 4.48905 14.3595 3.66624C14.3812 3.57624 17.1675 4.06479 19.5886 6.34679C21.2991 7.95812 23.0747 10.5208 25.798 12.025C26.8825 12.625 27.9257 13.3299 29.1145 13.6942C28.4538 13.977 27.6562 14.0713 26.9325 14.1056C24.5396 14.2213 22.0815 13.3278 20.2124 11.8815H20.2167Z" fill="currentColor"/>
<path d="M11.3535 6.44967C11.9077 6.33825 12.4663 6.20754 13.0009 6.02969C13.2335 5.95256 13.4726 5.79399 13.6703 5.72757C13.792 5.68686 13.7138 5.77257 13.7051 5.80899C13.5986 6.23111 13.027 7.31747 12.6967 7.60031C12.1251 8.08885 11.4491 8.01814 10.7993 8.27956C9.75174 11.5258 8.33036 15.5777 4.76385 16.844C3.3881 17.3326 0.888719 17.4633 0.178025 15.8862C-0.621777 14.1121 1.44728 12.5372 2.92734 12.0122C2.96864 11.9972 3.05775 11.9565 3.07513 12.0122C2.45572 12.6229 1.59289 14.5342 2.4492 15.1834C3.35767 15.8712 4.82253 14.7634 5.42021 14.0778C6.7025 12.61 7.3958 10.5187 8.09346 8.73596C8.06955 8.67168 7.99566 8.73382 7.95654 8.74667C6.9068 9.06808 6.67207 10.4394 6.31781 11.3115C6.31346 9.2995 5.17461 7.7803 2.99907 7.95172C2.1884 8.016 1.1104 8.45098 1.12344 9.39592C0.0715297 8.74024 -0.128421 7.74173 0.410576 6.65537C0.727889 6.0147 1.22342 5.55829 1.75155 5.09332C2.23186 4.66906 2.22317 4.7462 2.59047 4.18909C4.93337 0.625737 9.33011 0.782156 13.1705 0.677163C14.9005 0.630023 16.6522 0.74573 18.267 6.10352e-05C18.0193 0.754301 17.828 1.59425 17.1977 2.14065C16.5262 2.72347 15.4634 2.8906 14.5919 2.93774C14.2028 2.95917 13.6899 2.88417 13.3248 2.93988C13.0618 2.98059 12.538 3.74983 12.3967 3.9941C11.9577 4.75263 11.6752 5.63543 11.3535 6.44753V6.44967ZM1.01695 7.16105C0.980001 7.43318 1.0452 7.76959 1.01695 8.05029L1.79067 7.39461C3.13382 6.48609 6.0983 5.78114 7.06328 7.5146C6.64816 7.3539 6.24392 7.28962 5.7962 7.3239L6.31129 7.70531L6.79378 8.2817C7.29583 7.74816 7.95871 7.41818 8.59985 7.07963C9.13885 5.75971 9.70828 3.30415 11.0884 2.61204C11.9273 2.19207 12.8792 2.12565 13.7877 1.95209C12.0751 1.8878 10.2994 1.49997 8.59551 1.64782C6.83725 1.79995 4.52478 2.64847 3.57936 4.20623C3.37071 4.54907 3.18598 4.94762 3.21206 5.35688C2.72305 5.21974 2.55135 5.2476 2.13406 5.51973C1.64505 5.84113 1.09954 6.57823 1.02129 7.16105H1.01695Z" fill="currentColor"/>
<path d="M9.73894 2.89697L7.59382 3.73906C7.50254 4.32617 7.36996 4.81257 6.88964 5.20683C6.11375 5.84108 5.19224 5.71466 4.28377 5.49824C4.31637 5.42325 4.76843 5.21969 4.6728 5.11469C4.19901 4.96899 3.80563 5.15755 3.35791 5.2604L4.12076 4.64329C5.77253 3.58907 7.76552 2.9484 9.74111 2.89697H9.73894ZM6.27893 4.10118C6.04638 4.13118 6.0442 4.45688 5.83556 4.5533L5.20745 4.87042C5.73993 4.85114 6.40064 4.79757 6.27893 4.10118Z" fill="currentColor"/>
</svg>
