<svg width="60" height="38" viewBox="0 0 60 38" fill="none" xmlns="http://www.w3.org/2000/svg">
<g clip-path="url(#clip0_2040_390)">
<path d="M43.895 29.4159C43.9185 29.3885 43.935 29.3505 43.9856 29.3469C43.9927 29.3992 43.9585 29.4266 43.9268 29.4539C43.9162 29.4409 43.9056 29.429 43.895 29.4159Z" fill="#CFBC8F"/>
<path d="M16.1167 21.1812C16.9014 21.0195 17.6955 20.8305 18.4542 20.5689C18.7836 20.456 19.1236 20.2253 19.4036 20.129C19.5765 20.0696 19.4659 20.1932 19.453 20.2479C19.3024 20.8626 18.4919 22.4415 18.0201 22.8553C17.2084 23.5674 16.2485 23.4652 15.3274 23.8433C13.8416 28.5658 11.8229 34.4618 6.76198 36.3047C4.81033 37.0156 1.26113 37.2071 0.251774 34.9112C-0.882277 32.3312 2.05402 30.0377 4.15272 29.2744C4.21154 29.253 4.33624 29.1924 4.36094 29.2744C3.48217 30.1625 2.25636 32.9435 3.47158 33.8887C4.75974 34.8898 6.83962 33.2776 7.68898 32.2801C9.50888 30.1435 10.4923 27.1034 11.4829 24.5091C11.4488 24.4152 11.3452 24.5055 11.2888 24.5234C9.79709 24.9906 9.46417 26.9869 8.96185 28.2555C8.95479 25.3271 7.33724 23.118 4.25036 23.3665C3.09866 23.4592 1.57052 24.0941 1.58699 25.4674C0.0953121 24.5138 -0.190553 23.0609 0.575284 21.4785C1.02585 20.5463 1.72816 19.8817 2.47752 19.2052C3.15984 18.5881 3.1469 18.6999 3.66804 17.8902C7.00314 12.7052 13.2439 12.9347 18.6966 12.7813C21.1529 12.7123 23.6375 12.8824 25.9291 11.7957C25.5762 12.8942 25.3068 14.1153 24.4127 14.9107C23.4598 15.7584 21.9517 16.0033 20.7141 16.0723C20.16 16.1032 19.433 15.9926 18.9154 16.0759C18.5425 16.1353 17.8002 17.2529 17.5978 17.6108C16.9743 18.7141 16.5732 20.0006 16.1155 21.18L16.1167 21.1812ZM1.447 22.2168C1.39524 22.6115 1.48699 23.1037 1.44817 23.5104L2.54458 22.5556C4.45035 21.2323 8.65834 20.2087 10.0277 22.7292C9.43829 22.495 8.86421 22.4023 8.22777 22.4534L8.95832 23.0074L9.64416 23.8468C10.3582 23.0705 11.297 22.5913 12.2064 22.0967C12.9722 20.1754 13.7804 16.605 15.7379 15.5979C16.9273 14.9856 18.2789 14.8893 19.5683 14.6384C17.1378 14.5445 14.6192 13.9786 12.197 14.195C9.70181 14.4173 6.42082 15.6502 5.07855 17.9164C4.78327 18.4157 4.51976 18.9959 4.55623 19.5904C3.86215 19.3919 3.61746 19.4299 3.02573 19.8282C2.33047 20.2955 1.55758 21.3691 1.44582 22.2168H1.447Z" fill="#CFBC8F"/>
<path d="M24.1598 20.2086C24.8739 19.9863 25.7244 19.607 26.4326 20.0208C26.0538 21.1039 25.5609 22.1466 25.1845 23.2309C24.9892 23.7945 24.4857 25.0346 24.6657 25.5803C24.9468 26.4363 25.9327 24.7885 26.0985 24.5019C26.9538 23.0241 27.4655 21.218 27.8455 19.5571C28.1772 19.368 30.1148 19.0078 30.23 19.3859L27.4067 27.8809C27.4879 27.8488 27.5526 27.812 27.6455 27.8084C28.8478 27.7644 30.0477 27.6003 31.2465 27.5266C35.9874 27.2341 40.8624 27.3495 45.4103 25.8074C47.1879 25.2046 50.63 23.7458 50.2853 21.3976C50.2442 21.117 50.1159 20.9612 50.0265 20.7151C53.3228 22.1906 50.5806 25.3508 48.7113 26.6896C45.0068 29.3409 39.9954 30.1708 35.5427 30.2505L34.8827 30.1792C37.8414 29.8118 41.3047 29.3849 43.8528 27.7299C43.8845 27.7085 44.0751 27.6301 43.9786 27.5765C38.4731 29.7 32.4264 28.9224 26.682 29.7L26.8185 29.14C25.8327 31.0982 24.5621 32.9125 22.8787 34.3191C20.3636 36.4188 16.0803 38.245 12.7828 37.9703C12.1299 37.9156 11.0982 37.553 10.9618 36.804C10.5688 34.6413 13.5334 32.4334 15.1392 31.4775C18.1308 29.6953 21.5506 28.7893 24.9504 28.1639C25.2492 27.5302 25.6221 26.9084 25.7421 26.2033C24.8962 27.0427 23.3963 28.7286 22.4681 27.0356L22.3176 26.2081C21.6811 27.1747 19.3119 29.4622 18.1637 28.2459C17.6861 27.7394 18.0213 26.5802 18.1978 25.9679C18.9048 23.5127 20.2165 21.01 21.0282 18.5524C21.1976 18.0376 21.42 17.5406 21.3812 16.9866C22.1729 16.731 23.0458 16.4278 23.8928 16.5586C24.0081 16.5764 24.2069 16.6346 24.1986 16.7845C23.2481 19.4061 22.0411 21.9397 21.1047 24.5649C20.9776 24.9204 20.5271 25.9786 20.7247 26.283C20.78 26.3638 20.8353 26.3519 20.9188 26.3389C21.4023 26.2651 22.374 24.9133 22.727 24.5245L24.161 20.2074L24.1598 20.2086ZM23.8798 30.1257C21.2459 30.6773 18.5931 31.5096 16.3591 33.0564C15.745 33.4821 15.0568 34.0385 14.5768 34.6127C13.911 35.4093 14.0251 35.4474 15.0627 35.382C15.6403 35.3451 16.3614 35.1751 16.9261 35.0253C19.6918 34.2894 22.2646 32.5024 23.8798 30.1257Z" fill="#CFBC8F"/>
<path d="M52.6428 9.52342C52.6275 9.65301 52.7875 9.58405 52.8522 9.56028C54.9674 8.77676 57.0355 7.74594 58.7272 6.22646C57.9731 10.2439 54.6639 13.013 51.0041 14.3327L48.7736 14.9819C51.05 14.6668 53.5322 14.1163 55.5544 12.9809C55.9779 12.7431 56.3544 12.4185 56.7602 12.17C56.8132 12.1379 56.8814 12.0309 56.9355 12.1367C55.5591 16.3159 51.4429 18.5927 47.2561 18.8305L47.262 18.3478C48.2913 18.116 49.3442 17.8413 50.2512 17.2742C50.8453 16.9032 51.6758 16.2505 51.8193 15.5371C51.2829 15.6739 50.7324 15.7999 50.1841 15.8795C49.8206 15.9319 48.0819 16.1601 47.8772 16.0662C47.7749 16.0186 47.6514 15.807 47.5255 15.7226C46.6561 15.1424 45.3574 15.2791 44.4374 15.675C44.201 15.7773 43.8104 16.0876 43.6234 16.1126C42.6611 16.2434 41.4353 15.9009 40.433 16.046L39.3636 15.9057C42.5811 15.4028 45.9938 15.2304 49.0854 14.1449C50.7876 13.5468 52.9793 12.497 53.5428 10.6398C49.783 11.8252 45.922 12.6361 42.0152 13.164C40.3024 13.3958 37.8849 13.8013 36.2109 13.7406C36.1273 13.7371 35.9532 13.7929 35.9697 13.6717C40.3353 12.5671 44.8727 11.975 49.0419 10.188C50.9841 9.35578 53.3322 8.08598 54.1592 6.02196C51.4253 6.96599 48.7301 8.02178 45.942 8.81005C40.9329 10.2273 35.6368 10.7124 30.8476 12.8049C29.156 13.5433 27.589 14.5848 25.7962 15.0818C25.6997 15.0033 26.7714 14.1151 26.8702 14.0343C32.5546 9.43068 40.4 8.64716 47.169 6.55461C50.143 5.63556 53.351 4.47276 56.0697 2.9521C57.5002 2.15193 58.8707 1.19721 59.9989 -0.00244141C59.9518 0.953474 59.5989 1.96051 59.2189 2.8439C57.9625 5.76396 55.4603 8.1585 52.6417 9.52104L52.6428 9.52342Z" fill="#CFBC8F"/>
<path d="M44.1423 19.116C43.6765 19.789 43.3741 20.5891 42.9565 21.3072C42.2013 22.6056 40.8402 24.3771 39.5367 25.125C38.5803 25.6743 37.4062 25.5613 37.2992 24.2653C37.1745 22.7447 38.4838 21.054 39.1532 19.7759C39.1838 19.462 38.2097 19.6617 38.0168 19.7509C36.9451 22.2073 35.0911 25.4923 32.4242 26.4066C30.5972 27.0332 29.2761 26.0024 29.4102 24.0668C29.5549 21.9719 31.4901 18.9876 33.5535 18.3943C34.4864 18.1256 35.6428 18.4633 35.704 19.5785C35.804 21.3964 33.5288 23.0716 31.9289 23.3927C31.7725 25.1273 33.2583 24.7243 34.217 24.0228C35.6052 23.0062 36.4886 21.2169 37.0745 19.6308L37.0533 19.4774C36.1981 18.8116 36.878 17.0663 37.825 16.9034C38.8732 16.7227 39.0732 17.6441 38.8838 18.493C39.2355 18.5132 39.5885 18.4205 39.9226 18.317C40.5331 18.128 41.8542 17.2232 41.4484 18.6678C41.1331 19.789 40.0696 21.1087 39.8885 22.3345C39.759 23.2119 40.3531 23.1656 40.8978 22.7233C41.5048 22.2311 42.2895 20.8186 42.6589 20.0981C43.0389 19.3574 43.7882 17.2565 44.3529 16.8463C44.9576 16.4076 46.4657 16.1199 47.0457 16.6977C44.9693 18.5536 47.8856 20.8091 46.8151 22.9611C46.0822 24.4342 43.4318 25.7289 42.0413 24.5721C41.299 23.9538 41.6319 23.4771 42.326 23.0467C43.36 22.407 43.4706 22.7922 43.9059 23.7303C45.167 22.4653 44.4223 20.6248 44.1411 19.1148L44.1423 19.116ZM32.1054 22.4891C33.0018 22.2881 34.6076 20.7282 34.5299 19.7925C34.4535 18.8842 33.3782 20.1337 33.1818 20.3953C32.7171 21.0112 32.3654 21.7602 32.1054 22.4879V22.4891Z" fill="#CFBC8F"/>
<path d="M32.9877 9.5484C32.2889 9.62687 31.3607 10.3604 30.7348 10.4568C30.0125 10.5685 28.7879 10.3759 27.968 10.3926C26.5551 10.4211 25.094 10.5673 23.6906 10.7611C21.533 11.0584 19.4014 11.6398 17.2109 11.6683L18.9732 10.8955C23.0341 9.37481 28.0844 8.68879 32.3889 9.34865C32.5712 9.37719 32.9065 9.37957 32.9865 9.5484H32.9877Z" fill="#CFBC8F"/>
<path d="M35.1311 7.37735L35.7581 5.91375L36.3733 6.0481L35.3781 8.62099L34.7487 8.42957L34.3335 6.81973L33.8111 8.21199L33.1265 8.04554L34.1346 5.55469L34.7487 5.69855L35.1311 7.37735Z" fill="#CFBC8F"/>
<path d="M32.2334 6.972L32.4322 8.01114L31.744 7.93862C31.6299 6.80793 31.1464 6.58678 30.9734 7.86609L30.2876 7.80308L31.0546 5.22425C31.5863 5.20879 32.5475 5.1113 32.8357 5.67605C33.0851 6.1647 32.7439 6.84003 32.2334 6.972ZM31.644 5.78186C31.5181 5.81753 31.3428 6.30143 31.4217 6.40725C31.751 6.59986 32.3016 6.42152 32.1922 5.9828C32.1345 5.87222 31.7522 5.75095 31.6452 5.78186H31.644Z" fill="#CFBC8F"/>
<path d="M27.3065 5.15063L26.8653 7.81269L26.2736 7.94942L26.3406 6.89958L25.4501 6.98043L25.2936 8.01006L24.6113 8.09091L25.0337 5.44312L25.7148 5.36227L25.5783 6.34196L26.4653 6.25755L26.6147 5.22078L27.3065 5.15063Z" fill="#CFBC8F"/>
<path d="M21.5681 8.79461L20.9234 8.94085C20.7811 8.91112 20.1564 7.18596 20.1093 9.21074L19.5635 9.35817L19.6599 6.76745C20.1423 6.60694 21.3034 6.03743 21.4822 6.81738C21.6034 7.35003 21.361 7.59734 21.0846 7.99088L21.5692 8.7958L21.5681 8.79461ZM20.1823 7.74714C20.5834 7.7091 21.1363 7.45942 20.8034 7.00762L20.2811 7.11343L20.1823 7.74714Z" fill="#CFBC8F"/>
<path d="M17.9509 7.41658C18.8391 7.28936 18.9897 8.24052 18.8215 8.92535C18.5109 10.194 16.5439 10.855 16.511 9.18573C16.4957 8.39033 17.1651 7.52953 17.9509 7.41658ZM17.7427 8.04672C17.0674 8.18345 16.8945 9.47465 17.4556 9.57095C18.3497 9.72433 18.6944 7.8553 17.7427 8.04672Z" fill="#CFBC8F"/>
<path d="M27.7253 7.80775L28.2782 5.15164C28.8841 5.04463 29.464 5.14569 30.0746 5.14688L30.0028 5.63197L28.837 5.64505L28.7605 6.19673H29.6605C29.804 7.31434 28.3794 6.21218 28.5547 7.24657H29.6617L29.524 7.80537L27.7241 7.80775H27.7253Z" fill="#CFBC8F"/>
<path d="M15.8918 8.45236L15.8953 10.9004L15.3424 11.0811L14.5801 10.0622L14.5824 11.4961L14.0978 11.741L14.0942 9.46772C14.0942 9.40352 14.493 9.18475 14.646 9.25371C14.8483 9.34645 15.1412 10.017 15.4106 10.13L15.4083 8.66162L15.893 8.45117L15.8918 8.45236Z" fill="#CFBC8F"/>
<path d="M24.2622 5.57373L24.1787 6.11827L23.5116 6.3192L23.294 8.36895L22.6752 8.514L22.8787 6.41432L22.187 6.48565L22.2647 6.00532L24.2622 5.57373Z" fill="#CFBC8F"/>
<path d="M13.8263 16.0105L10.7806 17.2351C10.6523 18.09 10.4641 18.7974 9.78062 19.3705C8.68069 20.2931 7.37135 20.1088 6.08084 19.7961C6.12555 19.6867 6.76904 19.3907 6.63375 19.2373C5.96085 19.0245 5.40206 19.2979 4.76562 19.4489L5.84909 18.5513C8.19366 17.0187 11.0217 16.0854 13.8263 16.0105ZM8.91479 17.7654C8.5854 17.8094 8.58187 18.2814 8.28659 18.4241L7.39371 18.8854C8.14778 18.8568 9.08772 18.7796 8.91362 17.7654H8.91479Z" fill="#CFBC8F"/>
</g>
<defs>
<clipPath id="clip0_2040_390">
<rect width="60" height="38" fill="white"/>
</clipPath>
</defs>
</svg>
