<svg width="26" height="46" viewBox="0 0 26 46" fill="none" xmlns="http://www.w3.org/2000/svg">
<g clip-path="url(#clip0_2040_478)">
<path d="M25.9998 11.5618L25.4474 9.0999L19.276 12.2813L25.3109 3.94777L24.8443 0L2.13316 24.6095C2.06014 24.7033 2.04427 24.7721 2.09824 24.8816C2.36173 25.4134 2.62205 25.9514 2.87284 26.4926C2.92681 26.6084 2.98395 26.6052 3.08554 26.5708C3.53316 26.4207 3.98395 26.2768 4.43157 26.1298C5.32363 25.8388 6.21887 25.5479 7.11094 25.257C7.13633 25.2413 7.16808 25.2226 7.19348 25.2476C7.20935 25.2664 7.18395 25.2883 7.16173 25.3008C7.13633 25.3352 7.11728 25.3727 7.08871 25.404C5.56808 27.2747 1.39665 32.2829 1.45697 32.408L2.31411 34.0535L6.39982 32.7021C4.4157 35.5268 1.9903 40.435 -0.000175995 43.2566C-0.0763665 43.3661 1.45379 46 1.45379 46C4.05379 43.5882 25.822 20.0454 25.822 20.0454L25.1363 17.3458L20.384 19.2039L25.9935 11.5649L25.9998 11.5618Z" fill="#2A2B2A"/>
<path d="M24.27 11.0988L16.5875 14.5992C16.6351 14.4898 23.8891 2.40869 23.8891 2.40869L4.0002 23.9869L11.3272 21.3342L2.56845 32.0702L10.6478 28.5854C10.6478 28.5854 1.43194 43.4912 1.46052 43.4662C1.46052 43.4662 23.7526 18.9505 23.8923 18.8035L16.4319 21.597C16.3938 21.5501 24.2732 11.1019 24.2732 11.1019L24.27 11.0988Z" fill="#F9F9F9"/>
<path d="M6.40332 29.2767C8.82237 28.2256 11.2128 27.1902 13.6636 26.1235C11.7017 29.0046 9.7811 31.8325 7.85729 34.6572C7.88269 34.676 7.90808 34.6979 7.93348 34.7166C11.7716 30.4435 15.6097 26.1736 19.4509 21.9005C19.4351 21.8817 19.4192 21.8629 19.4033 21.8441C17.2795 22.7044 15.1589 23.5615 13.0351 24.4218C13.016 24.403 12.997 24.3811 12.9779 24.3623C12.9779 24.3623 19.1938 16.545 20.8732 14.2082C20.9303 14.1269 21.0192 14.055 21.0255 13.9079C18.6065 14.959 16.216 15.9944 13.7652 17.0611C15.7271 14.1801 17.6478 11.3522 19.5716 8.52745C19.5462 8.50868 19.5208 8.48679 19.4954 8.46802C15.6573 12.7411 11.8192 17.0111 7.97792 21.2842C7.9938 21.303 8.00967 21.3217 8.02554 21.3405C10.1494 20.4803 12.27 19.6231 14.3938 18.7629C14.4128 18.7817 14.4319 18.8035 14.4509 18.8223C14.4509 18.8223 8.23507 26.6397 6.5557 28.9764C6.49856 29.0577 6.40967 29.1297 6.40332 29.2767Z" fill="#2A2B2A"/>
</g>
<defs>
<clipPath id="clip0_2040_478">
<rect width="26" height="46" fill="white"/>
</clipPath>
</defs>
</svg>
