<svg width="48" height="59" viewBox="0 0 48 59" fill="none" xmlns="http://www.w3.org/2000/svg">
<g clip-path="url(#clip0_2040_358)">
<path d="M8.63867 32.2552L13.1186 31.3976V23.2666L9.3195 23.9186L8.63867 32.2552Z" fill="#F9F9F9"/>
<path d="M47.872 33.5056C47.0122 33.2094 46.1514 32.9181 45.2826 32.6501C45.1617 32.6128 45.1117 32.5614 45.1147 32.4244C45.1227 31.9689 45.1227 31.5124 45.1077 31.0569C45.1027 30.8846 45.1507 30.8614 45.3046 30.8997C46.0085 31.0771 46.7163 31.2403 47.4201 31.4187C47.5551 31.453 47.5721 31.4157 47.5721 31.2948C47.5691 30.1581 47.5691 29.0204 47.5721 27.8837C47.5721 27.7668 47.5501 27.7144 47.4191 27.6953C46.6843 27.5824 45.9515 27.4535 45.2167 27.3396C45.0987 27.3214 45.0737 27.2781 45.0747 27.1653C45.0797 26.6866 45.0807 26.2069 45.0677 25.7283C45.0637 25.5802 45.0987 25.5278 45.2426 25.561C45.2816 25.5701 45.3226 25.5691 45.3626 25.5721C46.1844 25.6346 47.0052 25.696 47.827 25.7595C47.906 25.7656 47.966 25.7746 47.966 25.6547C47.962 24.4888 47.963 23.323 47.966 22.1571C47.966 22.0664 47.938 22.0361 47.849 22.0381C47.626 22.0432 47.4021 22.0392 47.1792 22.0392C45.5416 22.0392 43.904 22.0412 42.2664 22.0361C42.1244 22.0361 42.0774 22.0684 42.0864 22.2165C42.1004 22.4584 42.0964 22.7012 42.0934 22.9431C42.0924 23.071 42.1284 23.201 42.0844 23.3481C42.0335 23.2998 41.9965 23.2665 41.9615 23.2302C41.6136 22.8715 41.2636 22.5138 40.9197 22.151C40.8417 22.0684 40.7618 22.0371 40.6498 22.0371C39.951 22.0412 40.6498 22.0432 39.951 22.0412C39.893 22.0412 40.3429 21.3428 40.2849 21.2763L39.853 20.0873C39.779 20.1084 39.751 20.1145 39.725 20.1235C38.2544 20.6455 36.7778 21.1534 35.3151 21.6976C34.6783 21.9344 35.3611 22.0049 34.6783 21.9344C34.6363 21.9303 39.4631 15.1476 39.4631 15.1476C39.4631 15.1476 39.1832 13.8366 39.2102 13.8709C39.2012 13.8598 39.1922 13.8477 39.1832 13.8366C37.4836 14.4493 37.1707 14.5611 35.4621 15.1768C36.3699 14.5672 44.0949 1.8925 44.0949 1.8925C44.0949 1.8925 44 -0.0523361 43.94 6.35866e-05C42.8852 0.939227 42.3674 1.40175 41.3136 2.34193C38.2794 5.04756 35.2451 7.7532 32.2109 10.4588C29.4596 12.9125 26.7073 15.3653 23.958 17.821C23.855 17.9127 23.753 17.9439 23.62 17.9439C21.6215 17.9409 19.623 17.9439 17.6255 17.9379C17.4776 17.9379 17.4326 17.9701 17.4336 18.1263C17.4406 19.3728 17.4356 20.6193 17.4406 21.8658C17.4406 22.0009 17.4056 22.0412 17.2686 22.0412C16.3359 22.0351 15.4021 22.0381 14.4683 22.0381C14.1874 22.0381 14.1864 22.0382 14.1854 22.3223C14.1844 22.6014 14.1854 22.8806 14.1854 23.199C14.1234 23.1587 14.1034 23.1496 14.0884 23.1365C13.7255 22.81 13.3596 22.4876 13.0017 22.155C12.9097 22.0694 12.8207 22.0351 12.6968 22.0361C11.872 22.0412 11.0482 22.0381 10.2234 22.0381C9.39361 22.0381 8.56281 22.0402 7.73302 22.0361C7.61905 22.0361 7.56706 22.0603 7.57306 22.1873C7.58106 22.3425 7.56806 22.4987 7.56606 22.6538C7.54107 24.2742 7.51608 25.8946 7.49408 27.5149C7.49308 27.6026 7.46709 27.6671 7.4111 27.7316C7.26114 27.9059 7.12117 28.0893 6.96921 28.2616C6.90423 28.3352 6.91023 28.3805 6.98121 28.442C7.10718 28.5508 7.22315 28.6717 7.34812 28.7806C7.4311 28.8531 7.46809 28.9307 7.46509 29.0466C7.44809 29.8709 7.4371 30.6962 7.4281 31.5205C7.4241 31.8732 7.4281 32.2259 7.4281 32.6209C7.35612 32.5413 7.36111 32.4879 7.35312 32.4385C7.24414 31.7613 7.13317 31.0852 7.0272 30.407C6.78026 28.841 6.53432 27.2761 6.29138 25.7102C6.10843 24.5312 5.92647 23.3522 5.75052 22.1722C5.73352 22.0583 5.69153 22.0331 5.58856 22.0331C4.50083 22.0361 3.4131 22.0361 2.32437 22.0331C2.2264 22.0331 2.18241 22.0593 2.16741 22.1631C2.09143 22.6881 2.00545 23.2111 1.92747 23.7351C1.70253 25.2335 1.47558 26.733 1.25764 28.2324C1.05269 29.6411 0.85374 31.0509 0.658789 32.4606C0.485832 33.7112 0.321873 34.9627 0.154915 36.2133C0.102928 36.6063 0.0539401 36.9993 0.00195312 37.4044C0.0469419 37.3913 0.0749349 37.3872 0.0999286 37.3761C1.0227 36.9731 1.94447 36.568 2.88423 36.2082C2.96821 36.176 2.98821 36.1236 2.9992 36.042C3.13117 35.123 3.27014 34.206 3.3991 33.2869C3.4151 33.1711 3.45409 33.1177 3.56806 33.0904C3.78501 33.038 3.99895 32.9746 4.2099 32.903C4.33587 32.8607 4.37586 32.896 4.39486 33.0229C4.50783 33.7807 4.6278 34.5385 4.74477 35.2953C4.77576 35.4948 4.77476 35.4958 4.97071 35.4283C7.47708 34.5627 10.0254 33.8533 12.6258 33.3363C12.7118 33.3192 12.7788 33.2809 12.8427 33.2134C13.2206 32.8053 13.6056 32.4042 13.9955 31.9921C14.0554 32.1231 13.9705 32.1835 13.9185 32.251C12.2569 34.3904 10.5953 36.5297 8.93072 38.667C8.86174 38.7547 8.84774 38.8212 8.89873 38.926C9.14467 39.4328 9.38461 39.9427 9.61755 40.4566C9.66654 40.5655 9.72152 40.5634 9.8145 40.5322C10.2304 40.3891 10.6483 40.2511 11.0662 40.112C11.896 39.8349 12.7268 39.5588 13.5576 39.2817C13.5816 39.2666 13.6126 39.2474 13.6335 39.2726C13.6495 39.2907 13.6235 39.3109 13.6056 39.324C13.5836 39.3572 13.5626 39.3915 13.5386 39.4227C12.1269 41.2023 8.92772 45.3096 8.98371 45.4296L9.44759 47.0247C9.44759 47.0247 12.9907 45.8719 12.9717 45.9001C11.1252 48.5816 7.74002 54.1057 5.89448 56.7872C5.8235 56.89 6.58031 58.7018 6.56631 58.996C6.6083 58.9668 6.6233 58.9587 6.6343 58.9477C7.37211 58.2483 8.10993 57.549 8.84674 56.8487C11.2621 54.5552 13.6775 52.2617 16.0939 49.9692C18.7523 47.4469 21.4126 44.9267 24.0709 42.4045C26.0414 40.5352 28.012 38.664 29.9815 36.7927C30.0534 36.7242 30.1254 36.6949 30.2244 36.6949C30.7913 36.699 31.3581 36.6919 31.925 36.7C32.0759 36.702 32.1279 36.6697 32.1269 36.5045C32.1189 35.3094 32.1239 34.1153 32.1209 32.9201C32.1209 32.7982 32.1319 32.7559 32.2779 32.7771C33.3986 32.9393 34.5153 33.1308 35.625 33.3595C37.3396 33.7122 39.0382 34.1314 40.7138 34.6423C40.8198 34.6745 40.8947 34.6594 40.9797 34.5939C41.3386 34.3168 41.7025 34.0457 42.0654 33.7747C42.1124 33.7394 42.1484 33.6789 42.2444 33.685C42.2444 34.1072 42.2504 34.5284 42.2414 34.9486C42.2384 35.0826 42.2844 35.1361 42.4064 35.1784C43.905 35.6923 45.3856 36.2566 46.8462 36.8713C47.2252 37.0305 47.6031 37.1897 47.991 37.353C47.996 37.3137 48.001 37.2915 48.001 37.2703C48.001 36.0702 48 34.869 48.004 33.6689C48.004 33.5651 47.963 33.5338 47.875 33.5036L47.872 33.5056ZM6.97221 34.1979C6.41835 34.3742 5.86349 34.5506 5.31163 34.734C5.21165 34.7672 5.20765 34.7088 5.19765 34.6473C5.11368 34.1132 5.0317 33.5792 4.94972 33.0441C4.91173 32.7942 4.87274 32.5433 4.83674 32.2934C4.82375 32.2057 4.79975 32.1684 4.69578 32.1986C4.13792 32.3639 3.57806 32.5221 3.0182 32.6793C2.95322 32.6974 2.92622 32.7216 2.91622 32.7912C2.79326 33.6447 2.65429 34.4972 2.54832 35.3527C2.51133 35.65 2.42635 35.8293 2.11542 35.9281C1.67653 36.0682 1.25764 36.2717 0.834745 36.4581C0.69378 36.5206 0.670786 36.4783 0.688781 36.3463C0.77376 35.7195 0.85474 35.0907 0.939719 34.4639C1.04969 33.6548 1.15966 32.8446 1.27264 32.0364C1.39261 31.1758 1.51457 30.3163 1.63754 29.4557C1.76651 28.5508 1.89548 27.6449 2.03045 26.741C2.17041 25.7968 2.31537 24.8526 2.46034 23.9094C2.52032 23.5174 2.59031 23.1264 2.64029 22.7324C2.65529 22.6105 2.70828 22.5974 2.80625 22.5974C3.19016 22.6004 3.57306 22.5984 3.95696 22.5984C4.34087 22.5984 4.72377 22.6045 5.10768 22.5954C5.22765 22.5924 5.26564 22.6387 5.28163 22.7455C5.38661 23.4449 5.49258 24.1452 5.60055 24.8446C5.74452 25.7767 5.88948 26.7088 6.03445 27.6399C6.13242 28.2707 6.2304 28.9015 6.32937 29.5313L3.63704 25.5177L3.69603 25.7162L2.45634 30.9511L6.36636 29.7721C6.40935 30.0442 6.45134 30.3163 6.49433 30.5884C6.64629 31.5487 6.80425 32.507 6.95921 33.4673C6.99121 33.6658 7.0152 33.8664 7.05519 34.0629C7.07319 34.1485 7.04219 34.1747 6.97321 34.1969L6.97221 34.1979ZM37.9905 21.3932C37.9985 21.4033 38.0055 21.4134 38.0135 21.4225C37.8715 21.6129 37.7295 21.8044 37.5876 21.9948C37.5586 22.0341 37.5166 22.0261 37.4776 22.0261C37.0777 22.0261 36.6778 22.0261 36.2689 21.9948C36.8427 21.7943 37.4166 21.5938 37.9905 21.3932ZM35.0202 22.5964C35.1392 22.5954 35.1762 22.6317 35.1772 22.7536C35.1812 23.1406 35.1862 23.5275 35.1912 23.9135L33.3426 23.859C33.3366 23.5013 33.3296 23.1436 33.3216 22.7859C33.3186 22.6347 33.3556 22.5914 33.5086 22.5944C34.0115 22.6045 34.5153 22.6014 35.0192 22.5964H35.0202ZM31.4191 32.9262C31.5231 32.9262 31.5611 32.9544 31.5561 33.0612C31.5481 33.2164 31.5471 33.3726 31.5561 33.5278C31.5621 33.6386 31.5191 33.6618 31.4181 33.6608C31.0822 33.6548 30.7463 33.6628 30.4114 33.6568L31.2411 32.9272C31.3011 32.9272 31.3611 32.9272 31.4201 32.9272L31.4191 32.9262ZM17.4736 34.873C17.2446 34.8761 17.0157 34.8791 16.7878 34.873C16.6898 34.87 16.6608 34.9023 16.6618 35C16.6668 35.3285 16.6598 35.657 16.6658 35.9855C16.6678 36.0933 16.6448 36.1417 16.5258 36.1347C16.3659 36.1246 16.2059 36.1286 16.0459 36.1337C15.956 36.1367 15.928 36.1024 15.928 36.0137C15.93 35.0222 15.931 34.0306 15.928 33.0401C15.928 32.9413 15.971 32.9282 16.0529 32.9292C16.3329 32.9322 16.6138 32.9302 16.8937 32.9302C17.1627 32.9302 17.4316 32.9343 17.6995 32.9282C17.8055 32.9262 17.8555 32.9484 17.8485 33.0683C17.8365 33.2577 17.9105 33.5056 17.8175 33.6215C17.7195 33.7434 17.4636 33.6507 17.2766 33.6588C17.1057 33.6658 16.9337 33.6628 16.7618 33.6588C16.6878 33.6568 16.6678 33.683 16.6628 33.7575C16.6378 34.1455 16.6348 34.1455 17.0227 34.1455C17.0567 34.1455 17.0917 34.1435 17.1257 34.1455C17.2776 34.1556 17.5186 34.08 17.5646 34.1737C17.6385 34.3259 17.6116 34.5123 17.5986 34.6947L17.5026 34.8761C17.4926 34.8761 17.4836 34.8741 17.4746 34.8741L17.4736 34.873ZM29.5176 23.7472L30.3724 22.6055C30.4263 22.6186 30.4593 22.6538 30.4773 22.7365C30.5543 23.0851 30.6323 23.4338 30.7093 23.7814L29.5166 23.7462L29.5176 23.7472ZM31.2901 23.7996C31.2901 23.7482 31.3161 23.7139 31.3901 23.6897C31.811 23.5517 32.2319 23.4106 32.6478 23.2575C32.7718 23.2121 32.7788 23.2524 32.7788 23.3562C32.7788 23.5184 32.7788 23.6807 32.7788 23.8429L31.2901 23.7996ZM34.1344 10.2795C36.1979 8.34269 38.2594 6.40592 40.3229 4.46915C40.3979 4.39861 40.4768 4.3321 40.5538 4.26358C40.5778 4.23637 40.5938 4.19808 40.6438 4.19506C40.6508 4.24645 40.6168 4.27366 40.5848 4.30087C40.1639 4.93772 39.746 5.5766 39.3231 6.21144C37.8965 8.35277 36.4678 10.4931 35.0392 12.6334C34.0764 14.0764 33.1137 15.5194 32.1509 16.9624C32.1199 17.0098 32.0889 17.0572 32.027 17.1499C33.9275 16.4747 35.781 15.8157 37.6345 15.1567C37.6425 15.1677 37.6505 15.1778 37.6585 15.1889C35.5031 17.8724 33.3486 20.5558 31.1712 23.2675C31.0832 22.8836 30.9952 22.5359 30.9272 22.1853C30.9082 22.0865 30.8722 22.0452 30.8043 22.0311L34.3124 17.3464H31.2851L34.3124 11.6872L26.9832 16.9927C29.3666 14.7546 31.751 12.5175 34.1354 10.2805L34.1344 10.2795ZM22.1324 18.5808C22.3144 18.5929 22.5353 18.5143 22.6693 18.611C22.7663 18.6815 22.7923 18.8246 22.8212 18.9647L21.9305 18.7662C21.9365 18.747 21.9425 18.7279 21.9485 18.7098C21.9805 18.606 22.0324 18.5737 22.1324 18.5808ZM18.1494 18.5788C18.7273 18.5848 19.3051 18.5848 19.883 18.5788C20.001 18.5778 20.0459 18.608 20.0369 18.7319C20.0269 18.87 20.0269 19.009 20.0369 19.1471C20.0449 19.266 20.009 19.3073 19.886 19.3043C19.5491 19.2962 19.2112 19.3063 18.8732 19.2983C18.7503 19.2952 18.7213 19.3365 18.7223 19.4544C18.7263 19.8071 18.7213 19.8071 19.0672 19.8071C19.2731 19.8071 19.4791 19.8102 19.685 19.8051C19.768 19.8031 19.794 19.8313 19.792 19.9139C19.787 20.0812 19.785 20.2485 19.792 20.4158C19.797 20.5165 19.759 20.5417 19.665 20.5397C19.3961 20.5347 19.1272 20.5427 18.8582 20.5357C18.7533 20.5327 18.7233 20.5629 18.7223 20.6707C18.7193 21.0546 18.7143 21.0546 19.0882 21.0546C19.3631 21.0546 19.637 21.0587 19.912 21.0526C20.011 21.0506 20.0409 21.0819 20.0369 21.1796C20.0299 21.3408 20.0319 21.5021 20.0369 21.6643C20.0389 21.7469 20.0229 21.7882 19.926 21.7882C19.3191 21.7842 18.7133 21.7832 18.1064 21.7882C17.9855 21.7882 18.0015 21.7177 18.0015 21.6431C18.0015 21.1534 18.0015 20.6627 18.0015 20.1729C18.0015 19.6943 18.0055 19.2156 17.9985 18.737C17.9965 18.6181 18.0274 18.5798 18.1504 18.5808L18.1494 18.5788ZM14.4243 27.3789C14.6053 27.2328 14.6643 27.0675 14.6653 26.8317C14.6693 25.6326 14.6953 24.4334 14.7133 23.2343C14.7163 23.073 14.7303 22.9118 14.7243 22.7506C14.7203 22.6266 14.7683 22.5954 14.8852 22.5964C15.629 22.6004 16.3739 22.5984 17.1177 22.5984C17.8565 22.5984 18.5943 22.6014 19.3331 22.5954C19.4601 22.5954 19.5001 22.6287 19.4971 22.7597C19.4851 23.2262 19.4801 23.6938 19.4841 24.1603C19.4841 24.2883 19.4391 24.3075 19.3261 24.3095C18.4513 24.3206 17.5766 24.3427 16.7008 24.3518C16.5628 24.3528 16.5398 24.4112 16.5388 24.5261C16.5348 25.1257 16.5308 25.7253 16.5168 26.3248C16.5138 26.4579 16.5518 26.4841 16.6778 26.477C17.4196 26.4367 18.1624 26.4075 18.9042 26.3712C19.0182 26.3652 19.0522 26.4045 19.0492 26.5173C19.0402 27.001 19.0342 27.4857 19.0362 27.9704C19.0362 28.0833 18.9772 28.0873 18.9002 28.0923C18.3984 28.1236 17.8965 28.1528 17.3946 28.186C17.1327 28.2032 16.8707 28.2324 16.6088 28.2445C16.5068 28.2495 16.4898 28.2908 16.4888 28.3805C16.4808 29.0033 16.4698 29.625 16.4548 30.2478C16.4528 30.3495 16.4858 30.3767 16.5818 30.3677C17.2646 30.3032 17.9475 30.2407 18.6313 30.1803C18.7763 30.1672 18.9222 30.1571 19.0672 30.146L18.7763 31.8873C18.4353 31.9205 18.0944 31.9568 17.7535 31.9931C16.9757 32.0757 16.1999 32.1765 15.4251 32.2893C15.1762 32.3256 14.9282 32.3619 14.6803 32.4042C14.5833 32.4203 14.5643 32.382 14.5663 32.2944C14.5863 31.2343 14.6053 30.1732 14.6233 29.1131C14.6303 28.7272 14.6283 28.3402 14.6413 27.9543C14.6463 27.7941 14.5103 27.7638 14.4293 27.6882C14.2584 27.53 14.2434 27.525 14.4253 27.3769L14.4243 27.3789ZM13.7355 28.3271C13.7355 29.3529 13.7055 30.3788 13.6885 31.4046C13.6875 31.4842 13.6665 31.5447 13.6096 31.6031C13.2546 31.9709 12.9007 32.3397 12.5548 32.7156C12.4758 32.8012 12.3839 32.8194 12.2829 32.8395C10.8412 33.1338 9.4136 33.4885 7.99795 33.8926C7.98796 33.8956 7.97596 33.8926 7.95796 33.8926C7.95796 33.4724 7.95497 33.0582 7.95796 32.643C7.96196 32.1704 7.96896 31.6978 7.97796 31.2252C7.99296 30.413 8.00595 29.6008 8.02895 28.7886C8.03395 28.6294 7.92197 28.568 7.836 28.4843C7.65504 28.307 7.63804 28.2959 7.809 28.1246C7.99895 27.9331 8.04394 27.7205 8.04594 27.4585C8.05994 25.8845 8.09093 24.3115 8.11293 22.7375C8.11393 22.6347 8.14192 22.5964 8.24789 22.5964C9.68453 22.5994 11.1212 22.5984 12.5578 22.5974C12.6308 22.5974 12.6868 22.6206 12.7418 22.67C13.0687 22.9672 13.3956 23.2645 13.7295 23.5537C13.8225 23.6343 13.8255 23.727 13.8235 23.8318C13.8045 24.8637 13.7945 25.8956 13.7625 26.9264C13.7555 27.1622 13.8245 27.3225 14.0145 27.4393C14.1454 27.52 14.1394 27.5935 14.0184 27.6772C13.7905 27.8344 13.7335 28.05 13.7335 28.3271H13.7355ZM9.96446 38.4906C9.94447 38.4977 9.92247 38.4997 9.86349 38.5118C10.0924 38.2004 10.3004 37.9152 10.5103 37.6311C11.6091 36.1498 12.7068 34.6685 13.8085 33.1892C13.8645 33.1146 13.8735 32.9927 14.0594 33.0522C14.2194 33.1035 14.4253 33.0098 14.6113 32.9826C14.8252 32.9514 15.0402 32.9242 15.2541 32.8909C15.3201 32.8808 15.3601 32.8788 15.3581 32.9685C15.3411 33.7172 15.3601 34.4659 15.3441 35.2146C15.3351 35.6318 15.3411 36.052 15.3581 36.4702C15.3621 36.573 15.3291 36.6204 15.2311 36.6546C13.4746 37.2643 11.719 37.878 9.96246 38.4896L9.96446 38.4906ZM10.2634 44.7484C10.2554 44.7393 10.2474 44.7302 10.2394 44.7212C10.3594 44.568 10.4783 44.4138 10.5993 44.2617C11.945 42.5859 13.2916 40.9111 14.6383 39.2363C15.1852 38.5561 15.732 37.8749 16.2779 37.1927L13.6295 42.21L13.9555 43.4353C12.7158 43.8757 11.4891 44.312 10.2624 44.7484H10.2634ZM27.0792 37.1262C25.2566 38.8403 23.4311 40.5514 21.6066 42.2634C18.7943 44.9025 15.983 47.5417 13.1707 50.1818C11.2541 51.9805 9.33862 53.7803 7.4221 55.579C7.3971 55.6021 7.36811 55.6223 7.34112 55.6435C7.31812 55.6717 7.30113 55.708 7.25514 55.711C7.24114 55.6576 7.28213 55.6344 7.30913 55.6052C7.72702 54.9734 8.14292 54.3395 8.56381 53.7097C10.5003 50.8066 12.4378 47.9044 14.3744 45.0023L15.0472 47.5276L26.2764 37.2955L26.9412 36.7111H27.4691C27.3381 36.8511 27.2171 36.9983 27.0792 37.1272V37.1262ZM28.5348 35.7618C28.2579 35.9855 27.95 36.1105 27.6101 36.1216L28.3959 35.4303C28.4418 35.4766 28.4898 35.521 28.5388 35.5643C28.6238 35.6389 28.6268 35.6873 28.5348 35.7618ZM31.5141 36.0994C31.4091 36.2082 31.1662 36.1276 30.9842 36.1296C30.5433 36.1337 30.1034 36.1266 29.6625 36.1337C29.5406 36.1357 29.5096 36.0984 29.5106 35.9785C29.5166 35.4998 29.5136 35.0212 29.5136 34.5425C29.5136 34.5103 29.5136 34.478 29.5136 34.4458L30.2314 33.814C30.2364 34.1435 30.2334 34.1435 30.5713 34.1435C30.7773 34.1435 30.9832 34.1475 31.1892 34.1415C31.2811 34.1384 31.3081 34.1707 31.3041 34.2594C31.2981 34.4266 31.2971 34.5939 31.3041 34.7612C31.3081 34.8569 31.2691 34.8771 31.1842 34.8751C30.9092 34.871 30.6353 34.8771 30.3604 34.872C30.2644 34.87 30.2344 34.8992 30.2314 34.999C30.2204 35.39 30.2174 35.39 30.6063 35.39C30.8752 35.39 31.1442 35.396 31.4131 35.387C31.5281 35.3829 31.5641 35.4222 31.5541 35.5331C31.5371 35.7266 31.633 35.9734 31.5131 36.0984L31.5141 36.0994ZM32.4698 32.249C32.3369 32.2309 32.2029 32.2138 32.0699 32.1966L32.4968 31.8208C32.5228 31.9387 32.5458 32.0576 32.5668 32.1614C32.5878 32.2712 32.5358 32.2571 32.4698 32.248V32.249ZM35.1922 32.7166C34.6823 32.6209 34.1704 32.5292 33.6585 32.4425C33.5346 32.4213 33.4766 32.3831 33.4806 32.2369C33.4846 32.1211 33.4856 32.0052 33.4866 31.8883L35.3361 32.0132C35.3411 32.2017 35.3461 32.3901 35.3551 32.5785C35.3611 32.7216 35.3141 32.7388 35.1922 32.7156V32.7166ZM41.9765 28.8219C41.8865 28.9045 41.8435 28.9892 41.8455 29.1192C41.8665 30.2951 41.8535 31.4731 41.9095 32.6471C41.9295 33.0642 41.8295 33.3273 41.4796 33.5318C41.2486 33.6668 41.0437 33.8472 40.8317 34.0135C40.7698 34.0619 40.7218 34.0689 40.6468 34.0467C39.2351 33.6296 37.8115 33.2618 36.3719 32.9605C36.2599 32.9373 36.2189 32.895 36.2169 32.769C36.2149 32.5372 36.2109 32.3055 36.2079 32.0737L41.1917 32.4113V24.0908L36.0669 23.9407C36.0659 23.8641 36.0649 23.7875 36.0629 23.7109C36.0579 23.3935 36.0559 23.0771 36.0399 22.7607C36.0329 22.6287 36.0719 22.5964 36.2009 22.5974C36.9107 22.6035 37.6206 22.6004 38.3304 22.6004C39.0292 22.6004 39.727 22.6025 40.4258 22.5984C40.5308 22.5984 40.6078 22.6266 40.6818 22.7042C41.0177 23.0589 41.3566 23.4106 41.6985 23.7583C41.7605 23.8207 41.7805 23.8842 41.7815 23.9709C41.7905 24.8355 41.8035 25.7001 41.8165 26.5657C41.8235 27.0443 41.8375 27.522 41.8395 28.0006C41.8395 28.1427 41.9425 28.2143 42.0135 28.3049C42.2344 28.5861 42.2394 28.5851 41.9775 28.8239L41.9765 28.8219ZM47.4521 36.3654C47.4531 36.5085 47.4131 36.5125 47.2981 36.4642C45.8595 35.8495 44.3989 35.2902 42.9232 34.7733C42.8342 34.742 42.7933 34.7058 42.7933 34.606C42.7933 34.3299 42.7793 34.0528 42.7763 33.7767C42.7633 32.5362 42.7513 31.2968 42.7393 30.0563C42.7363 29.7742 42.7253 29.491 42.7293 29.2088C42.7313 29.0476 42.6133 28.965 42.5323 28.8592C42.3374 28.6032 42.3274 28.5992 42.5583 28.3866C42.6743 28.2798 42.7113 28.1679 42.7093 28.0107C42.6913 26.6785 42.6823 25.3464 42.6683 24.0132C42.6643 23.598 42.6573 23.1829 42.6403 22.7687C42.6343 22.6266 42.6853 22.5964 42.8153 22.5974C43.5541 22.6025 44.2919 22.6004 45.0307 22.6004C45.7695 22.6004 46.4963 22.6035 47.2291 22.5974C47.3641 22.5964 47.4161 22.6196 47.4141 22.7728C47.4051 23.5174 47.4061 24.2611 47.4141 25.0058C47.4151 25.1499 47.3741 25.166 47.2411 25.1559C46.3864 25.0864 45.5306 25.031 44.6758 24.9655C44.5428 24.9554 44.4988 24.9897 44.5018 25.1307C44.5148 25.9732 44.5208 26.8146 44.5248 27.657C44.5248 27.7618 44.5488 27.8011 44.6628 27.8182C45.3796 27.925 46.0944 28.046 46.8113 28.1548C46.9572 28.177 47.0192 28.2203 47.0172 28.3886C47.0062 29.104 47.0122 29.8195 47.0122 30.535C47.0122 30.7415 47.0122 30.7405 46.8193 30.6942C46.1204 30.5289 45.4196 30.3667 44.7218 30.1994C44.5938 30.1682 44.5478 30.1873 44.5498 30.3364C44.5598 31.1446 44.5628 31.9518 44.5588 32.7599C44.5588 32.9413 44.6108 33.0249 44.7958 33.0824C45.6345 33.3424 46.4653 33.6265 47.3011 33.8986C47.4051 33.9319 47.4531 33.9742 47.4511 34.0991C47.4431 34.8549 47.4441 35.6107 47.4501 36.3664L47.4521 36.3654Z" fill="#F9F9F9"/>
<path d="M21.7806 36.707H27.4632C27.3322 36.847 27.2112 36.9942 27.0733 37.1232C25.2507 38.8372 23.4252 40.5483 21.6006 42.2603C18.7884 44.8995 15.9771 47.5386 13.1648 50.1787C11.2482 51.9774 9.33272 53.7772 7.41619 55.5759C7.3912 55.5991 7.36221 55.6192 7.33521 55.6404C7.32422 55.6273 7.31322 55.6152 7.30322 55.6021C7.72112 54.9703 8.13701 54.3364 8.55791 53.7066C10.9453 50.1283 13.3337 46.5501 15.7211 42.9718C15.7591 42.9153 15.7951 42.8569 15.8631 42.7531C13.9636 43.4282 12.111 44.0873 10.2575 44.7453C10.2495 44.7362 10.2415 44.7271 10.2335 44.7181C10.3535 44.5649 10.4724 44.4107 10.5934 44.2586C11.9391 42.5828 13.2857 40.908 14.6324 39.2332C15.2842 38.4221 15.9361 37.6129 16.5849 36.7987C16.6469 36.7211 16.7119 36.7009 16.8038 36.7019C17.5597 36.705 18.3155 36.704 19.0713 36.704C19.0783 36.7533 19.0363 36.7735 19.0123 36.8027C17.6306 38.3959 16.247 39.987 14.8663 41.5812C14.8183 41.6366 14.7504 41.6839 14.7334 41.7908C16.5489 41.1972 18.3435 40.6118 20.184 40.0102C18.5614 41.9832 16.9698 43.918 15.3782 45.8527C15.3952 45.8689 15.4112 45.886 15.4282 45.9021C18.5034 43.0463 21.5787 40.1916 24.6529 37.3358C24.6429 37.3207 24.6339 37.3055 24.6239 37.2904C23.0353 37.765 21.4467 38.2397 19.8571 38.7143L19.8211 38.6659C20.251 38.2447 20.6849 37.8255 21.1108 37.3993C21.3377 37.1725 21.5767 36.9559 21.7816 36.707H21.7806Z" fill="#2A2B2A"/>
<path d="M30.0606 19.1097C30.0596 18.7752 30.0496 18.4406 30.0606 18.1071C30.0656 17.9559 30.0156 17.9237 29.8787 17.9317C29.6967 17.9428 29.5128 17.9317 29.3298 17.9307C29.3398 17.9106 29.3468 17.8874 29.3598 17.8713C30.2756 16.7578 31.1924 15.6453 32.1081 14.5328C32.2511 14.3595 32.3911 14.1852 32.543 13.9987C32.445 13.9826 32.4141 14.039 32.3741 14.0753C31.3983 14.9802 30.4225 15.8861 29.4478 16.792C29.0409 17.1709 28.637 17.5528 28.2321 17.9338H26.0146C26.1236 17.8159 26.2206 17.698 26.3296 17.5952C28.9279 15.1556 31.5273 12.717 34.1266 10.2774C36.1901 8.34059 38.2516 6.40381 40.3151 4.46704C40.3901 4.3965 40.469 4.33 40.546 4.26147C40.556 4.27357 40.567 4.28667 40.577 4.29876C40.1561 4.93562 39.7382 5.57449 39.3153 6.20933C37.8887 8.35066 36.46 10.491 35.0314 12.6313C34.0686 14.0743 33.1059 15.5173 32.1431 16.9603C32.1121 17.0077 32.0811 17.0551 32.0191 17.1478C33.9197 16.4726 35.7732 15.8136 37.6267 15.1546C37.6347 15.1656 37.6427 15.1757 37.6507 15.1868C35.4953 17.8703 33.3408 20.5537 31.1634 23.2654C31.0754 22.8815 30.9874 22.5338 30.9194 22.1832C30.8934 22.0502 30.8374 22.0209 30.7145 22.024C30.4165 22.032 30.1186 22.026 29.8217 22.026C29.8217 21.9796 29.8607 21.9574 29.8857 21.9292C30.9084 20.7492 31.9312 19.5712 32.9529 18.3912C33.0139 18.3207 33.0979 18.2623 33.1169 18.1605C33.0509 18.1242 32.9989 18.1655 32.9479 18.1816C32.645 18.2784 32.3431 18.3802 32.0411 18.4779C31.3813 18.6905 30.7215 18.9011 30.0606 19.1127V19.1097Z" fill="#2A2B2A"/>
<path d="M3.95019 22.5964C4.33409 22.5964 4.71699 22.6025 5.1009 22.5934C5.22087 22.5904 5.25886 22.6367 5.27486 22.7435C5.37983 23.4429 5.4868 24.1432 5.59378 24.8426C5.73774 25.7747 5.8827 26.7068 6.02767 27.6379C6.18063 28.6214 6.33259 29.6039 6.48855 30.5864C6.64051 31.5467 6.79847 32.505 6.95344 33.4653C6.98543 33.6638 7.00942 33.8644 7.04941 34.0609C7.06741 34.1465 7.03642 34.1727 6.96743 34.1949C6.41357 34.3712 5.85871 34.5476 5.30685 34.731C5.20687 34.7642 5.20287 34.7058 5.19288 34.6443C5.1089 34.1102 5.02692 33.5762 4.94494 33.0411C4.90695 32.7912 4.86796 32.5403 4.83197 32.2904C4.81897 32.2027 4.79497 32.1654 4.691 32.1956C4.13314 32.3609 3.57328 32.5191 3.01342 32.6763C2.94844 32.6944 2.92144 32.7186 2.91145 32.7882C2.78848 33.6417 2.64951 34.4942 2.54354 35.3497C2.50655 35.647 2.42157 35.8263 2.11065 35.9251C1.67176 36.0652 1.25286 36.2687 0.829966 36.4551C0.689002 36.5176 0.666007 36.4753 0.684003 36.3433C0.768982 35.7155 0.849961 35.0877 0.93494 34.4609C1.04491 33.6517 1.15489 32.8416 1.26786 32.0334C1.38783 31.1728 1.5098 30.3133 1.63277 29.4527C1.76173 28.5478 1.8907 27.6419 2.02567 26.738C2.16563 25.7938 2.3106 24.8496 2.45556 23.9064C2.51554 23.5144 2.58553 23.1234 2.63551 22.7294C2.65051 22.6075 2.7035 22.5944 2.80147 22.5944C3.18538 22.5974 3.56828 22.5954 3.95219 22.5954L3.95019 22.5964ZM3.93419 26.4256C3.8822 26.469 3.8842 26.5224 3.8762 26.5728C3.80022 27.0494 3.72324 27.525 3.64726 28.0016C3.53929 28.6828 3.43432 29.364 3.32434 30.0442C3.30335 30.1762 3.33234 30.2175 3.47231 30.1823C3.74824 30.1117 4.02617 30.0432 4.3071 30.0009C4.46606 29.9767 4.46806 29.9142 4.44206 29.7832C4.39208 29.5293 4.36208 29.2723 4.32409 29.0164C4.19413 28.1548 4.06416 27.2932 3.93319 26.4256H3.93419Z" fill="#2A2B2A"/>
<path d="M38.3238 22.5963C39.0226 22.5963 39.7205 22.5983 40.4193 22.5942C40.5243 22.5942 40.6013 22.6225 40.6752 22.7C41.0111 23.0548 41.3501 23.4064 41.692 23.7541C41.754 23.8166 41.774 23.88 41.775 23.9667C41.784 24.8313 41.797 25.6959 41.8099 26.5615C41.8169 27.0401 41.8309 27.5178 41.8329 27.9964C41.8329 28.1385 41.9359 28.2101 42.0069 28.3008C42.2278 28.5819 42.2328 28.5809 41.9709 28.8197C41.8809 28.9024 41.8379 28.987 41.8399 29.117C41.8609 30.293 41.8479 31.4709 41.9039 32.6449C41.9239 33.0621 41.8239 33.3251 41.474 33.5296C41.2431 33.6647 41.0381 33.845 40.8262 34.0113C40.7642 34.0597 40.7162 34.0667 40.6412 34.0446C39.2296 33.6274 37.8059 33.2596 36.3663 32.9583C36.2543 32.9351 36.2133 32.8928 36.2113 32.7668C36.1994 31.6251 36.1794 30.4844 36.1604 29.3427C36.1554 29.0142 36.1374 28.6857 36.1444 28.3572C36.1474 28.1939 36.1074 28.068 35.9814 27.9662C35.9284 27.9229 35.8854 27.8664 35.8344 27.8201C35.7615 27.7536 35.7405 27.6982 35.8404 27.6357C36.0724 27.4916 36.1264 27.283 36.1184 27.0119C36.0854 25.9115 36.0764 24.8101 36.0574 23.7087C36.0524 23.3913 36.0504 23.0749 36.0344 22.7585C36.0274 22.6265 36.0664 22.5942 36.1954 22.5952C36.9052 22.6013 37.615 22.5983 38.3248 22.5983L38.3238 22.5963ZM40.0564 30.954C40.0444 30.954 40.0324 30.954 40.0204 30.954C40.0204 30.3081 40.0054 29.6621 40.0274 29.0172C40.0364 28.7462 39.9604 28.5446 39.7735 28.3612C39.6105 28.202 39.6165 28.1909 39.7925 28.0267C39.9104 27.9158 40.0064 27.8181 40.0004 27.6236C39.9724 26.6955 39.9644 25.7674 39.9544 24.8384C39.9534 24.7255 39.9324 24.6791 39.8084 24.6741C39.2256 24.6499 38.6437 24.6177 38.0619 24.5834C37.9509 24.5774 37.9179 24.6036 37.9209 24.7225C37.9389 25.4893 37.9619 26.2562 37.9519 27.023C37.9469 27.3797 37.9769 27.6972 38.2788 27.9299C38.2828 27.933 38.2858 27.939 38.2908 27.943C38.3528 27.9995 38.3428 28.0448 38.2798 28.0962C38.2039 28.1577 38.1369 28.2302 38.0609 28.2907C38.0069 28.334 37.9839 28.3814 37.9849 28.4529C38.0009 29.381 38.0159 30.3101 38.0269 31.2382C38.0279 31.3309 38.0569 31.3631 38.1489 31.3823C38.7467 31.5062 39.3436 31.6332 39.9384 31.7712C40.0594 31.7994 40.0574 31.7541 40.0564 31.6654C40.0524 31.4286 40.0554 31.1918 40.0554 30.956L40.0564 30.954Z" fill="#2A2B2A"/>
<path d="M7.95301 33.8914C7.95301 33.4712 7.95001 33.057 7.95301 32.6418C7.95701 32.1692 7.964 31.6966 7.973 31.224C7.988 30.4118 8.00099 29.5996 8.02399 28.7874C8.02899 28.6282 7.91702 28.5668 7.83104 28.4831C7.65008 28.3058 7.63309 28.2957 7.80404 28.1234C7.994 27.9319 8.03899 27.7193 8.04098 27.4573C8.05498 25.8833 8.08597 24.3103 8.10797 22.7363C8.10897 22.6335 8.13696 22.5952 8.24293 22.5952C9.67957 22.5982 11.1162 22.5972 12.5529 22.5962C12.6258 22.5962 12.6818 22.6194 12.7368 22.6688C13.0637 22.966 13.3906 23.2633 13.7246 23.5525C13.8175 23.6331 13.8205 23.7258 13.8185 23.8306C13.7995 24.8625 13.7895 25.8944 13.7576 26.9252C13.7506 27.161 13.8205 27.3213 14.0095 27.4382C14.1405 27.5188 14.1345 27.5923 14.0135 27.676C13.7855 27.8332 13.7286 28.0488 13.7286 28.3259C13.7286 29.3517 13.6986 30.3776 13.6816 31.4034C13.6806 31.483 13.6596 31.5435 13.6026 31.6019C13.2477 31.9697 12.8938 32.3385 12.5479 32.7144C12.4689 32.8 12.3769 32.8182 12.2759 32.8383C10.8343 33.1326 9.40664 33.4873 7.991 33.8914C7.981 33.8944 7.969 33.8914 7.95101 33.8914H7.95301ZM9.85653 30.4904C9.84253 30.4904 9.82854 30.4904 9.81354 30.4904C9.81354 30.7555 9.81354 31.0215 9.81354 31.2865C9.81354 31.345 9.79055 31.4155 9.90552 31.3933C10.5104 31.2734 11.1152 31.1605 11.7211 31.0477C11.814 31.0306 11.848 30.9953 11.849 30.8915C11.858 30.0209 11.872 29.1502 11.891 28.2806C11.893 28.1717 11.86 28.1012 11.7751 28.0337C11.5001 27.815 11.5041 27.813 11.7511 27.55C11.823 27.4734 11.916 27.417 11.917 27.284C11.926 26.4073 11.94 25.5316 11.96 24.6559C11.963 24.5259 11.916 24.5058 11.803 24.5118C11.2322 24.539 10.6613 24.5662 10.0895 24.5793C9.94951 24.5824 9.92151 24.6287 9.92052 24.7587C9.91252 25.6122 9.90252 26.4647 9.87653 27.3182C9.86953 27.5339 9.91252 27.7012 10.0965 27.816C10.2464 27.9098 10.2504 28.0004 10.1125 28.1143C10.0385 28.1758 9.9835 28.2604 9.91652 28.332C9.86953 28.3813 9.85353 28.4348 9.85353 28.5023C9.85553 29.1653 9.85453 29.8284 9.85453 30.4904H9.85653Z" fill="#2A2B2A"/>
<path d="M45.027 22.5963C45.7598 22.5963 46.4927 22.5993 47.2255 22.5933C47.3604 22.5923 47.4124 22.6155 47.4104 22.7686C47.4014 23.5133 47.4024 24.257 47.4104 25.0017C47.4114 25.1458 47.3704 25.1619 47.2375 25.1518C46.3827 25.0823 45.5269 25.0269 44.6721 24.9614C44.5391 24.9513 44.4952 24.9855 44.4982 25.1266C44.5112 25.969 44.5172 26.8105 44.5212 27.6529C44.5212 27.7577 44.5451 27.797 44.6591 27.8141C45.3759 27.9209 46.0908 28.0418 46.8076 28.1507C46.9535 28.1728 47.0155 28.2162 47.0135 28.3845C47.0025 29.0999 47.0085 29.8154 47.0085 30.5308C47.0085 30.7374 47.0085 30.7364 46.8156 30.69C46.1168 30.5248 45.4159 30.3625 44.7181 30.1953C44.5901 30.164 44.5441 30.1832 44.5461 30.3323C44.5561 31.1405 44.5591 31.9476 44.5551 32.7558C44.5551 32.9372 44.6071 33.0208 44.7921 33.0783C45.6309 33.3382 46.4617 33.6224 47.2975 33.8945C47.4014 33.9277 47.4494 33.9701 47.4474 34.095C47.4394 34.8508 47.4404 35.6065 47.4464 36.3623C47.4474 36.5054 47.4074 36.5094 47.2925 36.4611C45.8538 35.8464 44.3932 35.2871 42.9176 34.7702C42.8286 34.7389 42.7876 34.7027 42.7876 34.6029C42.7876 34.3268 42.7736 34.0497 42.7706 33.7736C42.7576 32.5331 42.7456 31.2936 42.7336 30.0532C42.7306 29.771 42.7196 29.4879 42.7236 29.2057C42.7256 29.0445 42.6076 28.9619 42.5267 28.8561C42.3317 28.6001 42.3217 28.5961 42.5526 28.3835C42.6686 28.2766 42.7056 28.1648 42.7036 28.0076C42.6856 26.6754 42.6766 25.3433 42.6626 24.0101C42.6586 23.5949 42.6516 23.1798 42.6346 22.7656C42.6286 22.6235 42.6796 22.5933 42.8096 22.5943C43.5484 22.5993 44.2862 22.5973 45.025 22.5973L45.027 22.5963Z" fill="#2A2B2A"/>
<path d="M32.5609 32.1603C32.5819 32.2702 32.53 32.2561 32.464 32.247C31.8981 32.1714 31.3313 32.0979 30.7634 32.0293C30.6564 32.0162 30.6584 31.9417 30.6424 31.8721C30.5045 31.2554 30.3645 30.6387 30.2305 30.022C30.2095 29.9263 30.1815 29.8759 30.0686 29.8689C29.4977 29.8336 28.9279 29.7923 28.359 29.7419C28.222 29.7298 28.227 29.8195 28.211 29.8971C28.0911 30.4473 27.9671 30.9965 27.8621 31.5497C27.8291 31.722 27.7591 31.7683 27.5952 31.7542C27.0713 31.7079 26.5454 31.6847 26.0196 31.6787C25.9186 31.6777 25.8936 31.6545 25.9166 31.5487C26.1505 30.4997 26.3825 29.4507 26.6074 28.4007C27.0053 26.5465 27.4002 24.6924 27.7881 22.8362C27.8271 22.6518 27.8921 22.5903 28.0851 22.5934C28.8179 22.6065 29.5507 22.6004 30.2835 22.5974C30.3895 22.5974 30.4455 22.6176 30.4725 22.7375C31.1433 25.7666 31.8181 28.7937 32.492 31.8218C32.518 31.9397 32.5409 32.0586 32.5619 32.1624L32.5609 32.1603ZM29.1848 25.3877C29.1628 25.428 29.1508 25.4421 29.1478 25.4572C28.9718 26.2896 28.7979 27.1219 28.6209 27.9532C28.5999 28.051 28.6559 28.0621 28.7219 28.0661C29.0358 28.0842 29.3497 28.0963 29.6637 28.1185C29.7786 28.1266 29.7986 28.0883 29.7746 27.9815C29.5777 27.1249 29.3847 26.2684 29.1858 25.3877H29.1848Z" fill="#2A2B2A"/>
<path d="M17.1118 22.5963C17.8506 22.5963 18.5885 22.5993 19.3273 22.5933C19.4542 22.5933 19.4942 22.6265 19.4912 22.7575C19.4792 23.2241 19.4742 23.6917 19.4782 24.1582C19.4782 24.2862 19.4332 24.3053 19.3203 24.3074C18.4455 24.3184 17.5707 24.3406 16.6949 24.3497C16.557 24.3507 16.534 24.4091 16.533 24.524C16.529 25.1236 16.525 25.7232 16.511 26.3227C16.508 26.4557 16.546 26.4819 16.6719 26.4749C17.4138 26.4346 18.1566 26.4054 18.8984 26.3691C19.0124 26.363 19.0463 26.4023 19.0433 26.5152C19.0343 26.9999 19.0283 27.4836 19.0303 27.9683C19.0303 28.0811 18.9714 28.0852 18.8944 28.0902C18.3925 28.1214 17.8906 28.1507 17.3888 28.1839C17.1268 28.2011 16.8649 28.2303 16.603 28.2424C16.501 28.2474 16.484 28.2887 16.483 28.3784C16.475 29.0012 16.464 29.6229 16.449 30.2456C16.447 30.3474 16.48 30.3746 16.576 30.3656C17.2588 30.3011 17.9416 30.2386 18.6254 30.1781C18.8644 30.157 19.1043 30.1429 19.3433 30.1227C19.4222 30.1167 19.4512 30.1378 19.4492 30.2275C19.4412 30.7001 19.4372 31.1737 19.4422 31.6463C19.4432 31.7713 19.4173 31.8257 19.2823 31.8378C18.7704 31.8821 18.2585 31.9376 17.7477 31.992C16.9699 32.0746 16.1941 32.1754 15.4193 32.2882C15.1703 32.3245 14.9224 32.3608 14.6744 32.4031C14.5775 32.4192 14.5585 32.3809 14.5605 32.2933C14.5805 31.2332 14.5995 30.1721 14.6175 29.112C14.6245 28.7261 14.6224 28.3391 14.6354 27.9532C14.6404 27.7929 14.5045 27.7627 14.4235 27.6871C14.2525 27.5289 14.2375 27.5239 14.4195 27.3758C14.6005 27.2296 14.6594 27.0644 14.6604 26.8286C14.6644 25.6294 14.6904 24.4303 14.7084 23.2311C14.7114 23.0699 14.7254 22.9087 14.7194 22.7475C14.7154 22.6235 14.7634 22.5923 14.8804 22.5933C15.6242 22.5973 16.369 22.5953 17.1128 22.5953L17.1118 22.5963Z" fill="#2A2B2A"/>
<path d="M19.9971 27.2015C20.0011 27.1884 20.0011 27.1804 20.0051 27.1783C20.384 26.9637 20.381 26.607 20.38 26.2301C20.377 25.0824 20.398 23.9356 20.399 22.7879C20.399 22.6226 20.45 22.5904 20.5999 22.5924C21.0978 22.6014 21.5957 22.5994 22.0935 22.5924C22.2135 22.5914 22.2615 22.6115 22.2605 22.7506C22.2515 23.6615 22.2535 24.5735 22.2505 25.4844C22.2495 25.819 22.2585 26.1545 22.2315 26.4871C22.2115 26.7229 22.2845 26.8881 22.4794 27.002C22.6264 27.0877 22.6304 27.1652 22.4814 27.2479C22.2565 27.3728 22.2175 27.5724 22.2215 27.8142C22.2325 28.4833 22.2285 29.1524 22.2195 29.8215C22.2175 29.9636 22.2635 29.9918 22.3925 29.9878C22.8833 29.9717 23.3752 29.9626 23.8671 29.9586C24.193 29.9555 24.5189 29.9696 24.8449 29.9696C24.9418 29.9696 24.9898 29.9878 24.9878 30.1016C24.9828 30.5743 24.9818 31.0479 24.9878 31.5205C24.9898 31.6394 24.9368 31.6474 24.8439 31.6474C24.214 31.6444 23.5852 31.6384 22.9553 31.6484C22.1555 31.6615 21.3557 31.6938 20.5569 31.7462C20.331 31.7613 20.332 31.7573 20.333 31.5386C20.341 30.547 20.348 29.5555 20.356 28.5629C20.358 28.2808 20.357 27.9976 20.37 27.7154C20.377 27.5713 20.348 27.4615 20.219 27.3819C20.138 27.3315 20.0691 27.26 19.9971 27.1995V27.2015Z" fill="#2A2B2A"/>
<path d="M33.4619 31.093C33.4399 30.0622 33.4129 29.0303 33.4029 27.9994C33.4009 27.812 33.276 27.7405 33.178 27.6387C33.006 27.4603 32.993 27.4512 33.192 27.3142C33.3539 27.2023 33.3969 27.0703 33.3919 26.8809C33.3629 25.5155 33.3449 24.1501 33.317 22.7836C33.314 22.6325 33.3509 22.5892 33.5039 22.5922C34.0068 22.6023 34.5107 22.5992 35.0145 22.5942C35.1335 22.5932 35.1705 22.6295 35.1715 22.7514C35.1815 23.7661 35.1965 24.7799 35.2125 25.7946C35.2195 26.2672 35.2385 26.7388 35.2415 27.2114C35.2415 27.3404 35.3345 27.3888 35.4014 27.4593C35.6364 27.7042 35.6414 27.7052 35.3814 27.9228C35.2895 28.0004 35.2535 28.0831 35.2565 28.204C35.2795 29.2117 35.2955 30.2204 35.3155 31.2291C35.3245 31.6785 35.3305 32.1279 35.3504 32.5763C35.3564 32.7194 35.3105 32.7366 35.1875 32.7134C34.6776 32.6177 34.1657 32.526 33.6539 32.4393C33.5299 32.4181 33.4719 32.3798 33.4759 32.2337C33.4889 31.8538 33.4799 31.4729 33.4799 31.093C33.4739 31.093 33.4679 31.093 33.4619 31.093Z" fill="#2A2B2A"/>
<path d="M9.85893 38.5087C10.0879 38.1973 10.2958 37.9121 10.5058 37.628C11.6045 36.1467 12.7022 34.6654 13.8039 33.1861C13.8599 33.1115 13.8689 32.9896 14.0549 33.049C14.2148 33.1004 14.4208 33.0067 14.6067 32.9795C14.8207 32.9483 15.0356 32.9211 15.2496 32.8878C15.3156 32.8777 15.3556 32.8757 15.3536 32.9654C15.3366 33.7141 15.3556 34.4628 15.3396 35.2115C15.3306 35.6287 15.3366 36.0489 15.3536 36.4671C15.3576 36.5699 15.3246 36.6173 15.2266 36.6515C13.47 37.2612 11.7145 37.8748 9.95791 38.4865C9.93791 38.4936 9.91592 38.4956 9.85693 38.5077L9.85893 38.5087Z" fill="#2A2B2A"/>
<path d="M20.2453 32.9161C21.1271 32.9241 21.822 33.6335 21.825 34.5223C21.829 35.4625 21.0232 36.1497 20.2054 36.1255C19.3256 36.0993 18.6307 35.401 18.6377 34.5102C18.6447 33.6114 19.3536 32.909 20.2453 32.9161ZM19.3726 34.5143C19.3726 35.0121 19.7425 35.3889 20.2333 35.3879C20.7142 35.3879 21.0901 35.01 21.0901 34.5264C21.0901 34.0346 20.7232 33.6567 20.2443 33.6557C19.7395 33.6557 19.3716 34.0165 19.3716 34.5133L19.3726 34.5143Z" fill="#2A2B2A"/>
<path d="M25.0897 36.1284C24.8128 36.1284 24.5668 36.1254 24.3219 36.1304C24.2369 36.1324 24.2009 36.0851 24.1639 36.0236C24.0449 35.8271 23.91 35.6397 23.809 35.4341C23.739 35.293 23.6361 35.2991 23.5291 35.3233C23.4251 35.3475 23.4811 35.4492 23.4781 35.5147C23.4701 35.682 23.4731 35.8493 23.4761 36.0166C23.4781 36.0962 23.4511 36.1365 23.3681 36.1284C23.3571 36.1274 23.3451 36.1284 23.3341 36.1284C23.1522 36.1214 22.9192 36.203 22.8023 36.0992C22.6813 35.9914 22.7653 35.7515 22.7643 35.5702C22.7593 34.7459 22.7653 33.9216 22.7593 33.0973C22.7583 32.9592 22.7973 32.9199 22.9312 32.928C23.2651 32.9471 23.6041 32.8927 23.933 33.0036C24.4898 33.191 24.8188 33.6364 24.8018 34.2027C24.7938 34.4788 24.6768 34.7156 24.4808 34.9031C24.4039 34.9766 24.4129 35.026 24.4618 35.1036C24.6688 35.4331 24.8697 35.7656 25.0927 36.1294L25.0897 36.1284ZM23.4741 34.1201C23.4741 34.241 23.4731 34.3619 23.4741 34.4839C23.4741 34.5353 23.4681 34.5846 23.5541 34.5786C23.801 34.5615 24.0519 34.3599 24.0749 34.1503C24.0959 33.9579 23.916 33.7583 23.66 33.6918C23.6321 33.6848 23.6041 33.6797 23.5771 33.6707C23.4971 33.6455 23.4741 33.6848 23.4741 33.7573C23.4741 33.8783 23.4741 33.9992 23.4741 34.1211V34.1201Z" fill="#2A2B2A"/>
<path d="M29.5079 34.5404C29.5079 34.0507 29.5109 33.56 29.5059 33.0702C29.5049 32.9614 29.5299 32.9221 29.6459 32.9231C30.2347 32.9292 30.8246 32.9282 31.4134 32.9231C31.5174 32.9231 31.5554 32.9513 31.5504 33.0581C31.5424 33.2133 31.5414 33.3695 31.5504 33.5247C31.5564 33.6355 31.5134 33.6587 31.4124 33.6577C31.0695 33.6517 30.7256 33.6597 30.3827 33.6527C30.2687 33.6507 30.2237 33.6718 30.2267 33.8008C30.2317 34.1404 30.2257 34.1404 30.5676 34.1404C30.7736 34.1404 30.9795 34.1444 31.1855 34.1384C31.2774 34.1354 31.3044 34.1676 31.3004 34.2563C31.2944 34.4236 31.2934 34.5908 31.3004 34.7581C31.3044 34.8538 31.2654 34.874 31.1805 34.872C30.9055 34.8679 30.6316 34.874 30.3567 34.869C30.2607 34.8669 30.2307 34.8962 30.2277 34.9959C30.2167 35.3869 30.2137 35.3869 30.6026 35.3869C30.8715 35.3869 31.1405 35.393 31.4094 35.3839C31.5244 35.3799 31.5604 35.4192 31.5504 35.53C31.5334 35.7235 31.6294 35.9704 31.5094 36.0953C31.4044 36.2041 31.1615 36.1235 30.9795 36.1255C30.5386 36.1296 30.0987 36.1225 29.6578 36.1296C29.5359 36.1316 29.5049 36.0943 29.5059 35.9744C29.5119 35.4957 29.5089 35.0171 29.5089 34.5384L29.5079 34.5404Z" fill="#2A2B2A"/>
<path d="M17.9948 20.1688C17.9948 19.6902 17.9988 19.2115 17.9918 18.7329C17.9898 18.614 18.0208 18.5757 18.1437 18.5767C18.7216 18.5827 19.2995 18.5827 19.8773 18.5767C19.9953 18.5757 20.0403 18.6059 20.0313 18.7299C20.0213 18.8679 20.0213 19.007 20.0313 19.145C20.0393 19.2639 20.0033 19.3052 19.8803 19.3022C19.5434 19.2942 19.2055 19.3042 18.8676 19.2962C18.7446 19.2931 18.7156 19.3345 18.7166 19.4524C18.7206 19.8051 18.7156 19.8051 19.0615 19.8051C19.2675 19.8051 19.4734 19.8081 19.6794 19.803C19.7623 19.801 19.7883 19.8292 19.7863 19.9109C19.7813 20.0781 19.7793 20.2454 19.7863 20.4127C19.7913 20.5135 19.7533 20.5386 19.6594 20.5366C19.3904 20.5316 19.1215 20.5397 18.8526 20.5326C18.7476 20.5296 18.7176 20.5598 18.7166 20.6676C18.7136 21.0516 18.7086 21.0516 19.0825 21.0516C19.3574 21.0516 19.6314 21.0556 19.9063 21.0495C20.0053 21.0475 20.0353 21.0788 20.0313 21.1765C20.0243 21.3377 20.0263 21.499 20.0313 21.6612C20.0333 21.7438 20.0173 21.7852 19.9203 21.7852C19.3135 21.7811 18.7076 21.7801 18.1008 21.7852C17.9798 21.7852 17.9958 21.7146 17.9958 21.64C17.9958 21.1503 17.9958 20.6596 17.9958 20.1698L17.9948 20.1688Z" fill="#2A2B2A"/>
<path d="M23.3124 21.7822C23.2954 21.7822 23.2784 21.7822 23.2604 21.7822C22.9545 21.7822 22.9495 21.7842 22.8505 21.4981C22.8215 21.4144 22.7805 21.3953 22.7026 21.3963C22.4446 21.3993 22.1877 21.4023 21.9297 21.3963C21.8308 21.3933 21.7938 21.4305 21.7638 21.5232C21.6778 21.7852 21.6728 21.7832 21.4029 21.7832C21.2829 21.7832 21.1619 21.7772 21.042 21.7852C20.929 21.7923 20.906 21.7661 20.946 21.6512C21.1889 20.9489 21.4249 20.2445 21.6628 19.5401C21.7568 19.263 21.8558 18.9879 21.9407 18.7078C21.9727 18.604 22.0247 18.5727 22.1247 18.5788C22.3067 18.5909 22.5276 18.5123 22.6616 18.609C22.7935 18.7047 22.7935 18.9375 22.8495 19.1108C23.1224 19.9543 23.3924 20.7987 23.6673 21.6411C23.7023 21.749 23.6973 21.7983 23.5683 21.7852C23.4834 21.7762 23.3964 21.7832 23.3114 21.7832L23.3124 21.7822ZM21.9447 20.9106C22.2257 20.6294 22.4036 20.2737 22.6676 19.9452C22.6086 19.9452 22.5856 19.9422 22.5636 19.9452C22.3706 19.9754 22.3736 19.9764 22.4156 19.7799C22.4556 19.5935 22.4886 19.4061 22.5246 19.2187C22.5156 19.2146 22.5076 19.2116 22.4986 19.2076C22.3196 19.5381 22.1407 19.8686 21.9627 20.1971C22.0457 20.2556 22.1137 20.1649 22.1917 20.2012C22.1327 20.448 21.9977 20.6647 21.9487 20.9116C21.9317 20.9156 21.9187 20.9237 21.9287 20.9438C21.9297 20.9458 21.9407 20.9469 21.9437 20.9448C21.9537 20.9338 21.9707 20.9217 21.9447 20.9086V20.9106Z" fill="#2A2B2A"/>
<path d="M24.861 20.7613C24.9299 20.7613 24.9989 20.7653 25.0669 20.7613C25.1689 20.7543 25.2299 20.7724 25.2589 20.8963C25.2928 21.0425 25.4858 21.1412 25.6268 21.118C25.7807 21.0928 25.9217 20.9679 25.9267 20.8298C25.9337 20.6565 25.8277 20.5557 25.6758 20.5003C25.4778 20.4278 25.2729 20.3774 25.0899 20.2675C24.703 20.0338 24.531 19.5823 24.665 19.151C24.798 18.7258 25.2029 18.4749 25.6848 18.5192C26.1306 18.5605 26.4905 18.8951 26.5495 19.3193C26.5625 19.409 26.5345 19.4443 26.4416 19.4412C26.2756 19.4362 26.1096 19.4382 25.9437 19.4412C25.8827 19.4412 25.8377 19.4332 25.8057 19.3687C25.7637 19.284 25.6828 19.2578 25.5918 19.2528C25.4818 19.2468 25.3958 19.285 25.3618 19.3909C25.3238 19.5088 25.3868 19.5894 25.4858 19.6448C25.5958 19.7063 25.7177 19.7375 25.8367 19.7758C26.3786 19.9491 26.6615 20.322 26.6555 20.847C26.6495 21.3538 26.2186 21.8093 25.7047 21.8516C25.1339 21.899 24.612 21.5231 24.525 21.0021C24.499 20.8443 24.565 20.7653 24.723 20.7653C24.769 20.7653 24.815 20.7653 24.86 20.7653L24.861 20.7613Z" fill="#2A2B2A"/>
<path d="M27.5132 36.1206C26.5865 36.1448 25.8516 35.3648 25.9056 34.4327C25.9426 33.7828 26.2695 33.294 26.8724 33.0411C27.4662 32.7922 28.0321 32.8809 28.542 33.29C28.6179 33.3515 28.6329 33.3968 28.551 33.4623C28.498 33.5056 28.453 33.559 28.404 33.6084C28.319 33.6941 28.248 33.812 28.1451 33.8563C28.0321 33.9057 27.9571 33.7555 27.8521 33.7112C27.4592 33.549 27.0263 33.6719 26.7824 34.0317C26.5495 34.3763 26.5945 34.8398 26.8914 35.1361C27.1873 35.4313 27.6512 35.4827 27.9871 35.2328C28.1061 35.1441 28.1611 35.1683 28.242 35.2651C28.331 35.3699 28.43 35.4676 28.533 35.5583C28.6179 35.6329 28.6209 35.6812 28.529 35.7558C28.228 35.9997 27.8891 36.1276 27.5132 36.1176V36.1206Z" fill="#2A2B2A"/>
<path d="M16.8871 32.9262C17.1561 32.9262 17.425 32.9302 17.6929 32.9242C17.7989 32.9222 17.8489 32.9443 17.8419 33.0643C17.8299 33.2537 17.9039 33.5016 17.8109 33.6175C17.7129 33.7394 17.457 33.6467 17.27 33.6548C17.0991 33.6618 16.9271 33.6588 16.7552 33.6548C16.6812 33.6528 16.6612 33.6789 16.6562 33.7535C16.6312 34.1415 16.6282 34.1415 17.0161 34.1415C17.0501 34.1415 17.0851 34.1395 17.1191 34.1415C17.271 34.1516 17.512 34.076 17.558 34.1697C17.6489 34.3561 17.5869 34.5959 17.5859 34.8136C17.5859 34.8952 17.513 34.869 17.468 34.87C17.239 34.8731 17.0101 34.8761 16.7821 34.87C16.6842 34.867 16.6552 34.8993 16.6562 34.997C16.6612 35.3255 16.6542 35.654 16.6602 35.9825C16.6622 36.0903 16.6392 36.1387 16.5202 36.1317C16.3603 36.1216 16.2003 36.1256 16.0403 36.1306C15.9504 36.1337 15.9224 36.0994 15.9224 36.0107C15.9244 35.0192 15.9254 34.0276 15.9224 33.0371C15.9224 32.9383 15.9654 32.9252 16.0473 32.9262C16.3273 32.9292 16.6082 32.9272 16.8881 32.9272L16.8871 32.9262Z" fill="#2A2B2A"/>
<path d="M28.8891 20.5345C28.8891 20.9094 28.8861 21.2833 28.8911 21.6581C28.8921 21.7559 28.8641 21.7891 28.7661 21.7841C28.6122 21.777 28.4572 21.775 28.3033 21.7841C28.1883 21.7911 28.1613 21.7488 28.1623 21.638C28.1663 20.9175 28.1603 20.197 28.1683 19.4775C28.1703 19.3273 28.1353 19.2749 27.9793 19.284C27.8404 19.2921 27.6534 19.3515 27.5724 19.2528C27.5045 19.1691 27.5504 18.9888 27.5494 18.8517C27.5484 18.5585 27.5494 18.5585 27.8454 18.5585C28.3482 18.5585 28.8511 18.5615 29.355 18.5555C29.47 18.5544 29.5189 18.5766 29.5099 18.7036C29.498 18.8588 29.503 19.015 29.5089 19.1701C29.5119 19.2578 29.489 19.3021 29.396 19.289C29.362 19.284 29.327 19.289 29.293 19.289C29.0237 19.289 28.8891 19.4274 28.8891 19.7042C28.8891 19.9803 28.8891 20.2574 28.8891 20.5335V20.5345Z" fill="#2A2B2A"/>
<path d="M31.5311 24.9008C31.4521 24.5552 31.3752 24.2086 31.2942 23.8629C31.2732 23.7722 31.2832 23.7198 31.3852 23.6866C31.8061 23.5485 32.227 23.4074 32.6428 23.2543C32.7668 23.2089 32.7738 23.2492 32.7738 23.353C32.7738 23.7803 32.7698 24.2075 32.7888 24.6338C32.8088 25.1004 32.7978 25.5679 32.8118 26.0345C32.8148 26.1494 32.7988 26.2068 32.6608 26.2199C32.4239 26.2421 32.19 26.2965 31.955 26.3388C31.903 26.3479 31.857 26.37 31.841 26.2874C31.8101 26.1252 31.7491 25.969 31.7481 25.8007C32.057 25.4319 32.3139 25.0248 32.6348 24.6056C32.5259 24.6358 32.4629 24.654 32.3989 24.6701C32.108 24.7406 31.8311 24.8646 31.5311 24.9018V24.9008Z" fill="white"/>
<path d="M31.5312 24.901C31.8311 24.8647 32.108 24.7408 32.3989 24.6692C32.4629 24.6541 32.5259 24.635 32.6349 24.6047C32.314 25.0239 32.057 25.431 31.7481 25.7999C31.6361 25.7283 31.6681 25.6023 31.6461 25.5016C31.6021 25.3031 31.5102 25.1126 31.5322 24.901H31.5312Z" fill="white"/>
<path d="M38.0068 21.4213C37.8648 21.6118 37.7228 21.8032 37.5809 21.9937C37.5519 22.033 37.5099 22.0249 37.4709 22.0249C37.071 22.0249 36.6711 22.0249 36.2622 21.9937C36.8361 21.7931 37.4099 21.5926 37.9838 21.3921L38.0068 21.4213Z" fill="#2A2B2A"/>
<path d="M32.88 31.0275C32.7741 30.5438 32.6661 30.0521 32.5571 29.5603C32.5461 29.511 32.5531 29.4717 32.5841 29.4313C32.6721 29.3215 32.7571 29.2097 32.879 29.1089V31.0265L32.88 31.0275Z" fill="white"/>
<path d="M32.431 28.9457C32.378 28.714 32.333 28.5265 32.292 28.3381C32.279 28.2796 32.5259 27.8796 32.5759 27.8665C32.6269 27.8534 32.8369 28.0892 32.8429 28.1668C32.8539 28.3008 32.8369 28.4227 32.7399 28.5316C32.6349 28.6495 32.5489 28.7845 32.431 28.9447V28.9457Z" fill="white"/>
<path d="M13.5498 39.2835C13.5738 39.2684 13.6048 39.2492 13.6258 39.2744C13.6418 39.2926 13.6158 39.3127 13.5978 39.3258C13.5818 39.3117 13.5658 39.2976 13.5508 39.2835H13.5498Z" fill="black"/>
<path d="M21.9443 20.9104C21.9703 20.9235 21.9533 20.9356 21.9433 20.9467C21.9413 20.9487 21.9303 20.9477 21.9283 20.9457C21.9183 20.9245 21.9313 20.9175 21.9483 20.9134L21.9443 20.9114V20.9104Z" fill="#E2E2E2"/>
</g>
<defs>
<clipPath id="clip0_2040_358">
<rect width="48" height="59" fill="white"/>
</clipPath>
</defs>
</svg>
