<svg width="29" height="16" viewBox="0 0 29 16" fill="none" xmlns="http://www.w3.org/2000/svg">
<path d="M27.8639 7.20617C27.5663 6.76563 27.1746 6.41565 26.758 6.09015C26.1704 5.62758 25.5233 5.27026 24.7894 5.08426C24.4175 4.99126 24.0381 4.92762 23.6513 4.97413C23.5274 4.98881 23.4232 4.97413 23.3241 4.88112C22.8307 4.42835 22.2406 4.13466 21.6083 3.92419C20.7281 3.6305 19.8207 3.50568 18.8934 3.50323C18.8314 3.50323 18.7744 3.50813 18.7223 3.45428C18.0925 2.80817 17.3115 2.40924 16.4635 2.12534C15.4098 1.77291 14.3213 1.63341 13.213 1.61628C13.1287 1.61628 13.0816 1.5967 13.0395 1.51838C12.9477 1.34706 12.8238 1.20022 12.675 1.07295C12.3229 0.77192 11.9163 0.56389 11.4824 0.41215C10.627 0.111119 9.7369 0.0352488 8.83936 0.00343248C8.47984 -0.00880458 8.12033 0.0132221 7.76329 0.0450385C7.18063 0.0964341 6.61285 0.211462 6.0649 0.419492C5.31612 0.703392 4.67147 1.13169 4.16319 1.74844C3.51855 2.52916 3.18382 3.43715 3.11192 4.43325C3.06729 5.07202 3.08961 5.71324 3.25325 6.34223C3.39953 6.90513 3.62268 7.42643 4.02187 7.85962C4.71114 8.60608 5.60125 8.80922 6.57566 8.69909C7.28477 8.61832 7.78809 8.2145 8.10793 7.58796C8.29637 7.22085 8.39554 6.82682 8.45753 6.42055C8.54431 5.83806 8.36579 5.35592 7.90462 4.98392C7.46824 4.63149 6.95005 4.45527 6.40458 4.35004C6.32028 4.3329 6.31036 4.31822 6.35251 4.24724C6.52359 3.96579 6.71202 3.69902 6.95996 3.47631C7.4732 3.01375 8.06826 2.83019 8.75506 2.98683C9.3997 3.13367 9.91294 3.48855 10.3344 3.98292C10.7634 4.48709 10.9964 5.04755 10.9196 5.72793C10.8477 6.36915 10.627 6.94429 10.2749 7.48028C10.0146 7.8792 9.69723 8.23408 9.38731 8.59385C8.92862 9.12983 8.4253 9.61442 7.86495 10.0452C7.29221 10.4881 6.70459 10.9115 6.10953 11.3252C5.40538 11.8122 4.69626 12.2943 3.97724 12.7593C3.71938 12.9258 3.464 13.0995 3.20862 13.2709C3.1987 13.2757 3.1863 13.2782 3.17639 13.2831C3.17887 13.2855 3.18382 13.2929 3.18382 13.2904C3.19374 13.2855 3.20118 13.2782 3.2111 13.2733C3.24829 13.2782 3.283 13.2684 3.32019 13.2537C4.43593 12.8474 5.51695 12.3653 6.54095 11.7657C7.53023 11.1857 8.44265 10.5077 9.27573 9.727C10.0444 9.00501 10.7411 8.21695 11.4031 7.40196C11.9039 6.78276 12.0874 6.06078 11.9783 5.27516C11.894 4.66575 11.6535 4.11508 11.2915 3.61581C11.0436 3.27562 10.7683 2.96235 10.3741 2.77635C9.54351 2.38966 8.67572 2.23058 7.76081 2.3554C6.8955 2.47532 6.21862 2.88893 5.75001 3.61826C5.4872 4.02453 5.33595 4.4773 5.19958 4.93741C5.12768 5.1846 5.07313 5.43669 5.08057 5.69611C5.09545 6.13175 5.25909 6.44012 5.76985 6.40586C5.7996 6.40586 5.84175 6.42055 5.85911 6.38383C5.8715 6.35447 5.83679 6.33489 5.81944 6.31286C5.67811 6.11462 5.55414 5.90904 5.48968 5.67164C5.40538 5.36571 5.51447 5.143 5.80952 5.03776C6.00043 4.96923 6.20127 4.95699 6.39714 4.99126C7.13848 5.12097 7.61205 5.83806 7.62693 6.41565C7.6418 6.99079 7.28973 7.39462 6.83847 7.71523C6.57814 7.90123 6.27813 7.91347 5.97068 7.89878C5.19463 7.86452 4.7285 7.48517 4.55246 6.72402C4.44089 6.24188 4.43841 5.7573 4.50039 5.26782C4.61444 4.37206 4.91693 3.54239 5.35331 2.75432C5.3781 2.71027 5.41281 2.66866 5.42025 2.58056C4.62932 3.0162 4.27229 3.75042 3.89294 4.47485C3.90285 4.3794 3.91277 4.28885 3.93509 4.1983C4.17311 3.18507 4.68635 2.33826 5.52439 1.69704C6.3178 1.09253 7.24262 0.842895 8.22694 0.791499C8.78481 0.76213 9.34268 0.803736 9.89063 0.908975C11.2394 1.17085 12.3899 1.78025 13.2676 2.83509C14.2717 4.04166 14.6313 5.43913 14.4131 6.981C14.2841 7.89144 13.9767 8.75293 13.5849 9.58505C13.1163 10.5836 12.5436 11.5258 11.8742 12.4069C11.8593 12.4265 11.8246 12.4436 11.8543 12.4803C11.8692 12.4754 11.8841 12.4705 11.8989 12.4632C11.9585 12.4338 12.018 12.4045 12.075 12.3727C12.98 11.8416 13.7833 11.1857 14.547 10.4759C14.8817 10.1651 15.199 9.83713 15.4991 9.4945C15.9453 8.98054 16.3544 8.447 16.6421 7.82781C16.8801 7.31875 16.9396 6.78766 16.8355 6.23944C16.6817 5.44892 16.2528 4.81994 15.6528 4.29375C15.6156 4.25948 15.5685 4.23256 15.5387 4.14935C16.4115 4.38919 16.8875 5.0451 17.376 5.71324C17.3859 5.53214 17.3561 5.3804 17.3264 5.22866C17.2272 4.74162 17.014 4.31332 16.6421 3.96579C16.171 3.5277 15.6007 3.31968 14.966 3.26094C14.8643 3.25115 14.7825 3.22667 14.718 3.13122C14.6164 2.97704 14.4924 2.83998 14.3858 2.69069C14.3337 2.61727 14.2593 2.55608 14.2296 2.45084C14.547 2.47287 14.8494 2.50469 15.1519 2.55119C15.8239 2.65398 16.4759 2.82775 17.0933 3.11899C17.6363 3.37597 18.1049 3.72595 18.4867 4.18361C19.0744 4.88602 19.3297 5.71814 19.3892 6.61144C19.4264 7.16945 19.3917 7.72746 19.3025 8.28058C19.1165 9.41863 18.757 10.5053 18.2884 11.5577C18.157 11.8514 18.0156 12.1426 17.8768 12.4338C17.8743 12.4387 17.8694 12.4436 17.8669 12.4485C17.8718 12.4461 17.8768 12.4412 17.8818 12.4387C17.9214 12.4412 17.9537 12.4216 17.9859 12.4045C18.4967 12.1255 18.9975 11.8342 19.4686 11.4965C20.1951 10.9752 20.8546 10.3854 21.3058 9.60463C21.767 8.80922 21.8885 7.96976 21.5934 7.08869C21.4248 6.58207 21.1397 6.14154 20.7876 5.74261C20.8323 5.73282 20.8645 5.76219 20.8967 5.78422C21.281 6.04854 21.6182 6.36915 21.9406 6.70445C21.9827 6.7485 22.01 6.80234 22.0844 6.83905C21.9827 6.42544 21.7893 6.08036 21.5091 5.78422C21.0777 5.32655 20.5347 5.05244 19.9273 4.89091C19.8876 4.88112 19.8405 4.88357 19.8157 4.84441C19.6818 4.62659 19.5504 4.40877 19.4091 4.17382C19.5975 4.16893 19.7537 4.21543 19.9074 4.24724C20.8422 4.4357 21.7348 4.73428 22.5133 5.29718C23.1381 5.74751 23.5943 6.3251 23.8447 7.04953C24.0307 7.58796 24.0976 8.13863 24.0679 8.70888C24.0481 9.11759 23.9885 9.51897 23.8968 9.91545C23.7257 10.6497 23.458 11.3496 23.1059 12.0202C23.086 12.0569 23.0563 12.0912 23.0588 12.1475C23.0885 12.1377 23.1084 12.1353 23.1257 12.1279C23.9563 11.7779 24.7249 11.3423 25.3126 10.6448C25.6101 10.2924 25.7911 9.88363 25.8208 9.42107C25.8531 8.9267 25.7266 8.46903 25.4787 8.03829C25.315 7.75194 25.0993 7.50475 24.8762 7.26246L24.8811 7.25756C24.9258 7.25267 24.9605 7.27469 24.9977 7.29182C25.3126 7.43867 25.6026 7.62712 25.8878 7.82291C25.925 7.84739 25.9572 7.88899 26.0192 7.88655C26.0192 7.86452 26.0192 7.84739 26.0142 7.8327C25.9969 7.7862 25.9795 7.7397 25.9597 7.69565C25.7514 7.2649 25.4018 6.97121 25.0026 6.72892C24.6679 6.52578 24.2811 6.39118 24.11 5.99714C24.11 5.9947 24.1051 5.9898 24.1026 5.98735C24.0282 5.91148 24.0679 5.87722 24.1497 5.85519C24.3456 5.80135 24.5365 5.84051 24.7225 5.8919C25.3869 6.07791 25.9845 6.40097 26.5473 6.78521C26.9043 7.02995 27.1548 7.37259 27.3308 7.76417C27.6977 8.5865 27.7349 9.45289 27.6779 10.3315C27.6655 10.5151 27.6333 10.6937 27.611 10.8773C27.6035 10.9336 27.5911 10.9899 27.5862 11.0462C27.5837 11.1024 27.5366 11.1563 27.5763 11.2199C27.5911 11.2052 27.601 11.1979 27.606 11.1881C28.0077 10.5958 28.2754 9.95461 28.3597 9.24241C28.4465 8.50329 28.2854 7.82536 27.8663 7.20617H27.8639Z" fill="#93A8C4"/>
<path d="M27.8363 11.7926C27.4247 12.1915 26.971 12.5317 26.4429 12.7691C26.3313 12.8181 26.2247 12.8841 26.0958 12.8792C26.185 12.7153 26.2793 12.5513 26.3586 12.3824C26.6636 11.7387 26.7999 11.0706 26.666 10.3633C26.6115 10.0794 26.5123 9.81019 26.3512 9.55076C25.8354 12.2307 23.7205 13.4128 21.7717 13.4764C21.8932 13.2464 22.0221 13.0236 22.1287 12.7887C22.5651 11.8244 22.8378 10.8259 22.818 9.76124C22.8106 9.25218 22.7312 8.75535 22.5626 8.27321C22.5502 8.23895 22.5527 8.19245 22.4982 8.17532C22.4833 8.24874 22.4684 8.31482 22.4535 8.38335C22.1015 9.77592 21.5312 11.0584 20.5493 12.1401C20.1229 12.61 19.6344 12.9992 19.0741 13.3026C18.1046 13.8264 17.0583 13.983 15.9699 13.9292C15.9252 13.9292 15.8633 13.9292 15.8459 13.8925C15.8236 13.8509 15.8781 13.8142 15.9029 13.7799C16.7459 12.5978 17.4352 11.3398 17.8617 9.94969C18.0154 9.45042 18.127 8.93891 18.1617 8.41761C18.1865 8.04316 18.1939 7.66626 18.1394 7.2918C18.1096 7.08622 18.0799 6.87819 18.0055 6.67261C17.9559 6.70687 17.9608 6.75337 17.9534 6.78764C17.822 7.32117 17.6286 7.83268 17.398 8.3295C16.6839 9.87382 15.6624 11.1881 14.326 12.2576C13.2078 13.1509 11.9508 13.7921 10.5846 14.2302C10.359 14.3036 10.1358 14.3917 9.89532 14.4162C9.98458 14.2351 10.1185 14.0858 10.23 13.9218C10.9044 12.9208 11.5243 11.8905 12.04 10.8014C12.4392 9.95703 12.7814 9.0931 12.9921 8.18266C13.1756 7.39459 13.2574 6.59918 13.1012 5.79643C13.0343 5.45624 12.9227 5.13074 12.7367 4.83215C12.7268 4.87621 12.7268 4.91781 12.7268 4.96187C12.7342 5.24821 12.6995 5.53211 12.645 5.81112C12.4615 6.77295 12.0772 7.65647 11.5491 8.48369C10.9788 9.377 10.2697 10.1528 9.47382 10.8577C8.90852 11.357 8.3085 11.8097 7.67625 12.2209C6.66713 12.8792 5.60346 13.4421 4.50013 13.9316C3.14141 14.5361 1.7455 15.0354 0.317364 15.4564C0.21075 15.4882 0.106615 15.5224 0 15.5567C0.359514 15.5861 0.716549 15.5885 1.0711 15.5861C1.41574 15.5861 1.76286 15.5787 2.10998 15.5567C2.62074 15.5249 3.13397 15.5322 3.64721 15.5224C3.86044 15.5176 4.06623 15.5518 4.2621 15.6375C4.36376 15.6815 4.46294 15.684 4.55963 15.635C4.79766 15.5127 5.05799 15.4882 5.31833 15.4784C5.79686 15.4588 6.27786 15.4759 6.75639 15.4564C7.44319 15.4294 8.12998 15.4392 8.81678 15.4343C10.8425 15.4172 12.8657 15.427 14.8913 15.4294C15.169 15.4294 15.4442 15.427 15.7219 15.4441C16.0319 15.4637 16.3443 15.4588 16.6517 15.4417C16.917 15.427 17.1823 15.4123 17.4451 15.4392C17.8493 15.4808 18.2485 15.5004 18.6501 15.449C19.1733 15.3829 19.6964 15.3218 20.2196 15.2581C20.7725 15.1896 21.3204 15.099 21.8684 14.9987C22.5775 14.8665 23.2817 14.7075 23.9734 14.4994C24.8511 14.2351 25.6991 13.9096 26.4751 13.4152C27.0801 13.0285 27.6057 12.5635 27.9727 11.9443C28.0669 11.7828 28.1735 11.6262 28.2033 11.4353L28.2157 11.423C28.2157 11.423 28.2058 11.4304 28.2033 11.4328C28.0793 11.5527 27.9553 11.6727 27.8338 11.7901L27.8363 11.7926Z" fill="#93A8C4"/>
</svg>
