<svg width="51" height="39" viewBox="0 0 51 39" fill="none" xmlns="http://www.w3.org/2000/svg">
<g clip-path="url(#clip0_2040_406)">
<path d="M12.5202 38.4722C12.5096 38.4123 12.4979 38.3514 12.4861 38.298C12.4861 38.2948 12.4798 38.3503 12.4766 38.3781C12.4904 38.4166 12.5042 38.454 12.517 38.4925L12.5191 38.4722H12.5202Z" fill="#2A2B2A"/>
<path d="M32.1234 31.7853C32.0787 31.7469 32.0233 31.7105 31.9669 31.7287C31.8998 31.7501 31.936 31.8195 31.936 31.8655C31.9339 32.622 31.9339 33.3796 31.9339 34.1361V35.8233C31.9339 36.0231 31.9339 36.2229 31.9339 36.4227C31.9339 36.5488 31.9839 36.5787 32.0957 36.5146C32.2149 36.4462 32.2107 36.3191 32.2107 36.2069C32.2139 34.8135 32.2128 33.4202 32.2128 32.0279C32.2128 31.936 32.1958 31.8494 32.1223 31.7853H32.1234Z" fill="#4D7ED4"/>
<path d="M14.9242 31.6496C14.8848 31.5438 14.7922 31.5171 14.6932 31.5353C14.5974 31.5535 14.6485 31.6379 14.6474 31.6892C14.641 31.9242 14.6442 32.1604 14.6442 32.3965C14.6442 32.653 14.6474 32.9094 14.6421 33.1659C14.64 33.2567 14.6794 33.2748 14.755 33.2599C14.9295 33.2257 14.9519 33.09 14.953 32.9489C14.9562 32.5771 14.9551 32.2053 14.953 31.8334C14.953 31.7714 14.9444 31.7063 14.9232 31.6486L14.9242 31.6496Z" fill="#4D7ED4"/>
<path d="M21.531 31.5365C21.4469 31.5546 21.4884 31.6326 21.4873 31.6818C21.4831 31.9959 21.4852 32.3111 21.4852 32.6253C21.4852 32.9394 21.4884 33.276 21.4831 33.6008C21.482 33.6938 21.5118 33.7259 21.6002 33.7088C21.7588 33.6778 21.7876 33.5592 21.7876 33.4245C21.7886 32.8849 21.7876 32.3443 21.7876 31.8047C21.7876 31.7363 21.7801 31.6679 21.7396 31.6091C21.6875 31.5343 21.6087 31.5204 21.5299 31.5365H21.531Z" fill="#4D7ED4"/>
<path d="M10.0599 23.2179C9.9322 23.1816 9.84277 23.2649 9.77677 23.3685C9.70757 23.4765 9.67564 23.5972 9.65435 23.7222C9.49998 24.5995 9.34456 25.4778 9.18913 26.3551C9.09651 26.8818 9.0039 27.4086 8.91447 27.9354C8.89957 28.0241 8.85805 28.1331 8.96557 28.1908C9.08161 28.2528 9.18913 28.2025 9.28281 28.1245C9.3403 28.0765 9.37862 28.0123 9.40098 27.9418C9.42653 27.8617 9.44995 27.7815 9.46379 27.6993C9.64051 26.6874 9.81509 25.6744 9.98968 24.6615C10.0567 24.2693 10.1217 23.8761 10.1813 23.5203C10.1728 23.3771 10.1866 23.2521 10.061 23.2168L10.0599 23.2179ZM9.12313 28.069C9.08268 28.0818 9.05606 28.0839 9.04116 28.0711C9.05606 28.0829 9.08268 28.0818 9.12206 28.069C9.18168 28.0497 9.22 28.0145 9.24662 27.9717C9.22 28.0145 9.18062 28.0497 9.12206 28.069H9.12313ZM9.25939 26.7098C9.18487 27.1372 9.10929 27.5646 9.03264 27.992C9.02732 28.0188 9.02732 28.038 9.03264 28.053C9.02838 28.0391 9.02838 28.0188 9.03264 27.992C9.10929 27.5646 9.18487 27.1372 9.25939 26.7098C9.32327 26.3433 9.3882 25.9768 9.45208 25.6092C9.3882 25.9757 9.32327 26.3422 9.25939 26.7098ZM9.83851 24.7694C9.69373 25.6092 9.54789 26.4491 9.40204 27.289C9.39459 27.3338 9.38714 27.3787 9.37862 27.4247C9.38608 27.3798 9.39353 27.3338 9.40204 27.289C9.54789 26.4491 9.69373 25.6092 9.83851 24.7694C9.90878 24.3623 9.97584 23.9552 10.0429 23.5534C10.011 23.4807 10.0823 23.3707 9.99288 23.3536C9.9833 23.3515 9.97371 23.3515 9.96626 23.3536C9.97478 23.3515 9.98329 23.3515 9.99394 23.3536C10.0834 23.3696 10.012 23.4807 10.044 23.5534C9.97691 23.9541 9.90984 24.3623 9.83958 24.7694H9.83851Z" fill="#4D7ED4"/>
<path d="M27.0292 13.8597C27.0196 13.8715 27.0101 13.8822 27.0005 13.8939L27.0101 13.9035C27.0207 13.8939 27.0314 13.8832 27.042 13.8736C27.1133 13.8565 27.1527 13.7956 27.2006 13.7486C27.603 13.3575 28.0001 12.9611 28.3567 12.5262C28.8411 11.9364 29.2733 11.3134 29.5608 10.5997C29.7652 10.0921 29.8801 9.56961 29.7896 9.02039C29.6672 8.27242 29.2063 7.76167 28.608 7.35029C28.4824 7.26374 28.4834 7.34174 28.4845 7.43363C28.4898 7.97431 28.4706 8.51391 28.4259 9.05245C28.3684 9.73203 28.279 10.4052 28.1353 11.0709C27.9511 11.9204 27.6861 12.7421 27.2421 13.4954C27.1708 13.6161 27.0654 13.7176 27.0292 13.8587V13.8597Z" fill="#4D7ED4"/>
<path d="M33.9308 14.6996C34.4662 14.1034 34.9272 13.4559 35.2593 12.7239C35.5308 12.1277 35.7032 11.509 35.6575 10.8401C35.6213 10.3166 35.4499 9.84856 35.1593 9.42008C35.1071 9.34314 35.056 9.20851 34.9772 9.22561C34.8889 9.24484 34.9197 9.38909 34.9059 9.47671C34.7398 10.542 34.545 11.602 34.3023 12.6513C34.1139 13.4676 33.9137 14.2808 33.5635 15.0533C33.7168 14.9657 33.8179 14.8257 33.9318 14.6986L33.9308 14.6996Z" fill="#4D7ED4"/>
<path d="M39.8851 15.0202C40.1565 14.7061 40.4078 14.3781 40.6047 14.0116C40.9262 13.4164 41.1434 12.7945 41.0263 12.1C40.9858 11.8585 40.9102 11.6309 40.7708 11.3894C40.5217 12.6545 40.3077 13.8897 39.8105 15.0502C39.8521 15.0598 39.868 15.0384 39.8851 15.0192V15.0202Z" fill="#4D7ED4"/>
<path d="M26.959 13.9458C26.959 13.9458 26.9698 13.9359 26.9753 13.9304C26.9709 13.9315 26.9655 13.9326 26.9612 13.9348C26.959 13.937 26.959 13.9425 26.959 13.9458Z" fill="#4D7ED4"/>
<path d="M27.0109 13.9027L27.0011 13.8928C26.9925 13.906 26.9838 13.918 26.9751 13.9312C26.987 13.9213 26.999 13.9125 27.0109 13.9027Z" fill="#4D7ED4"/>
<path d="M41.3362 16.2451C41.3308 16.2418 41.3243 16.2374 41.3188 16.2341C41.3232 16.2396 41.3275 16.2451 41.3308 16.2506L41.3362 16.2451Z" fill="#4D7ED4"/>
<path d="M36.7288 14.5108C36.7288 14.5108 36.7244 14.5043 36.7212 14.501C36.7212 14.5032 36.7212 14.5076 36.7223 14.5086C36.7234 14.5097 36.7255 14.5108 36.7277 14.5119L36.7288 14.5108Z" fill="#4D7ED4"/>
<path d="M36.7336 14.5131C36.7336 14.5131 36.7298 14.5118 36.7285 14.5105C36.7285 14.5118 36.7311 14.5131 36.7311 14.5144H36.7336V14.5131Z" fill="#4D7ED4"/>
<path d="M42.7442 16.5623C42.7442 16.5623 42.7508 16.5547 42.7529 16.5503C42.7508 16.5503 42.7475 16.5525 42.7453 16.5536C42.7432 16.5547 42.7442 16.5591 42.7432 16.5613L42.7442 16.5623Z" fill="#4D7ED4"/>
<path d="M42.7565 16.5481C42.7565 16.5481 42.7552 16.5507 42.7539 16.552C42.7552 16.552 42.7565 16.5507 42.7577 16.5494C42.7577 16.5494 42.7577 16.5494 42.7577 16.5481C42.7577 16.5481 42.7565 16.5481 42.7552 16.5481H42.7565Z" fill="#4D7ED4"/>
<path d="M50.8393 37.065C50.4582 35.1353 50.076 33.2044 49.6992 31.2736C49.6779 31.1657 49.6268 31.1187 49.5256 31.0898C49.2595 31.0129 48.9976 30.9231 48.7315 30.8451C48.6495 30.8216 48.6154 30.7842 48.5984 30.6987C48.3525 29.4315 48.1012 28.1663 47.8521 26.9001C47.7382 26.3242 47.6254 25.7472 47.5115 25.1713C47.4763 24.9918 47.4763 24.9896 47.6605 25.0057C47.8851 25.026 48.1098 25.0441 48.3323 25.074C48.4408 25.089 48.4568 25.0612 48.4345 24.9597C48.361 24.6167 48.295 24.2716 48.2269 23.9264C47.8894 22.2179 47.5509 20.5093 47.2155 18.7997C47.1974 18.7056 47.1602 18.6747 47.0612 18.6757C46.5747 18.6779 46.0871 18.6693 45.6006 18.6693C44.6574 18.6683 43.7142 18.6693 42.771 18.6693H42.5783C42.6911 18.5016 42.6911 18.5026 42.8231 18.4342C43.7355 17.9588 44.5807 17.3882 45.2461 16.59C45.8412 15.8762 46.3298 15.1079 46.3532 14.1292C46.3649 13.6473 46.3224 13.1835 46.0041 12.7903C45.9647 12.7422 45.9732 12.6963 45.9764 12.6439C46.0605 11.5658 45.821 10.5689 45.2269 9.66381C44.7479 8.93294 44.1102 8.35701 43.4172 7.84198C42.1897 6.92946 40.8431 6.34391 39.2803 6.38665C39.2207 6.38879 39.1845 6.35139 39.144 6.31827C38.8608 6.08319 38.5596 5.87483 38.2391 5.69639C36.769 4.8747 35.1679 4.57017 33.5082 4.50712C33.4145 4.50392 33.34 4.48468 33.2698 4.41951C32.6278 3.82434 31.888 3.38624 31.0863 3.04752C29.6662 2.44808 28.1769 2.17027 26.645 2.10081C26.4204 2.09013 26.2298 2.06448 26.1053 1.84757C26.0595 1.7685 25.9796 1.7076 25.9104 1.64348C25.2312 1.00664 24.4073 0.644415 23.5269 0.401861C22.3431 0.074893 21.1306 -0.0148629 19.9063 0.00223342C19.0706 0.0139872 18.2467 0.110154 17.4397 0.335612C15.4181 0.899792 13.8894 2.07837 13.0228 4.02095C12.1957 5.87483 12.1744 7.78856 12.7769 9.70976C13.0516 10.587 13.537 11.3457 14.2641 11.9248C15.2031 12.6728 16.2932 12.9111 17.4621 12.8277C18.5777 12.7486 19.4507 12.2315 20.0596 11.2848C20.4727 10.6415 20.6792 9.92453 20.7835 9.17443C20.9496 7.98089 20.4939 7.06517 19.5263 6.38452C19.2441 6.18684 18.9365 6.03725 18.6043 5.89834C19.0515 5.47734 19.555 5.29783 20.1416 5.43353C20.9624 5.62373 21.5532 6.13555 22.0024 6.83009C22.2356 7.19018 22.3282 7.58447 22.2877 8.01508C22.2334 8.60918 22.0727 9.16909 21.7714 9.68411C21.2051 10.6533 20.4556 11.4782 19.6678 12.2603C18.8098 13.1119 17.807 13.7915 16.8287 14.4946C14.6335 16.0728 12.3522 17.5217 10.0804 18.9835C9.96436 19.0583 9.84406 19.1149 9.71205 19.1523C9.31497 19.2666 8.91895 19.381 8.524 19.5028C8.43032 19.5316 8.37177 19.5156 8.31003 19.4397C8.05134 19.1224 7.72132 18.9055 7.33382 18.7826C6.62482 18.5582 5.89986 18.5347 5.17702 18.6821C3.74837 18.9749 2.88501 19.8874 2.56032 21.2787C2.18347 22.8975 1.88965 24.5355 1.58412 26.1703C1.42337 27.0284 1.5756 27.818 2.07914 28.5361C2.15579 28.645 2.22073 28.7615 2.30057 28.8887C1.88752 28.9987 1.4947 29.1045 1.10081 29.206C1.00606 29.2306 0.958156 29.2669 0.936865 29.3759C0.703726 30.5812 0.46207 31.7854 0.224673 32.9897C0.122475 33.509 -0.00420827 34.024 0.00324367 34.5604C0.0213412 35.8576 1.03055 36.7455 2.31547 36.597C3.05428 36.5115 3.73879 36.2604 4.38818 35.9131C5.48148 35.3276 6.27352 34.476 6.62056 33.2579C6.76641 32.7482 6.83241 32.2203 6.93035 31.7C6.95271 31.5813 6.97081 31.5098 7.12197 31.5557C7.22949 31.5878 7.35085 31.5878 7.46476 31.5813C8.95728 31.4969 10.3795 31.1913 11.6198 30.2542V31.1903C11.6198 31.4542 11.6176 31.4638 11.8635 31.5258C11.9913 31.5578 12.0168 31.6166 12.0168 31.7406C12.0126 33.1809 12.0136 34.6213 12.0136 36.0617C12.0136 36.4399 12.0147 36.4431 11.6591 36.581C11.5687 36.6162 11.5335 36.66 11.5346 36.7626C11.5399 37.4411 11.5442 38.1186 11.5325 38.7971C11.5293 38.9638 11.5804 38.9883 11.7315 38.9883C20.4812 38.983 29.2297 38.9819 37.9794 38.9787C38.1337 38.9787 38.3413 39.0471 38.4286 38.9477C38.5053 38.8623 38.4521 38.6582 38.4521 38.5064C38.4521 37.2552 38.4489 36.004 38.4574 34.7527C38.4584 34.5818 38.4073 34.539 38.2509 34.555C38.1316 34.5679 38.0103 34.554 37.89 34.5593C37.8144 34.5625 37.791 34.5369 37.792 34.461C37.7952 34.1565 37.7973 33.8509 37.792 33.5464C37.791 33.4587 37.8229 33.4406 37.9006 33.4427C38.0315 33.447 38.1636 33.4363 38.2934 33.4459C38.4137 33.4545 38.4531 33.4213 38.4521 33.292C38.4457 32.5088 38.451 31.7256 38.4467 30.9424C38.4467 30.8377 38.4595 30.7928 38.5819 30.8152C39.4879 30.9766 40.3938 31.1411 41.2934 31.3367C41.8054 31.4478 42.3175 31.5664 42.8466 31.4745C42.919 31.4617 42.9243 31.5076 42.9328 31.5536C42.9999 31.9094 43.0659 32.2652 43.134 32.621C43.1478 32.6926 43.1297 32.7247 43.052 32.7353C42.8711 32.761 42.6922 32.8016 42.5102 32.8262C42.425 32.8379 42.4112 32.8668 42.4271 32.9491C42.5474 33.5773 42.6656 34.2067 42.7763 34.8371C42.7944 34.9408 42.8338 34.9835 42.9339 35.0113C45.2046 35.6674 47.4348 36.4442 49.6257 37.3311C50.0749 37.5127 50.5285 37.6858 51.0032 37.8717C50.9468 37.5886 50.8936 37.3279 50.8425 37.0671L50.8393 37.065ZM0.901734 33.7216C0.852765 33.9845 0.812311 34.2484 0.813376 34.5187C0.813376 34.2484 0.852765 33.9845 0.901734 33.7216ZM48.0661 31.6423C48.0682 31.6134 48.0714 31.5899 48.0768 31.5717C48.0714 31.591 48.0682 31.6145 48.0661 31.6423C48.0523 31.8431 48.0331 32.0429 47.9959 32.2417C48.0342 32.0429 48.0523 31.8431 48.0661 31.6423ZM13.3305 17.8733C13.6552 17.6542 13.9767 17.4309 14.3046 17.2151C15.2148 16.6178 16.1122 15.9991 17.0022 15.3719C17.7548 14.8408 18.4958 14.2927 19.2218 13.7253C19.9297 13.1707 20.5685 12.5478 21.1486 11.8596C21.5404 11.3948 21.9428 10.9386 22.2728 10.4257C22.7168 9.73754 22.9957 8.99599 23.0872 8.17216C23.1852 7.29704 22.8913 6.57578 22.3484 5.92826C21.8161 5.29249 21.1657 4.83516 20.3492 4.64603C19.4815 4.44408 18.7289 4.68129 18.0785 5.27539C17.7655 5.56069 17.5281 5.90582 17.3109 6.26805C17.2566 6.35887 17.2694 6.37918 17.3769 6.40055C18.0657 6.53838 18.7214 6.76491 19.275 7.2169C19.8595 7.6956 20.0841 8.31641 19.9755 9.06437C19.8999 9.58688 19.7711 10.0923 19.5337 10.5656C19.1302 11.3724 18.4936 11.8906 17.5962 11.9943C16.3645 12.1364 15.2403 11.8735 14.3674 10.914C13.8617 10.3584 13.5775 9.68625 13.3933 8.96286C13.1879 8.15399 13.158 7.33016 13.2145 6.50847C13.3028 5.22731 13.7286 4.06048 14.5441 3.05607C15.1871 2.2643 16.0047 1.71294 16.9511 1.3475C17.643 1.08037 18.3606 0.930779 19.0983 0.8656C19.5518 0.824996 20.0064 0.796146 20.4609 0.813242C21.5958 0.855983 22.7231 0.954287 23.8037 1.34216C24.3551 1.53984 24.8693 1.80483 25.3132 2.19377C25.5006 2.35726 25.6581 2.54852 25.7742 2.76757C25.8274 2.86908 25.8891 2.89259 25.9945 2.89366C27.3966 2.91503 28.7741 3.09454 30.1069 3.54759C31.18 3.91196 32.1669 4.42592 32.9632 5.25723C33.0281 5.32561 33.1016 5.3192 33.1793 5.3192C34.3524 5.32241 35.5021 5.48055 36.6146 5.8588C37.4141 6.13128 38.1582 6.50847 38.7842 7.08974C38.9098 7.20621 39.0439 7.22651 39.1994 7.20835C39.6901 7.14851 40.1681 7.22972 40.6387 7.35153C41.567 7.58981 42.3835 8.04928 43.1287 8.64444C43.6535 9.06437 44.1507 9.51315 44.5275 10.0795C45.0566 10.8755 45.2599 11.7474 45.1513 12.6995C45.046 13.6173 44.7053 14.4412 44.1986 15.203C44.19 15.2159 44.1783 15.2255 44.1602 15.2447C44.1113 15.1624 44.1688 15.093 44.1719 15.0214C44.1762 14.9487 44.1932 14.8761 44.2028 14.8045C44.2326 14.5705 44.2741 14.3386 44.289 14.1035C44.3582 12.9752 44.3125 11.8596 43.8483 10.8018C43.6269 10.2974 43.3097 9.85722 42.8572 9.54307C42.145 9.04834 41.3881 8.63376 40.5482 8.39441C40.3118 8.32709 40.0702 8.2758 39.8221 8.34526C39.7189 8.37411 39.6678 8.41685 39.7615 8.51408C39.7647 8.51836 39.7689 8.52156 39.771 8.52584C39.9861 9.03445 40.4768 9.20755 40.8995 9.46827C41.4051 9.77921 41.848 10.1596 42.111 10.712C42.1376 10.7687 42.1599 10.8285 42.1812 10.8873C42.1876 10.9054 42.1855 10.9268 42.1876 10.9557C42.1099 10.9589 42.0684 10.9054 42.0215 10.8723C41.6606 10.6201 41.2944 10.3776 40.8963 10.1874C40.8494 10.1649 40.8037 10.1382 40.7483 10.1425L40.7419 10.1489C41.0251 10.4588 41.2944 10.7783 41.5031 11.1459C41.8161 11.6972 41.9779 12.287 41.9364 12.9239C41.897 13.518 41.6702 14.0437 41.2923 14.4989C40.5492 15.3943 39.5762 15.9563 38.5266 16.4051C38.5032 16.4147 38.4776 16.4201 38.4403 16.4308C38.4361 16.3602 38.4744 16.3154 38.4989 16.2683C38.9428 15.4071 39.2813 14.5064 39.4985 13.5607C39.6156 13.05 39.6901 12.5339 39.7157 12.0082C39.7519 11.2762 39.6667 10.5667 39.4325 9.87431C39.1153 8.93936 38.5362 8.1978 37.7462 7.61866C36.7594 6.8942 35.631 6.51274 34.4482 6.26912C34.2513 6.22851 34.0554 6.16547 33.8159 6.17402C33.9947 6.47534 34.1619 6.75636 34.3301 7.03632C34.3609 7.08654 34.4206 7.08119 34.4706 7.09509C35.2381 7.30345 35.9248 7.65499 36.472 8.24482C36.8254 8.62628 37.0724 9.07078 37.1991 9.60291C37.1064 9.55482 37.0703 9.48537 37.0181 9.42981C36.6114 8.99812 36.1856 8.58781 35.698 8.24695C35.6565 8.2181 35.6171 8.1807 35.5596 8.19246C36.0057 8.70642 36.3655 9.27273 36.5795 9.9256C36.9521 11.0604 36.7967 12.1374 36.2154 13.1622C35.6448 14.1666 34.8112 14.9241 33.8915 15.5952C33.2942 16.0311 32.6608 16.4073 32.0157 16.7652C31.9753 16.7877 31.9337 16.8133 31.8837 16.809L31.8762 16.8015C32.0498 16.4254 32.2297 16.0525 32.3958 15.6732C32.9887 14.3194 33.4433 12.9239 33.6786 11.4589C33.7935 10.7452 33.8361 10.0282 33.7893 9.31013C33.7147 8.16147 33.3922 7.08974 32.6481 6.18684C32.1658 5.60129 31.5728 5.14824 30.8862 4.81806C30.1059 4.44408 29.283 4.22076 28.4313 4.08826C28.0502 4.02949 27.667 3.98889 27.2656 3.96004C27.304 4.09574 27.3976 4.17481 27.4636 4.26884C27.5999 4.46118 27.7564 4.63962 27.8841 4.8373C27.964 4.96018 28.0683 4.99116 28.1982 5.00399C29.0009 5.08092 29.7216 5.34912 30.3188 5.91223C30.7904 6.35674 31.0587 6.90809 31.1853 7.53532C31.2247 7.72979 31.262 7.9264 31.2482 8.15827C30.6328 7.29704 30.0292 6.45504 28.9253 6.14624C28.9625 6.25309 29.0222 6.28835 29.0701 6.33109C29.828 7.0096 30.372 7.81848 30.5647 8.83571C30.6988 9.54093 30.6211 10.2227 30.3209 10.8787C29.9568 11.6737 29.4384 12.3629 28.8742 13.0232C28.4952 13.4667 28.0928 13.8866 27.6702 14.2873C26.7057 15.2009 25.6879 16.0461 24.5435 16.7278C24.4711 16.7706 24.3956 16.8069 24.321 16.8443C24.3029 16.8539 24.2838 16.8592 24.2646 16.8657C24.2252 16.8176 24.2689 16.7962 24.288 16.7706C25.1354 15.6369 25.8583 14.4262 26.4523 13.1408C26.9473 12.0712 27.3338 10.9631 27.4988 9.79097C27.7766 7.80886 27.321 6.0116 26.051 4.45797C24.9417 3.10095 23.4832 2.31772 21.7789 1.98007C21.0837 1.84223 20.38 1.79094 19.6732 1.82727C18.4255 1.89138 17.2577 2.21407 16.2538 2.99196C15.1935 3.81365 14.5452 4.90461 14.245 6.20821C14.2183 6.32468 14.2045 6.44329 14.1928 6.5651C14.6719 5.63548 15.1254 4.68877 16.125 4.12887C16.1143 4.2432 16.0696 4.29556 16.0387 4.35219C15.4862 5.36515 15.1041 6.43367 14.9603 7.58447C14.8816 8.2149 14.8869 8.83891 15.0274 9.45866C15.2478 10.4374 15.8386 10.9257 16.8201 10.9695C17.2076 10.9866 17.5866 10.9728 17.9166 10.7323C18.4862 10.3177 18.9322 9.80058 18.9131 9.0601C18.8939 8.31641 18.2967 7.39534 17.3577 7.22758C17.1097 7.18377 16.8553 7.20087 16.6147 7.28849C16.2431 7.42419 16.1037 7.71162 16.2112 8.10377C16.2942 8.40723 16.4507 8.67329 16.6285 8.9276C16.6487 8.95645 16.6935 8.98103 16.6775 9.0195C16.6573 9.06758 16.604 9.04514 16.5646 9.04728C15.9195 9.09109 15.713 8.69573 15.6938 8.13476C15.6832 7.80352 15.7524 7.47762 15.8439 7.16027C16.0143 6.56937 16.208 5.98703 16.5391 5.46238C17.1331 4.52208 17.989 3.98996 19.0845 3.83609C20.2416 3.67368 21.3413 3.87776 22.391 4.37676C22.8892 4.61398 23.2395 5.01681 23.5514 5.45597C24.0081 6.09815 24.3125 6.80765 24.42 7.59088C24.5584 8.6017 24.3264 9.53025 23.693 10.3252C22.8562 11.3745 21.9748 12.3875 21.0028 13.316C19.9489 14.3226 18.7949 15.1945 17.544 15.9403C16.2485 16.7129 14.8826 17.3315 13.471 17.8551C13.4263 17.8722 13.3816 17.884 13.3337 17.8797C13.3231 17.8882 13.3113 17.8957 13.2996 17.9032C13.2996 17.9032 13.2932 17.8957 13.29 17.8925C13.3039 17.8872 13.3177 17.8818 13.3305 17.8775V17.8733ZM10.1464 19.8703C11.9519 19.3297 13.7191 18.6864 15.4383 17.9085C16.834 17.277 18.1796 16.5547 19.456 15.7063C20.2544 15.1763 21.0145 14.5929 21.7288 13.9518C22.7359 13.0468 23.6312 12.0477 24.353 10.899C25.0205 9.83798 25.507 8.70001 25.738 7.46266C25.805 7.10256 25.8508 6.73713 25.8412 6.36849C25.8402 6.31399 25.8412 6.25843 25.854 6.2018C26.0903 6.58647 26.2319 7.00533 26.315 7.44342C26.5119 8.47775 26.4087 9.49926 26.1776 10.5144C25.9104 11.6855 25.4772 12.7978 24.9726 13.8845C24.32 15.2864 23.5365 16.6124 22.6837 17.9C22.5432 18.1126 22.3718 18.305 22.2601 18.5368C22.5635 18.5058 22.8466 18.3915 23.1319 18.2975C24.8587 17.7333 26.4512 16.9095 27.865 15.7587C29.5566 14.3824 30.8479 12.692 31.7517 10.7056C32.0434 10.0656 32.2882 9.40737 32.4543 8.72138C32.465 8.67543 32.4575 8.61559 32.5214 8.57285C32.6172 8.83464 32.6544 9.10284 32.6917 9.36783C32.7598 9.8476 32.7513 10.3338 32.7194 10.8146C32.6747 11.4846 32.5331 12.1406 32.3393 12.7839C31.8007 14.5705 30.9299 16.1903 29.8621 17.7098C29.8302 17.7547 29.761 17.8017 29.7897 17.854C29.8131 17.8978 29.8898 17.8978 29.9473 17.9011C31.3248 17.9705 32.647 17.7696 33.8734 17.0943C34.5824 16.7043 35.2009 16.2053 35.7406 15.6005C36.983 14.2082 37.7047 12.5574 38.1508 10.7665C38.1721 10.681 38.188 10.5934 38.2083 10.5005C38.2785 10.5218 38.2743 10.5827 38.2892 10.6266C38.5021 11.2463 38.6 11.8842 38.6107 12.5392C38.6341 13.9091 38.2902 15.1945 37.7377 16.434C37.6036 16.7353 37.4407 17.0195 37.2864 17.3176C39.7519 17.2364 42.4271 15.7159 43.0808 12.2678C43.282 12.6012 43.4087 12.9463 43.4779 13.3117C43.6492 14.2221 43.4779 15.0834 43.0904 15.9104C42.9892 16.1273 42.8679 16.3357 42.7561 16.5483C42.919 16.5526 43.0552 16.4692 43.1957 16.4051C43.8632 16.1006 44.4381 15.6625 44.9587 15.1485C45.1141 14.9947 45.2706 14.8408 45.4271 14.688L45.4292 14.6901C45.3909 14.9348 45.2567 15.1389 45.1364 15.3451C44.6712 16.1433 44.0069 16.7417 43.2426 17.2386C42.2621 17.8743 41.188 18.2932 40.0787 18.6341C39.2047 18.9023 38.3147 19.1074 37.4162 19.2773C36.7243 19.4077 36.0302 19.5231 35.3318 19.6118C34.6697 19.6951 34.0064 19.7731 33.3453 19.8586C32.8354 19.9248 32.3298 19.8992 31.8198 19.8458C31.4887 19.8116 31.1523 19.8297 30.817 19.85C30.4253 19.8735 30.0303 19.8789 29.6396 19.8532C29.2883 19.8308 28.9391 19.8351 28.5889 19.8351C26.0275 19.8319 23.4651 19.8212 20.9038 19.8426C20.0351 19.85 19.1654 19.8361 18.2978 19.8714C17.691 19.896 17.0831 19.8767 16.4773 19.9013C16.1495 19.9141 15.8194 19.9451 15.5192 20.1022C15.3947 20.1674 15.2691 20.162 15.1413 20.1054C14.8933 19.9954 14.6325 19.9526 14.3621 19.9569C13.7137 19.9686 13.0633 19.9601 12.416 19.9996C11.9774 20.0263 11.5378 20.0328 11.1013 20.036C10.6531 20.0392 10.2028 20.036 9.74718 19.9996C9.88025 19.9569 10.0133 19.912 10.1475 19.8714L10.1464 19.8703ZM31.8667 16.8133C31.8667 16.8133 31.8645 16.8165 31.8645 16.8176C31.8645 16.8165 31.8667 16.8144 31.8667 16.8133ZM40.0521 20.0787C39.4527 20.0531 38.8534 20.0381 38.254 20.0189C38.204 20.0178 38.1497 20.0306 38.1093 19.9729C38.7608 19.8394 39.3974 19.6866 40.0276 19.507C40.0893 19.4889 40.1085 19.4996 40.1181 19.5637C40.1341 19.6823 40.149 19.8041 40.1841 19.9184C40.2267 20.0541 40.1894 20.0851 40.0521 20.0798V20.0787ZM32.9291 20.8555C32.9291 20.8555 32.9216 20.8577 32.9131 20.8566C32.9216 20.8566 32.9291 20.8566 32.9291 20.8555ZM26.4853 28.3801C26.6982 28.2668 26.8441 28.1332 26.9612 27.9655C27.0506 27.8362 27.0964 27.6983 27.091 27.5381C27.0687 26.8766 27.0495 26.2152 27.0367 25.5549C27.0346 25.4438 27.0059 25.4138 26.8962 25.4149C26.5407 25.4181 26.184 25.4128 25.8285 25.4042C25.7252 25.401 25.6943 25.4309 25.6954 25.5356C25.706 26.2398 25.7103 26.9429 25.7178 27.647C25.7199 27.865 25.8349 28.0232 25.9956 28.1525C26.0978 28.2347 26.216 28.2935 26.332 28.3651C25.178 28.3662 24.0251 28.364 22.8679 28.4078C22.8892 28.3555 22.935 28.3555 22.9701 28.3405C23.529 28.1054 23.6536 27.9131 23.6631 27.304C23.6759 26.4214 23.694 25.5399 23.7132 24.6573C23.7323 23.7277 23.7568 22.7992 23.7739 21.8695C23.7813 21.4731 23.6898 21.3449 23.3236 21.1889C23.3001 21.1793 23.2725 21.1782 23.2586 21.1397H26.1957C26.1936 21.1494 26.1957 21.1654 26.1904 21.1675C25.8263 21.3193 25.656 21.5746 25.673 21.9881C25.6997 22.6549 25.689 23.3227 25.689 23.9895C25.689 24.0899 25.7124 24.1231 25.8178 24.122C26.1734 24.1177 26.53 24.122 26.8856 24.1273C26.9686 24.1284 27.0027 24.1156 26.9995 24.0162C26.975 23.2608 26.9601 22.5042 26.9377 21.7488C26.9303 21.4721 26.7844 21.2883 26.5226 21.1996C26.4736 21.1836 26.4172 21.19 26.3778 21.1494C26.5066 21.1226 29.0669 21.1344 29.3075 21.1654C29.251 21.1974 29.2074 21.221 29.1648 21.2445C28.9327 21.3738 28.8231 21.5629 28.838 21.8375C28.9263 23.4723 29.0083 25.1082 29.0924 26.7431C29.1084 27.0572 29.1275 27.3714 29.1435 27.6866C29.1531 27.8672 29.2532 27.9986 29.3735 28.1204C29.5225 28.27 29.7056 28.3704 29.8813 28.4933C28.7624 28.4367 27.6446 28.3993 26.4853 28.379V28.3801ZM29.828 28.6301C29.7929 28.6354 29.7567 28.6301 29.7216 28.6301C29.2106 28.6002 28.7007 28.5788 28.1886 28.5617C28.6996 28.5788 29.2106 28.6002 29.7205 28.6301C29.7567 28.6301 29.7929 28.6354 29.827 28.6301H29.828ZM26.5247 28.5158C26.0062 28.5061 25.4878 28.504 24.9704 28.5051C25.4889 28.504 26.0073 28.5051 26.5247 28.5158ZM26.893 25.5848C26.9069 25.6072 26.9133 25.6372 26.9143 25.6778C26.9143 25.6372 26.9069 25.6072 26.893 25.5848ZM21.55 22.4722C21.5223 22.9808 21.4989 23.4894 21.4723 23.998C21.4105 25.167 21.3467 26.336 21.2838 27.5049C21.2594 27.9494 21.451 28.2305 21.8726 28.3704C21.9194 28.3865 21.9737 28.3843 22.0237 28.4367C20.7952 28.4784 19.5837 28.5542 18.3712 28.6461C18.4915 28.5884 18.6161 28.5371 18.7321 28.4709C19.0174 28.3085 19.1973 28.0755 19.2229 27.7325C19.2771 26.9888 19.34 26.2462 19.3985 25.5036C19.4773 24.4992 19.5539 23.4937 19.6391 22.4893C19.6487 22.3707 19.6189 22.3461 19.5103 22.3536C19.1196 22.3835 18.763 22.4968 18.4532 22.7457C18.2946 22.874 18.203 23.046 18.1125 23.2266C18.1455 22.8782 18.1775 22.5299 18.2105 22.1826C18.2392 21.8898 18.2733 21.5981 18.2946 21.3043C18.302 21.2092 18.3297 21.1814 18.4244 21.1803C19.2676 21.1739 20.1096 21.159 20.9528 21.1515C21.6022 21.1462 22.2515 21.1483 22.9009 21.1419C23.0084 21.1408 23.0585 21.1526 23.0532 21.2829C23.0276 21.8909 23.0116 22.5 22.9925 23.109C22.9925 23.1379 22.9829 23.1667 22.9765 23.2095C22.7732 22.5758 22.3335 22.2852 21.6596 22.313C21.5276 22.3183 21.5542 22.4038 21.55 22.4733V22.4722ZM19.8116 36.8128C19.8116 35.8618 19.8116 34.9109 19.8116 33.9588C19.8116 34.9098 19.8116 35.8608 19.8116 36.8128ZM18.5532 27.9227C18.6267 27.8287 18.6682 27.708 18.6767 27.5552C18.6682 27.709 18.6267 27.8287 18.5532 27.9227ZM18.813 28.2593C18.7427 28.3117 18.6693 28.3587 18.5926 28.3982C18.6693 28.3587 18.7427 28.3106 18.813 28.2593ZM19.4102 22.4946C19.4677 22.4968 19.4901 22.5235 19.4954 22.5716C19.4901 22.5224 19.4677 22.4957 19.4102 22.4946ZM18.22 28.7369C18.219 28.6974 18.2158 28.6536 18.2243 28.6119C18.2147 28.6525 18.219 28.6974 18.22 28.7369ZM19.7338 20.6824C20.0862 20.6824 20.4386 20.6824 20.791 20.676C20.4386 20.6835 20.0862 20.6835 19.7338 20.6824ZM22.8243 23.2714C22.8296 23.3163 22.8615 23.3302 22.9116 23.3324C22.8615 23.3302 22.8307 23.3163 22.8243 23.2714ZM22.8658 28.535C22.8466 28.535 22.8243 28.5393 22.8019 28.5393C22.8232 28.5393 22.8466 28.535 22.8658 28.535ZM23.5695 25.2397C23.5695 25.0035 23.5695 24.7674 23.579 24.5312C23.5695 24.7674 23.5705 25.0035 23.5695 25.2397ZM29.3256 27.8554C29.3575 27.9142 29.4001 27.9665 29.449 28.0136C29.4001 27.9655 29.3575 27.9142 29.3256 27.8554ZM29.4171 21.0436C29.4309 21.0521 29.4416 21.066 29.448 21.0852C29.4416 21.0649 29.4309 21.0521 29.4171 21.0436ZM13.734 21.1515C13.5924 21.1558 13.4508 21.1558 13.3092 21.1568C13.4508 21.1568 13.5924 21.1568 13.734 21.1515ZM8.01621 21.5116C8.04389 21.4881 8.07156 21.4667 8.09924 21.4453C8.07156 21.4667 8.04389 21.4892 8.01621 21.5116ZM7.77029 21.0628C7.76603 21.377 7.70535 21.6836 7.64787 21.9914C7.70642 21.6836 7.76603 21.377 7.77029 21.0628ZM2.69765 31.6187C2.66039 31.6198 2.63697 31.6049 2.61994 31.5728C2.63591 31.6049 2.66039 31.6198 2.69765 31.6187ZM4.5287 34.8671C4.86297 34.6256 5.14721 34.3488 5.37077 34.0293C5.14615 34.3478 4.86297 34.6256 4.5287 34.8671ZM5.6582 32.5868C5.69546 32.3945 5.72527 32.2 5.76146 32.0066C5.72527 32.199 5.69546 32.3934 5.6582 32.5868ZM6.37997 28.0381C6.09574 29.549 5.80724 31.0599 5.52939 32.5719C5.36545 33.4641 4.89278 34.1372 4.12949 34.6053C3.5493 34.9622 2.92973 35.2229 2.24521 35.2955C2.20902 35.2998 2.17176 35.2987 2.13556 35.2987C1.66077 35.2966 1.41166 35.0551 1.38292 34.5807C1.36163 34.2185 1.45105 33.8712 1.52025 33.5218C1.72251 32.4864 1.93117 31.4531 2.13663 30.4188C2.14408 30.3803 2.13663 30.3333 2.20795 30.2927C2.16963 30.6346 2.17069 30.9605 2.17176 31.2854C2.17176 31.4766 2.19944 31.6626 2.27928 31.8378C2.38573 32.0718 2.58268 32.1712 2.83072 32.1145C3.40133 31.9842 3.76541 31.6348 3.89528 31.0631C3.99961 30.6026 4.08371 30.1378 4.16675 29.673C4.21465 29.4005 4.12949 29.1547 3.97832 28.9293C3.74731 28.5852 3.53333 28.2283 3.28742 27.896C2.92015 27.4013 2.8403 26.8638 2.9606 26.2708C3.26932 24.7439 3.55995 23.2127 3.8708 21.6847C3.9911 21.0906 4.25937 20.5766 4.78952 20.2379C5.23663 19.9526 5.73698 19.8906 6.2501 19.9056C6.49495 19.9131 6.7398 19.9334 6.97719 20.0103C7.34447 20.13 7.54141 20.3875 7.61167 20.7583C7.68938 21.1675 7.59357 21.5629 7.51905 21.9593C7.36895 22.7639 7.21885 23.5685 7.06662 24.3731C7.05916 24.4148 7.06768 24.4693 7.00807 24.5013C7.00807 24.3197 7.01126 24.1434 7.00807 23.9681C7.00168 23.6786 6.974 23.3911 6.86116 23.1197C6.72063 22.7799 6.49388 22.625 6.15216 22.6293C5.82321 22.6335 5.5922 22.797 5.46551 23.1304C5.33457 23.4755 5.30583 23.8463 5.22705 24.2043C5.18234 24.4094 5.15147 24.6167 5.11847 24.824C5.08972 25.0067 5.12911 25.1777 5.22492 25.3358C5.49958 25.7889 5.76359 26.2516 6.08615 26.6704C6.40872 27.0893 6.47366 27.5391 6.37997 28.036V28.0381ZM7.6319 22.0715C7.47754 22.8857 7.32105 23.6999 7.1752 24.5163C7.15923 24.606 7.11771 24.6359 7.06662 24.6466C7.11665 24.637 7.15817 24.6071 7.1752 24.5163C7.32211 23.6999 7.47754 22.8857 7.6319 22.0715ZM6.04996 26.4033C5.81576 26.0539 5.59539 25.6949 5.37503 25.3369C5.59539 25.6949 5.81576 26.0549 6.04996 26.4033ZM10.1751 30.1752C9.83554 30.3109 9.49063 30.4231 9.14145 30.5139C9.49169 30.4231 9.83661 30.3109 10.1751 30.1752ZM11.5229 26.9354C11.4558 27.3553 11.3855 27.7742 11.3238 28.1952C11.228 28.8459 10.9012 29.3321 10.305 29.6121C9.43846 30.0192 8.52294 30.2457 7.56483 30.2724C7.01126 30.2874 6.75576 30.0192 6.75789 29.4657C6.76002 29.0265 6.87925 28.6034 6.95803 28.176C7.28272 26.3947 7.62338 24.6167 7.94594 22.8355C8.08008 22.0929 8.51229 21.6537 9.22448 21.4699C9.64286 21.362 10.0697 21.3289 10.5009 21.3289C10.8458 21.3342 11.1897 21.3364 11.5261 21.4314C12.0764 21.5885 12.316 21.9401 12.2276 22.5032C11.9966 23.9809 11.7581 25.4576 11.5229 26.9343V26.9354ZM12.0126 28.2198C12.0275 27.9676 12.0743 27.7186 12.1148 27.4697C12.0733 27.7186 12.0264 27.9676 12.0126 28.2198ZM12.1446 28.1578C12.3767 26.617 12.6141 25.0762 12.8493 23.5354C12.9249 23.0428 13.0016 22.5502 13.0739 22.0565C13.1304 21.6729 13.0377 21.518 12.6524 21.3364C12.6524 21.316 12.6524 21.2957 12.6524 21.2765C13.0005 21.2765 13.3486 21.2787 13.6967 21.2765C13.9426 21.2744 14.1885 21.2584 14.4334 21.2594C14.8283 21.2616 15.0104 21.4485 14.9667 21.8407C14.8901 22.5235 14.7932 23.2052 14.7027 23.8869C14.5633 24.933 14.4195 25.978 14.2801 27.023C14.246 27.2795 14.3003 27.3799 14.476 27.4194C14.7336 27.4782 15.0285 27.3329 15.0838 27.0978C15.1339 26.8841 15.153 26.6629 15.1807 26.4439C15.3468 25.1371 15.5107 23.8303 15.6768 22.5235C15.7087 22.2681 15.7332 22.0117 15.7822 21.7595C15.845 21.4379 16.0526 21.2348 16.3752 21.2252C16.9702 21.2071 17.5653 21.2199 18.1647 21.2199C18.1626 21.2648 18.0976 21.2648 18.0582 21.2872C17.8017 21.4304 17.6633 21.6355 17.6335 21.939C17.511 23.1924 17.3726 24.4447 17.2406 25.6981C17.1768 26.3039 17.1108 26.9087 17.0522 27.5145C17 28.0499 16.7116 28.4164 16.2485 28.6547C15.7875 28.8919 15.285 28.9977 14.7794 29.0874C14.2013 29.19 13.6211 29.2712 13.0314 29.2317C12.9377 29.2253 12.8429 29.2124 12.7524 29.1889C12.2787 29.0693 12.0605 28.7092 12.1435 28.1567L12.1446 28.1578ZM14.921 27.1502C14.8826 27.2068 14.8262 27.2431 14.7453 27.2666C14.8273 27.2431 14.8826 27.2079 14.921 27.1502ZM17.8506 23.8655C17.84 23.9158 17.8336 23.982 17.824 24.0707C17.8336 23.982 17.84 23.9147 17.8506 23.8655ZM17.4791 27.3447C17.4642 27.4814 17.4461 27.6182 17.4237 27.7539C17.4472 27.6182 17.4642 27.4814 17.4791 27.3447ZM16.3571 37.5929C15.9962 37.595 15.6342 37.595 15.2733 37.5929C15.0711 37.5929 14.9721 37.5106 14.9444 37.3108C14.9305 37.2125 14.9316 37.112 14.9316 37.0116C14.9305 36.4175 14.9337 35.8244 14.9295 35.2304C14.9295 35.0925 14.9124 34.9536 14.7496 34.897C14.6761 34.8713 14.6442 34.882 14.6452 34.9675C14.6506 35.6449 14.6463 36.3234 14.6612 37.0009C14.6655 37.2285 14.7347 37.4433 14.9678 37.5779C14.9348 37.5854 14.921 37.5918 14.9071 37.5918C14.2524 37.5918 13.5988 37.5918 12.9473 37.5918C12.9324 37.5565 12.959 37.5533 12.9749 37.5458C13.257 37.4037 13.3827 37.1622 13.3912 36.8566C13.3997 36.5628 13.3976 36.2679 13.3965 35.974C13.3965 34.3392 13.3965 32.7054 13.3901 31.0706C13.3901 30.7949 13.3081 30.5502 13.0207 30.4273C13.0324 30.406 13.0356 30.3985 13.0377 30.3985C13.8117 30.406 14.5877 30.359 15.3606 30.4241C15.8727 30.4669 16.1505 30.7618 16.159 31.2768C16.1718 32.0697 16.1676 32.8636 16.1644 33.6575C16.1644 33.8723 16.0877 34.0582 15.8642 34.1779C16.2027 34.289 16.2208 34.5625 16.2229 34.8329C16.2293 35.5691 16.224 36.3042 16.225 37.0404C16.225 37.2531 16.2666 37.4486 16.4763 37.5619C16.4412 37.6132 16.3954 37.5907 16.3581 37.5907L16.3571 37.5929ZM16.3336 30.3002C16.3954 30.3547 16.4614 30.4145 16.5348 30.4808C16.4624 30.4135 16.3954 30.3536 16.3336 30.3002ZM16.7041 31.0471C16.7009 31.0321 16.6935 31.0108 16.6892 30.9905C16.6924 31.0108 16.6998 31.0321 16.7041 31.0471ZM17.1108 27.8821C17.0703 28.0018 17.0192 28.1097 16.9564 28.208C17.0181 28.1097 17.0703 28.0018 17.1108 27.8821ZM17.0352 37.5918C17.0277 37.5726 17.0331 37.5619 17.049 37.5533C17.3641 37.3984 17.4823 37.1313 17.4812 36.7947C17.4812 35.9751 17.4812 35.1545 17.4812 34.3349C17.4812 33.2782 17.4812 32.2225 17.4812 31.1657C17.4812 30.8526 17.428 30.5705 17.0671 30.4049H19.1356C18.7129 30.6079 18.7364 30.9723 18.7374 31.3281C18.7374 33.12 18.7395 34.9119 18.7353 36.7049C18.7353 37.08 18.863 37.3749 19.2218 37.5907H17.0331L17.0352 37.5918ZM19.6402 31.0118C19.6508 31.0407 19.6551 31.077 19.654 31.1187C19.654 31.077 19.6508 31.0407 19.6402 31.0118ZM22.4602 38.1624C22.4772 38.1624 22.4921 38.157 22.5028 38.1506C22.4911 38.157 22.4772 38.1613 22.4602 38.1624ZM23.0021 34.0176C22.9967 34.5422 22.6795 34.8435 22.1493 34.8756C21.9662 34.8863 21.7831 34.8842 21.599 34.8788C21.5095 34.8767 21.4819 34.9055 21.4829 34.9942C21.4861 35.615 21.4787 36.2348 21.4872 36.8556C21.4914 37.1783 21.632 37.4294 21.9779 37.5832H19.7775C19.7775 37.5832 19.7732 37.5651 19.7754 37.564C20.1469 37.3952 20.2342 37.0725 20.2353 36.706C20.2353 34.8767 20.2353 33.0463 20.2353 31.217C20.2353 31.1229 20.2267 31.0279 20.214 30.9349C20.182 30.702 20.0798 30.5171 19.8509 30.4102C20.6398 30.4145 21.4233 30.359 22.2058 30.4252C22.6987 30.4679 22.9701 30.7479 22.9903 31.2416C23.0297 32.1658 23.0106 33.0912 23.0021 34.0165V34.0176ZM26.8898 32.418C26.8749 32.3539 26.8611 32.2898 26.8462 32.2257C26.7653 31.8592 26.4438 31.5813 26.084 31.5578C25.9807 31.5514 25.9381 31.5707 25.9381 31.6893C25.9424 33.3925 25.9381 35.0957 25.9424 36.7989C25.9424 37.1387 26.101 37.3984 26.4182 37.5843H24.189C24.5254 37.4304 24.6681 37.1922 24.6809 36.8705C24.683 36.8235 24.6862 36.7765 24.6862 36.7284C24.6862 35.0562 24.6851 33.385 24.6894 31.7128C24.6894 31.576 24.6521 31.5439 24.5222 31.56C24.1976 31.5984 23.8984 31.8378 23.7983 32.1562C23.7802 32.2139 23.7675 32.2727 23.7313 32.3293C23.7313 31.8367 23.7313 31.3452 23.7313 30.8526C23.7313 30.7062 23.6844 30.5139 23.7579 30.4273C23.8356 30.3365 24.0336 30.4006 24.1784 30.4006C25.0375 30.3985 25.8966 30.4006 26.7557 30.3974C26.8685 30.3974 26.9079 30.4167 26.9069 30.5417C26.8994 31.1668 26.9037 31.7918 26.8888 32.4201L26.8898 32.418ZM27.4179 37.5875C27.8373 37.4048 27.9278 37.0864 27.9278 36.7113C27.9246 34.8777 27.9267 33.0442 27.9267 31.2106C27.9267 31.1892 27.9267 31.1689 27.9267 31.1475C27.9203 30.843 27.8671 30.562 27.5052 30.4049H29.5789C29.151 30.6143 29.1818 30.9862 29.1818 31.3463C29.1818 33.1382 29.184 34.929 29.1808 36.7209C29.1808 37.0917 29.3149 37.3791 29.6598 37.5875H27.42H27.4179ZM29.5853 32.5452C29.5874 33.9471 29.5853 35.35 29.5853 36.7519C29.5853 36.8118 29.5938 36.8684 29.6098 36.9218C29.5938 36.8673 29.5853 36.8118 29.5853 36.7519C29.5853 35.35 29.5885 33.9471 29.5853 32.5452ZM29.7673 37.1751C29.811 37.2082 29.86 37.2274 29.9132 37.2253C29.86 37.2263 29.8099 37.2082 29.7673 37.1751ZM30.0196 37.0244C30.0537 37.0041 30.0793 36.972 30.0942 36.924C30.0803 36.972 30.0537 37.0041 30.0196 37.0244ZM28.4739 28.9282C29.0413 28.9549 29.6066 28.9923 30.174 29.0051C29.6066 28.9923 29.0403 28.9549 28.4739 28.9282ZM29.9771 28.6333C29.9962 28.6258 30.0111 28.6109 30.0196 28.5799C30.0111 28.6109 29.9962 28.6269 29.9771 28.6333ZM33.3006 38.1549C33.3038 38.1613 33.3166 38.1624 33.3304 38.1624C33.3155 38.1624 33.3028 38.1602 33.3006 38.1549ZM33.4422 36.7145C33.4422 36.8353 33.422 36.9549 33.3847 37.0703C33.2847 37.3877 33.0451 37.5875 32.713 37.5907C31.8912 37.5982 31.0682 37.5929 30.2464 37.5929C30.239 37.5929 30.2315 37.5843 30.207 37.5693C30.6158 37.3845 30.6807 37.0351 30.6807 36.6429C30.6776 34.8457 30.6797 33.0484 30.6786 31.2512C30.6786 31.1828 30.6775 31.1144 30.6712 31.0471C30.6499 30.7778 30.5711 30.5417 30.3039 30.4081C31.0565 30.4081 31.8102 30.3857 32.5618 30.4156C33.1771 30.4402 33.4337 30.7372 33.4401 31.3719C33.4507 32.559 33.4486 33.7472 33.4497 34.9344C33.4497 35.5285 33.4465 36.1215 33.4422 36.7156V36.7145ZM33.142 28.7177C32.3372 28.7572 31.542 28.6963 30.7702 28.4452C30.6052 28.3918 30.4508 28.3149 30.3124 28.2091C30.1101 28.0531 30.0016 27.8522 29.9888 27.5904C29.9654 27.1032 29.9292 26.6159 29.8983 26.1287C29.8951 26.0774 29.8983 26.025 29.8983 25.9727C29.9089 25.9716 29.9196 25.9695 29.9302 25.9684C29.9739 26.0785 30.0175 26.1885 30.0633 26.2986C30.2368 26.7228 30.5636 26.9461 31.0033 27.0145C31.2258 27.0487 31.4515 27.0626 31.6729 27.0017C31.888 26.9429 31.9604 26.8446 31.9476 26.6277C31.9369 26.4439 31.922 26.2612 31.9029 26.0785C31.8816 25.8701 31.7389 25.7419 31.5814 25.635C31.278 25.4299 30.9682 25.2333 30.6626 25.0313C30.4795 24.9106 30.2954 24.7898 30.1155 24.6637C29.9004 24.5131 29.7865 24.3058 29.7695 24.0408C29.7269 23.3601 29.6801 22.6795 29.6364 21.9978C29.6183 21.7071 29.7588 21.5062 30.009 21.378C30.3433 21.206 30.7063 21.1632 31.0746 21.1515C31.5878 21.1344 32.1009 21.128 32.6044 21.2498C33.1612 21.3844 33.4028 21.6815 33.455 22.251C33.4933 22.6688 33.5476 23.0855 33.5934 23.5033C33.5976 23.5418 33.6221 23.5824 33.5817 23.6273C33.5231 23.5824 33.5167 23.5108 33.4912 23.452C33.2144 22.8024 32.6789 22.4797 31.9806 22.5427C31.6931 22.5684 31.592 22.6912 31.6208 22.9733C31.6346 23.1144 31.6559 23.2554 31.6569 23.3965C31.6569 23.6144 31.7591 23.7598 31.9337 23.8752C32.3574 24.1551 32.7652 24.4618 33.2006 24.7214C33.6338 24.98 33.8297 25.338 33.8648 25.837C33.9159 26.5486 34.0128 27.257 34.0916 27.9665C34.1225 28.2454 34.016 28.4431 33.7648 28.5681C33.5689 28.6653 33.3571 28.707 33.1431 28.7166L33.142 28.7177ZM36.9734 37.5961C35.9471 37.5929 34.9198 37.5939 33.8936 37.5929C33.8861 37.5929 33.8787 37.5843 33.8553 37.5693C34.2641 37.3845 34.3279 37.0329 34.3279 36.6419C34.3247 34.8596 34.3269 33.0783 34.3269 31.2961C34.3269 31.2223 34.3247 31.1486 34.3205 31.0759C34.3045 30.797 34.2353 30.547 33.9404 30.4252C33.9788 30.3846 34.0171 30.3996 34.0501 30.3996C35.0039 30.3996 35.9567 30.4017 36.9106 30.3953C37.0394 30.3953 37.0649 30.4338 37.0628 30.5534C37.0564 31.0407 37.0596 31.529 37.0596 32.0152C37.0426 32.0152 37.0266 32.0184 37.0255 32.0152C36.8893 31.6754 36.6263 31.5343 36.274 31.5333C36.0749 31.5333 35.8758 31.5322 35.6767 31.5258C35.5958 31.5236 35.566 31.5493 35.5681 31.6326C35.5777 32.09 35.5532 32.5473 35.5831 33.0035C35.5916 33.1403 35.6246 33.2696 35.7683 33.323C35.9163 33.3775 36.0451 33.3273 36.1569 33.2247C36.2622 33.1275 36.3389 33.0121 36.3985 32.8764V35.038C36.3261 34.8649 36.2473 34.7442 36.1356 34.6501C36.0398 34.5689 35.9344 34.5134 35.8045 34.5593C35.6714 34.6074 35.6107 34.7164 35.5894 34.8457C35.5735 34.944 35.5703 35.0444 35.5692 35.1438C35.5671 35.5434 35.5713 35.9431 35.566 36.3427C35.565 36.4453 35.5916 36.4827 35.698 36.4773C35.9226 36.4666 36.1473 36.4688 36.373 36.4624C36.6785 36.4538 36.8818 36.2957 37.0042 36.0221C37.0138 35.9997 37.0277 35.9794 37.0394 35.9591C37.0479 35.9612 37.0575 35.9644 37.066 35.9666C37.066 36.4762 37.0649 36.9859 37.0671 37.4945C37.0671 37.5661 37.0532 37.5961 36.9734 37.595V37.5961ZM36.9904 35.3361C36.9787 35.3169 36.9723 35.2891 36.9723 35.2517C36.9723 35.2891 36.9776 35.3158 36.9904 35.3361ZM37.5227 35.3746C37.5589 35.3757 37.5855 35.3842 37.6025 35.4024C37.5844 35.3853 37.5589 35.3767 37.5227 35.3746ZM34.3226 28.8662C34.4003 28.8427 34.4802 28.8224 34.5568 28.7957C34.89 28.6814 35.0348 28.4762 34.9954 28.1268C34.9007 27.2816 34.7953 26.4375 34.6931 25.5923C34.5834 24.6851 34.4727 23.7779 34.362 22.8718C34.3269 22.5855 34.2971 22.298 34.2577 22.0117C34.2044 21.6163 33.999 21.3449 33.6062 21.2071C34.5983 21.2284 35.5894 21.2509 36.5827 21.2722C36.5795 21.3246 36.5454 21.3171 36.5252 21.3257C36.2388 21.4453 36.1026 21.6601 36.1441 21.9711C36.2633 22.8665 36.3889 23.7608 36.5145 24.6541C36.6764 25.8081 36.8573 26.96 36.9968 28.1172C37.0639 28.6728 37.3524 29.0286 37.8112 29.2883C37.8421 29.3054 37.874 29.3182 37.9017 29.3524C36.7104 29.1804 35.5202 29.0148 34.3215 28.8652L34.3226 28.8662ZM42.3334 30.1859C41.7213 30.1036 41.1241 29.9433 40.5184 29.8279C39.7476 29.6815 38.9748 29.5469 38.2008 29.4208C38.1838 29.4176 38.1657 29.4133 38.138 29.4069C38.2072 29.3428 38.286 29.3556 38.353 29.3332C38.6788 29.2274 38.8353 28.9987 38.7842 28.6632C38.6075 27.5071 38.4254 26.3509 38.2455 25.1948C38.0933 24.2203 37.9347 23.2469 37.792 22.2713C37.725 21.8172 37.5568 21.456 37.0777 21.3096C37.2629 21.2658 37.4439 21.299 37.6238 21.3032C38.4861 21.3235 39.3495 21.3492 40.2118 21.3759C40.4162 21.3823 40.6184 21.4069 40.8186 21.4453C41.4978 21.5757 41.8768 22.0052 42.0013 22.6677C42.2696 24.0953 42.5272 25.525 42.7891 26.9546C42.9296 27.7229 43.0712 28.4922 43.2106 29.2605C43.3352 29.9497 43.0275 30.2777 42.3334 30.1848V30.1859ZM44.0548 33.8926C44.4125 33.7643 44.5637 33.5485 44.5754 33.1585C44.5882 32.7492 44.4807 32.3571 44.4072 31.9607C44.0591 30.0726 43.7035 28.1856 43.3512 26.2975C43.0446 24.652 42.739 23.0065 42.4303 21.362C42.4048 21.2231 42.3654 21.0863 42.3217 20.9517C42.1951 20.5585 42.0194 20.2005 41.6213 20.0178C41.6276 19.9686 41.6585 19.9772 41.6819 19.9772C43.1489 19.9793 44.6148 19.9825 46.0818 19.9804C46.1818 19.9804 46.2106 20.0146 46.2297 20.1086C46.449 21.2413 46.6737 22.3728 46.8962 23.5055C46.9025 23.5322 46.9249 23.561 46.8887 23.5845C46.8791 23.5674 46.8695 23.5503 46.86 23.5332C46.7184 23.234 46.563 22.9445 46.3096 22.719C46.0605 22.4978 45.7699 22.3835 45.4409 22.3589C45.1599 22.3376 44.8767 22.3279 44.5956 22.3012C44.4732 22.2895 44.4722 22.3418 44.4892 22.4337C44.6404 23.2063 44.7894 23.9788 44.9406 24.7503C44.9917 25.0131 45.0268 25.2792 45.1152 25.5335C45.1833 25.729 45.2695 25.9139 45.4398 26.0421C45.6708 26.2152 45.8976 26.1725 46.0573 25.9321C46.1286 25.8252 46.1733 25.7077 46.1999 25.5848C46.2255 25.4673 46.2351 25.3476 46.2787 25.2236C46.5779 26.7473 46.877 28.2711 47.1804 29.814C47.0963 29.7755 47.091 29.7114 47.0676 29.6644C46.9111 29.3524 46.7216 29.0639 46.4639 28.8267C46.3362 28.7092 46.1936 28.582 46.0051 28.6675C45.8199 28.7519 45.805 28.9432 45.8114 29.1163C45.8263 29.5116 45.9381 29.892 46.0094 30.2788C46.1382 30.9755 46.2798 31.669 46.4065 32.3656C46.431 32.5035 46.4863 32.5687 46.6215 32.605C46.9345 32.6894 47.2411 32.7952 47.5509 32.8881C48.2141 33.0869 48.4643 32.9277 48.5697 32.246C48.5739 32.2182 48.5835 32.1904 48.6239 32.1637C48.8603 33.3583 49.0977 34.5518 49.3415 35.7838C47.57 35.0914 45.8039 34.4792 44.0208 33.9481C44.0091 33.8968 44.0357 33.8979 44.0527 33.8926H44.0548ZM46.019 23.1999C45.9721 23.1432 45.9232 23.0962 45.871 23.0556C45.9221 23.0962 45.9721 23.1443 46.019 23.1999ZM45.6049 25.5869C45.5761 25.5506 45.5527 25.5132 45.5335 25.4747C45.5527 25.5132 45.575 25.5506 45.6049 25.5869ZM46.6364 30.064C46.5757 29.9134 46.5012 29.7681 46.4033 29.6345C46.5012 29.7681 46.5757 29.9123 46.6364 30.064ZM48.2152 35.9089C48.7283 36.1044 49.2382 36.3074 49.7513 36.5051C49.2382 36.3085 48.7283 36.1044 48.2152 35.9089Z" fill="#4D7ED4"/>
<path d="M22.2604 18.5369C22.2604 18.5369 22.2604 18.5369 22.2604 18.5356C22.2604 18.5356 22.2604 18.5356 22.2578 18.5356L22.2604 18.5369Z" fill="#4D7ED4"/>
<path d="M35.5562 8.1905C35.5562 8.1905 35.5587 8.1905 35.56 8.1905C35.56 8.1905 35.56 8.1905 35.5587 8.18921L35.5562 8.19178V8.1905Z" fill="#4D7ED4"/>
<path d="M40.8665 26.7514C40.6684 25.6092 40.4704 24.4669 40.2735 23.3247C40.2458 23.1633 40.167 23.0415 40.0105 22.9796C39.9435 22.9528 39.8615 22.8973 39.8051 22.9411C39.7561 22.9796 39.803 23.0682 39.8147 23.1324C39.9882 24.1667 40.1638 25.201 40.3406 26.2353C40.4715 27.0057 40.6035 27.7761 40.7376 28.5466C40.7451 28.5872 40.7281 28.6384 40.7887 28.6662C40.9921 28.7603 41.1539 28.663 41.1496 28.4183C41.1464 28.3948 41.1411 28.3489 41.1326 28.3019C41.0442 27.7847 40.9548 27.2675 40.8665 26.7514Z" fill="#4D7ED4"/>
</g>
<defs>
<clipPath id="clip0_2040_406">
<rect width="51" height="39" fill="white"/>
</clipPath>
</defs>
</svg>
