<svg width="22" height="24" viewBox="0 0 22 24" fill="none" xmlns="http://www.w3.org/2000/svg">
<path d="M10.8568 0C11.3439 1.6698 11.9088 3.3135 12.4029 4.98092C12.4623 5.1849 12.6636 5.7589 12.6659 5.9273C12.6659 5.94865 12.675 5.97948 12.6499 5.97474L11.5795 5.20862C11.7259 8.48892 12.0689 11.755 12.5813 14.9902L14.5207 17.2957C14.5779 17.1652 14.6854 16.9683 14.6442 16.826L13.4664 14.8882L12.7276 11.2284L14.7769 13.6999L18.5139 6.39456L17.2492 5.89646L21.6518 4.52078L14.475 19.7671L11.7305 15.5144L12.0529 20.1229C11.5749 21.2662 11.3508 22.7035 10.8568 23.8183C10.8431 23.8491 10.8385 23.8918 10.795 23.8942L9.58746 20.0921L9.92137 15.4812L7.17687 19.7505L0 4.51841L4.37291 5.84665L4.32945 5.91307L3.13788 6.39456L6.89099 13.6975L8.92649 11.2284L8.16489 14.9262L6.98018 16.8569L7.13342 17.2957L8.91277 15.1705L9.066 14.9214C9.61033 11.7123 9.9168 8.4652 10.0746 5.20862L8.95851 5.95813L10.8568 0Z" fill="#FF6F57"/>
</svg>
