<svg width="42" height="43" viewBox="0 0 42 43" fill="none" xmlns="http://www.w3.org/2000/svg">
<g clip-path="url(#clip0_2040_334)">
<path d="M25.3443 33.8726L3.73942 43L1.73096 42.504L26.254 31.8225L25.3443 33.8726Z" fill="#ED5137"/>
<path d="M39.124 9.25652L36.6903 6.22623L34.5529 7.50421L39.124 13.2995V24.0579L32.0854 27.1237L32.0835 12.0176L34.5529 15.0972L34.5172 22.6665L36.7223 21.6351L36.6959 13.8823L32.0854 8.18857V5.39593L39.124 0.86084V9.25652Z" fill="#ED5137"/>
<path d="M30.9426 6.12866V27.6218L29.3941 28.2963L28.4882 27.1238V15.7925L26.2126 12.8864L26.2286 29.6748L23.7808 30.7408V10.7288L26.1872 9.20432L28.4891 12.1892L28.4741 7.71925L30.9426 6.12866Z" fill="#ED5137"/>
<path d="M1.73095 27.1207L0 28.1601V26.0537L5.4873 22.4919L5.52211 24.8556L3.99059 25.7707L4.00941 39.3523L1.76011 40.3325L1.73095 27.1207Z" fill="#ED5137"/>
<path d="M11.4574 36.1081L11.4631 21.3205L9.6625 22.3805L9.63428 19.8512L15.2175 16.2559V19.0603L13.7284 19.9518L13.7368 35.0924L11.4574 36.1081Z" fill="#ED5137"/>
<path d="M8.83744 20.365V37.25L6.49313 38.2706L6.49219 21.8747L8.83744 20.365Z" fill="#ED5137"/>
<path d="M18.3942 20.0859L22.7367 25.6041V11.4131L16.1431 15.6592V34.0668L18.3942 33.0866V20.0859ZM20.6426 15.8121V20.007L18.3952 17.1571L20.6426 15.8121Z" fill="#ED5137"/>
<path d="M20.6416 25.5894V32.1085L22.7376 31.1954V28.241L20.6416 25.5894Z" fill="#ED5137"/>
<path d="M27.3267 31.4181L34.5995 37.7104L27.3267 28.4766V31.4181Z" fill="#ED5137"/>
<path d="M42.0001 1.94854L40.4601 0L40.2729 25.7166L30.4253 30.0051L32.7621 30.6017L42.0001 26.7382V1.94854Z" fill="#ED5137"/>
<path d="M2.49579 20.0189L2.55882 22.1617L3.29635 21.6874L3.23332 19.5446L3.74038 19.2182L3.80341 21.361L4.54188 20.8867L4.47886 18.7439L4.98591 18.4175L5.06775 21.2151L2.07058 23.1429L1.98779 20.3453L2.49579 20.0189Z" fill="#ED5137"/>
<path d="M19.6105 8.51197L19.65 9.8373L19.4148 10.3175L19.6697 10.5088L19.7092 11.8342L17.1345 13.4898L17.0366 10.1667L19.6114 8.51099L19.6105 8.51197ZM19.031 9.67755L17.6613 10.5581L17.6754 11.0532L19.0451 10.1726L19.031 9.67755ZM19.0686 10.9496L17.6989 11.8302L17.713 12.3252L19.0827 11.4446L19.0686 10.9496Z" fill="#ED5137"/>
<path d="M7.47604 16.8169L7.52684 18.5436L5.86645 19.6105L5.87868 20.0276L7.53907 18.9607L7.55883 19.6155L5.39138 21.0088L5.30859 18.2112L7.47604 16.8179V16.8169ZM6.9878 17.7971L5.83446 18.5386L5.84669 18.9558L7.00003 18.2142L6.9878 17.7971Z" fill="#ED5137"/>
<path d="M22.5684 6.61084L22.6286 8.66095L20.6568 9.92908L20.6709 10.4241L22.6427 9.15597L22.6653 9.93401L20.0905 11.5897L19.9927 8.26651L22.5675 6.61084H22.5684ZM21.9889 7.77543L20.6192 8.65602L20.6333 9.15104L22.003 8.27045L21.9889 7.77543Z" fill="#ED5137"/>
<path d="M25.527 4.70874L25.6248 8.03191L23.05 9.68757L22.9898 7.63747L24.9616 6.36934L24.9475 5.87431L22.9757 7.14244L22.9531 6.36441L25.5279 4.70874H25.527ZM24.9842 7.14639L23.6145 8.02698L23.6286 8.522L24.9983 7.64141L24.9842 7.14639Z" fill="#ED5137"/>
<path d="M9.96628 15.2156L9.98603 15.8703L8.32564 16.9373L8.33787 17.3544L9.99826 16.2865L10.0491 18.0131L7.88161 19.4065L7.86186 18.7517L9.52225 17.6848L9.51002 17.2677L7.84963 18.3356L7.79883 16.6089L9.96628 15.2156Z" fill="#ED5137"/>
<path d="M28.4845 2.8064L28.507 3.58443L26.5353 4.85256L26.587 6.61966L28.5597 5.35251L28.5823 6.12956L26.0075 7.78523L25.9097 4.46206L28.4845 2.8064Z" fill="#ED5137"/>
<path d="M29.4702 2.1734L29.5079 3.44547L30.8776 2.56488L30.8399 1.29281L31.442 0.905273L31.5398 4.22844L30.9378 4.61598L30.9001 3.34292L29.5304 4.22351L29.5681 5.49558L28.966 5.88312L28.8682 2.55995L29.4702 2.1734Z" fill="#ED5137"/>
<path d="M12.3178 13.7039L12.3376 14.3576L11.5069 14.8921L11.57 17.0349L11.0629 17.3603L10.9999 15.2175L10.1701 15.752L10.1504 15.0972L12.3178 13.7039Z" fill="#ED5137"/>
<path d="M10.6923 9.6777L10.1504 10.0416L16.0065 14.1309L11.7863 8.64624L11.0563 9.15113L10.6923 9.6777Z" fill="#ED5137"/>
<path d="M12.1249 9.15486L14.917 9.44478L12.6235 1.45044L11.2942 3.81906L12.0082 3.51632L13.171 8.1234L11.6037 7.93505L10.6799 7.78516C9.98941 7.15406 9.31679 6.50224 8.66392 5.82775L9.39769 5.71731C9.40992 5.70942 9.39393 5.69956 9.3864 5.69167C9.32243 5.62165 9.02328 5.45993 8.92262 5.3988C8.0929 4.8949 7.24341 4.42847 6.41651 3.91964L7.84454 7.21125L8.03175 6.44111C8.61594 7.17378 9.18226 7.92125 9.72601 8.68646L9.8229 10.1134L9.86806 11.3243L5.57079 9.75737L5.89064 9.07006L5.88405 9.0247L3.55762 10.2366L11.1484 13.3211L10.9424 10.0197C10.9424 10.0197 13.8521 12.127 13.8464 12.1082C13.6366 11.4367 12.1221 9.15388 12.1221 9.15388L12.1249 9.15486Z" fill="#ED5137"/>
</g>
<defs>
<clipPath id="clip0_2040_334">
<rect width="42" height="43" fill="white"/>
</clipPath>
</defs>
</svg>
