<svg width="160" height="47" viewBox="0 0 160 47" fill="none" xmlns="http://www.w3.org/2000/svg">
<g clip-path="url(#clip0_2133_2198)">
<path d="M71.2948 36.3226C69.3217 36.3434 68.3377 36.3564 66.3645 36.3876C65.8041 33.8302 65.2436 31.2701 64.6832 28.7126C64.0582 28.723 63.7431 28.7308 63.1181 28.7412C63.1181 31.3091 63.1181 33.877 63.1181 36.4449C61.2844 36.4813 60.3701 36.5021 58.5364 36.549C58.5364 29.4385 58.5364 22.3254 58.5364 15.2149C58.3117 13.8334 58.2006 13.1439 57.9785 11.7624C58.0043 11.713 58.0173 11.6896 58.0431 11.6401C61.194 11.5569 64.3448 11.4944 67.4957 11.4476C69.0402 11.4242 70.6078 12.9306 70.706 14.4786C70.706 18.2303 70.7112 21.9819 70.7112 25.7336C70.0242 26.4647 69.6807 26.8315 68.9937 27.5626C69.7607 30.4818 70.5252 33.4009 71.2923 36.32L71.2948 36.3226ZM65.4657 15.1004C64.7658 15.0119 63.8438 15.2045 63.1181 15.1446C63.1181 18.4722 63.1181 21.7972 63.1181 25.1248C64.0582 25.1066 64.5282 25.0962 65.4657 25.0806C65.489 25.0806 65.7369 24.9583 65.7834 24.9271C66.1011 24.7137 66.1734 24.4067 66.194 24.0503C66.3619 21.3549 66.1062 18.6049 66.1915 15.8783C66.1915 15.4568 65.8712 15.1524 65.4683 15.103L65.4657 15.1004Z" fill="#272727"/>
<path d="M22.8986 34.595C22.8986 27.4949 22.8986 20.3948 22.8986 13.2922C24.7065 13.1699 25.6079 13.11 27.4157 12.9982C27.4157 21.3054 27.4157 29.6127 27.4157 37.9174C24.3372 38.1099 21.2586 38.3181 18.1801 38.5444C16.8706 38.6407 15.2487 36.973 15.2642 35.6331C15.2642 29.5841 15.2616 23.5351 15.259 17.4887C15.0369 16.0942 14.9259 15.3996 14.7012 14.005C14.727 13.9556 14.7399 13.9296 14.7632 13.8802C16.7544 13.7266 17.7487 13.6512 19.74 13.5081C19.7736 13.5393 19.7916 13.5575 19.8278 13.5888V34.3062C19.8278 34.4363 20.192 34.7771 20.3211 34.7667C21.3516 34.6939 21.8655 34.6575 22.8986 34.5872V34.595Z" fill="#272727"/>
<path d="M142.414 34.9619C142.414 27.8618 142.414 20.7591 142.414 13.6591C144.22 13.7917 145.123 13.862 146.929 14.0051V38.9269C143.853 38.6824 140.774 38.4534 137.696 38.2427C136.386 38.1516 134.762 36.2524 134.78 34.9177C134.78 28.8687 134.777 22.8197 134.775 16.7707C134.553 15.345 134.441 14.6321 134.217 13.209C134.243 13.1621 134.256 13.1413 134.279 13.0945C136.27 13.222 137.267 13.2896 139.258 13.4301C139.292 13.4665 139.31 13.4873 139.346 13.5238V34.2412C139.346 34.3713 139.71 34.7642 139.839 34.772C140.87 34.8448 141.384 34.8839 142.414 34.9593V34.9619Z" fill="#272727"/>
<path d="M12.2474 22.1354C10.4421 22.2811 9.5407 22.3566 7.7354 22.5101V18.7454C7.7354 18.5112 7.48746 18.2641 7.27051 18.2016C6.89086 18.095 5.33866 18.2146 4.99517 18.4384C4.78339 18.5737 4.68783 18.774 4.66717 19.0108C4.52512 20.5874 4.76789 22.3644 4.68266 23.9592C4.7963 24.3391 5.11139 24.477 5.43939 24.5862C7.87228 25.411 11.9323 25.6686 12.2499 28.9285C12.4617 31.1009 12.1234 33.622 12.2499 35.8777C11.7618 40.2564 6.17287 39.3588 3.13822 39.7803C1.74873 39.8453 0.100977 38.4144 0.100977 37.0016V31.486C1.92694 31.3117 2.84121 31.2284 4.66975 31.0645V35.5291C4.66975 35.7502 5.05457 35.9662 5.27668 35.9714C5.63309 35.9818 6.7798 35.8881 7.12588 35.8048C7.5262 35.7086 7.70699 35.3496 7.74056 34.9697C7.88519 33.302 7.65017 31.4262 7.71215 29.7428C7.65275 29.2902 7.2731 29.108 6.90894 28.9884C4.41923 28.1584 0.387655 27.9242 0.100977 24.5732C-0.0436533 22.8769 -0.0178264 20.1946 0.100977 18.441C0.230111 16.5443 1.64542 15.1134 3.4843 14.8298C5.03133 14.5905 7.38157 14.3745 8.92343 14.3563C10.4136 14.3381 12.2499 15.4438 12.2499 17.0855V22.1328L12.2474 22.1354Z" fill="#272727"/>
<path d="M131.761 12.9358C131.526 14.3667 131.41 15.0796 131.175 16.5105C128.688 16.3622 127.443 16.2946 124.956 16.1645C124.625 16.1801 124.351 16.2816 124.199 16.5886C124.199 22.1744 124.199 27.7577 124.199 33.3436C124.214 33.5023 124.54 33.8275 124.664 33.8327C125.694 33.8874 126.211 33.916 127.241 33.9732V26.5609C126.942 26.5427 126.792 26.5323 126.495 26.5141C126.26 25.0571 126.144 24.3287 125.909 22.8691C128.249 22.9966 129.419 23.0642 131.758 23.2073V37.855C128.68 37.6651 125.599 37.4933 122.518 37.3372C121.206 37.2722 119.581 35.4016 119.599 34.0643C119.597 27.8982 119.594 21.7322 119.589 15.5687C119.617 13.9556 121.185 12.3478 122.807 12.431C125.792 12.5871 128.773 12.7562 131.758 12.9331L131.761 12.9358Z" fill="#272727"/>
<path d="M113.858 12.0278C115.133 20.3897 116.409 28.749 117.683 37.1109C115.828 37.0276 114.901 36.9886 113.047 36.9158C112.817 34.8864 112.701 33.8718 112.471 31.8424C111.148 31.78 110.485 31.7514 109.162 31.6967C108.953 33.7209 108.85 34.7329 108.641 36.7571C106.809 36.6946 105.893 36.666 104.062 36.614C105.126 29.5737 106.187 22.5335 107.251 15.4958C107.042 14.0077 106.939 13.2636 106.729 11.7754C109.581 11.8665 111.009 11.9159 113.86 12.0304L113.858 12.0278ZM112.06 28.1818C111.673 24.4119 111.288 20.6446 110.9 16.8748C110.456 20.6134 110.012 24.3521 109.568 28.0908C110.565 28.1246 111.063 28.1428 112.06 28.1818Z" fill="#272727"/>
<path d="M35.0035 29.5997C35.0035 32.2249 35.0035 34.8526 35.0035 37.4777C33.1724 37.5766 32.2581 37.626 30.427 37.7353C30.427 30.6248 30.427 23.5117 30.427 16.4012C30.2049 15.0275 30.0913 14.3407 29.8691 12.967C29.895 12.9175 29.9079 12.8941 29.9337 12.8447C33.0794 12.6574 36.2277 12.4883 39.3786 12.3374C40.9644 12.2619 42.545 13.7761 42.5966 15.3658C42.4649 18.9119 42.811 22.4789 42.5966 25.9938C42.5088 27.4377 41.1426 29.2953 39.6085 29.3682C37.7644 29.4567 36.845 29.5035 35.0009 29.6024L35.0035 29.5997ZM37.3486 16.0552C36.6487 15.9902 35.7267 16.2139 35.0009 16.1775V25.9834C36.0082 25.9287 36.5118 25.9027 37.5216 25.8533C37.736 25.8429 38.1105 25.3381 38.0718 25.0962C37.9736 22.3488 38.2655 19.5727 38.0718 16.8643C38.0382 16.4038 37.8341 16.102 37.346 16.0578L37.3486 16.0552Z" fill="#272727"/>
<path d="M55.3473 15.3345C53.2838 15.3944 52.2507 15.4282 50.1871 15.501C50.1871 18.0455 50.1871 19.3178 50.1871 21.8622C52.0647 21.7946 53.0048 21.766 54.8824 21.7087C54.6732 23.1631 54.5699 23.889 54.3607 25.3433C52.6897 25.3928 51.8555 25.4214 50.1871 25.4812C50.1871 28.0491 50.1871 30.617 50.1871 33.1849C52.3901 33.1068 53.4904 33.0704 55.696 33.008C55.4765 34.4623 55.3654 35.1882 55.1459 36.6426C51.9666 36.7362 48.7873 36.8481 45.6106 36.9782C45.6106 29.8677 45.6106 22.7546 45.6106 15.6441C45.3885 14.2652 45.2748 13.5784 45.0527 12.1995C45.0786 12.15 45.0915 12.1266 45.1147 12.0772C48.4955 11.9367 51.8788 11.817 55.2595 11.7181C55.2931 11.752 55.3112 11.7702 55.3473 11.804V15.3345Z" fill="#272727"/>
<path d="M101.913 15.2513C99.8495 15.1966 98.8164 15.1732 96.7528 15.1342C96.7528 17.6787 96.7528 18.9509 96.7528 21.4954C98.6304 21.5318 99.5705 21.5552 101.451 21.6021C101.242 23.0434 101.138 23.7641 100.929 25.208C99.258 25.1664 98.4238 25.1482 96.7528 25.1144C96.7528 27.6823 96.7528 30.2502 96.7528 32.8181C98.9559 32.8623 100.059 32.8883 102.262 32.9455C102.042 34.3869 101.931 35.1076 101.712 36.5489C98.5323 36.4683 95.353 36.4032 92.1711 36.3564C92.1711 29.2459 92.1711 22.1328 92.1711 15.0223C91.9464 13.633 91.8354 12.9358 91.6133 11.5464C91.6391 11.4996 91.652 11.4762 91.6778 11.4268C95.0612 11.4736 98.4445 11.5412 101.825 11.6271C101.859 11.6635 101.877 11.6817 101.913 11.7182C101.913 13.1309 101.913 13.8359 101.913 15.2487V15.2513Z" fill="#272727"/>
<path d="M159.654 18.7324C157.595 18.5372 156.567 18.4436 154.509 18.2614V24.6226C156.382 24.7891 157.319 24.875 159.192 25.0519C158.982 26.4803 158.879 27.1931 158.67 28.6215C157.004 28.4654 156.172 28.3899 154.507 28.2416V35.9453C156.704 36.1404 157.802 36.2419 160 36.45C159.78 37.8758 159.669 38.5887 159.45 40.017C156.281 39.7178 153.109 39.4368 149.938 39.1714C149.938 32.0609 149.938 24.9479 149.938 17.8374C149.716 16.4324 149.605 15.73 149.38 14.325C149.406 14.2782 149.419 14.2574 149.442 14.2106C152.817 14.489 156.19 14.7882 159.563 15.1082C159.597 15.1472 159.615 15.1654 159.651 15.2044V18.735L159.654 18.7324Z" fill="#272727"/>
<path d="M84.4003 32.662C86.5568 32.6724 87.6364 32.6828 89.7929 32.7062C89.5837 34.1501 89.4804 34.8734 89.2712 36.3174C86.1204 36.2836 82.9695 36.2653 79.8186 36.2653C79.8186 29.1549 79.8186 22.0418 79.8186 14.9313C79.5939 13.5446 79.4829 12.8499 79.2607 11.4632C79.2866 11.4164 79.2995 11.3903 79.3253 11.3435C81.3217 11.3435 82.3186 11.3435 84.3125 11.3539C84.3461 11.3903 84.3641 11.4059 84.4003 11.4424C84.4003 18.5138 84.4003 25.5853 84.4003 32.6568V32.662Z" fill="#272727"/>
<path d="M61.0026 7.49811C60.9019 6.99077 60.8528 6.73841 60.7521 6.23107C60.2252 6.24668 59.9618 6.25188 59.4349 6.26749C59.3342 6.78003 59.2851 7.0376 59.1844 7.55014C59.1508 7.71925 59.0475 7.80771 58.877 7.81291C58.6188 7.82072 58.4896 7.82592 58.2314 7.83373C58.1306 7.83633 58.0506 7.7973 57.9886 7.72706C57.9292 7.65681 57.9034 7.57095 57.924 7.46689C58.4199 4.96143 58.6678 3.70741 59.1637 1.20195C59.1947 1.03284 59.2954 0.944384 59.4659 0.939181C59.9669 0.92357 60.22 0.918367 60.7211 0.902757C60.8915 0.897553 60.9948 0.980808 61.0284 1.14732C61.5217 3.62415 61.7696 4.86257 62.2629 7.342C62.281 7.44347 62.2578 7.53193 62.1984 7.60478C62.1364 7.68283 62.0563 7.72185 61.9608 7.72446C61.6999 7.73226 61.5708 7.73486 61.3099 7.74267C61.1369 7.74787 61.0336 7.66462 61.0026 7.49811ZM60.499 4.97184C60.3363 4.1549 60.2536 3.74903 60.0909 2.9321C59.9282 3.75684 59.8455 4.17051 59.6828 4.99526C60.0083 4.98485 60.171 4.98225 60.4964 4.97184H60.499Z" fill="#272727"/>
<path d="M68.5749 2.00068C68.5749 3.72561 68.5749 4.58938 68.5749 6.31692C68.5749 6.65775 68.4458 6.95695 68.1901 7.21452C67.9344 7.47208 67.64 7.60477 67.312 7.60998C66.3797 7.62819 65.9148 7.63599 64.9824 7.65681C64.7732 7.66201 64.6699 7.55794 64.6699 7.3498C64.6699 4.85996 64.6699 3.61374 64.6699 1.1239C64.6699 0.913159 64.7732 0.806489 64.9824 0.803887C65.9122 0.783073 66.3771 0.775268 67.3094 0.757056C67.6426 0.751853 67.937 0.874133 68.1927 1.1265C68.451 1.37887 68.5775 1.67026 68.5775 2.00588L68.5749 2.00068ZM67.3198 6.34294C67.3198 4.6128 67.3198 3.74903 67.3198 2.01889C66.7645 2.0293 66.4856 2.0345 65.9303 2.04491C65.9303 3.77505 65.9303 4.63882 65.9303 6.36896C66.4856 6.35855 66.7645 6.35335 67.3198 6.34294Z" fill="#272727"/>
<path d="M73.9236 7.51894C73.2159 7.52414 72.8595 7.52934 72.1518 7.53715C71.8238 7.53975 71.5423 7.42527 71.3073 7.19372C71.0723 6.95957 70.9561 6.67858 70.9561 6.34816C70.9561 4.21476 70.9561 3.14545 70.9561 1.01204C70.9561 0.801305 71.0594 0.697236 71.2686 0.694635C72.3197 0.681626 72.8466 0.676422 73.8977 0.666016C74.1044 0.666016 74.2102 0.767483 74.2102 0.978222C74.2102 1.23579 74.2102 1.36328 74.2102 1.61824C74.2102 1.82378 74.1069 1.92785 73.8977 1.93045C73.2237 1.93565 72.8853 1.94086 72.2112 1.94606C72.2112 2.55746 72.2112 2.86186 72.2112 3.47327C72.7743 3.46806 73.0558 3.46286 73.6188 3.46026C73.828 3.46026 73.9313 3.56173 73.9313 3.77246V4.41509C73.9313 4.62323 73.828 4.7299 73.6188 4.7325C73.0558 4.7377 72.7743 4.7403 72.2112 4.74551C72.2112 5.35691 72.2112 5.66131 72.2112 6.27271C72.8957 6.26491 73.2392 6.26231 73.9236 6.2571C74.1302 6.2571 74.2361 6.35857 74.2361 6.56931C74.2361 6.82428 74.2361 6.95176 74.2361 7.20673C74.2361 7.41747 74.1328 7.52154 73.9236 7.52414V7.51894Z" fill="#272727"/>
<path d="M79.4246 7.49292C78.7815 7.49292 78.4612 7.49292 77.8181 7.49552C77.4876 7.49552 77.206 7.38105 76.971 7.14429C76.736 6.91014 76.6172 6.62655 76.6172 6.29613C76.6172 4.16272 76.6172 3.09342 76.6172 0.96001C76.6172 0.749271 76.7205 0.645203 76.9297 0.645203C77.1854 0.645203 77.3119 0.645203 77.5676 0.645203C77.7768 0.645203 77.8801 0.749271 77.8801 0.957409C77.8801 3.0674 77.8801 4.1237 77.8801 6.23369C78.5 6.23369 78.8073 6.23369 79.4272 6.23109C79.6312 6.23109 79.7345 6.33516 79.7345 6.5459V7.18332C79.7345 7.39405 79.6312 7.49812 79.4272 7.49812L79.4246 7.49292Z" fill="#272727"/>
<path d="M85.2226 7.25875C85.1219 6.74881 85.0728 6.49385 84.9721 5.98391C84.4453 5.98131 84.1818 5.97871 83.655 5.9761C83.5542 6.48604 83.5052 6.74101 83.4044 7.24834C83.3709 7.41745 83.2675 7.50071 83.0971 7.50071C82.8388 7.50071 82.7097 7.50071 82.4514 7.50071C82.3507 7.50071 82.2706 7.45908 82.2086 7.38623C82.1467 7.31339 82.1234 7.22493 82.1441 7.12346C82.64 4.63362 82.8879 3.39 83.3838 0.902757C83.4148 0.733646 83.5155 0.650391 83.6859 0.650391C84.1896 0.652992 84.4401 0.655594 84.9411 0.658196C85.1116 0.658196 85.2149 0.744052 85.2485 0.913164C85.7418 3.40821 85.9897 4.65443 86.483 7.14948C86.5011 7.25094 86.4778 7.3394 86.4184 7.40965C86.3539 7.4851 86.2764 7.52152 86.1808 7.52152C85.92 7.52152 85.7908 7.51892 85.53 7.51632C85.3569 7.51632 85.2536 7.43046 85.2226 7.26135V7.25875ZM84.719 4.71687C84.5563 3.89473 84.4737 3.48366 84.311 2.66412C84.1482 3.48366 84.0656 3.89213 83.9029 4.71167C84.2283 4.71167 84.391 4.71427 84.7164 4.71687H84.719Z" fill="#272727"/>
<path d="M89.8385 7.56314C89.5828 7.56054 89.4562 7.55794 89.2031 7.55534C88.9939 7.55274 88.8906 7.44607 88.8906 7.23793V1.00942C88.8906 0.798682 88.9939 0.697215 89.2031 0.699817C89.4588 0.702419 89.5854 0.70502 89.8385 0.707622C90.0477 0.710224 90.151 0.816894 90.151 1.02763C90.151 3.51748 90.151 4.7637 90.151 7.25354C90.151 7.46428 90.0477 7.56575 89.8385 7.56314Z" fill="#272727"/>
<path d="M96.4392 2.10215C96.4392 3.82709 96.4392 4.69086 96.4392 6.4184C96.4392 6.75923 96.3101 7.05322 96.0544 7.30038C95.7961 7.54755 95.5043 7.66723 95.1763 7.65942C94.2439 7.63861 93.779 7.6308 92.8467 7.61259C92.6375 7.60999 92.5342 7.50332 92.5342 7.29258C92.5342 4.80274 92.5342 3.55651 92.5342 1.06667C92.5342 0.855933 92.6375 0.754466 92.8467 0.757068C93.7764 0.77528 94.2413 0.783085 95.1737 0.803899C95.5069 0.811704 95.8013 0.946993 96.057 1.20716C96.3152 1.46994 96.4418 1.76653 96.4418 2.10215H96.4392ZM95.1814 6.39238C95.1814 4.66224 95.1814 3.79847 95.1814 2.06833C94.6262 2.05532 94.3472 2.05012 93.7919 2.03971C93.7919 3.76985 93.7919 4.63362 93.7919 6.36377C94.3472 6.37417 94.6262 6.37938 95.1814 6.39238Z" fill="#272727"/>
<path d="M101.786 7.83373C101.078 7.81031 100.722 7.7999 100.014 7.78169C99.6861 7.77129 99.4046 7.6464 99.1696 7.40444C98.9346 7.16248 98.8184 6.8763 98.8184 6.54328C98.8184 4.40987 98.8184 3.34056 98.8184 1.20716C98.8184 0.996417 98.9217 0.89495 99.1309 0.900154C100.182 0.928773 100.709 0.944383 101.76 0.975603C101.967 0.980807 102.073 1.09008 102.073 1.30082C102.073 1.55839 102.073 1.68587 102.073 1.94084C102.073 2.14638 101.969 2.24784 101.76 2.24004C101.086 2.21922 100.75 2.20882 100.076 2.1906C100.076 2.80201 100.076 3.10641 100.076 3.71781C100.639 3.73342 100.921 3.74123 101.484 3.75944C101.693 3.76464 101.796 3.87391 101.796 4.08205V4.72468C101.796 4.93281 101.693 5.03428 101.484 5.02908C100.921 5.01086 100.639 5.00306 100.076 4.98745C100.076 5.59885 100.076 5.90325 100.076 6.51466C100.761 6.53547 101.101 6.54328 101.786 6.56669C101.992 6.57189 102.098 6.68117 102.098 6.89191C102.098 7.14687 102.098 7.27436 102.098 7.52933C102.098 7.74006 101.995 7.84153 101.786 7.83373Z" fill="#272727"/>
<path d="M76.269 47H75.6156C75.4891 47 75.3987 46.9402 75.347 46.8205L74.6626 45.2074L73.9782 46.8205C73.9291 46.9402 73.8387 47 73.7096 47H73.0562C72.9477 47 72.8676 46.9558 72.816 46.8673C72.754 46.7763 72.7437 46.6826 72.7876 46.589L74.0195 43.6802L72.8651 40.9562C72.8212 40.86 72.8289 40.7663 72.8857 40.6779C72.9425 40.5894 73.0252 40.5452 73.1311 40.5452H73.7845C73.9085 40.5452 73.9989 40.605 74.0531 40.7247L74.6652 42.1634L75.2773 40.7247C75.3238 40.605 75.4142 40.5452 75.5459 40.5452H76.1993C76.3026 40.5452 76.3853 40.5894 76.4447 40.6779C76.4989 40.7715 76.5066 40.8652 76.4679 40.9562L75.3109 43.6802L76.5428 46.589C76.579 46.6878 76.5712 46.7815 76.5196 46.8673C76.4602 46.9558 76.3775 47 76.2742 47H76.269Z" fill="#272727"/>
<path d="M78.9909 44.2682C79.1562 43.5111 79.2905 42.9101 79.3912 42.46C79.492 42.01 79.6159 41.4506 79.7632 40.7767C79.7993 40.6232 79.8949 40.5478 80.0524 40.5478H80.6645C80.7601 40.5478 80.835 40.5842 80.8918 40.6597C80.9486 40.7377 80.9667 40.8184 80.9486 40.9068L79.6469 46.7763C79.6134 46.9272 79.5204 47.0026 79.3603 47.0026H78.6139C78.4563 47.0026 78.3633 46.9272 78.3323 46.7763L77.0307 40.9068C77.01 40.8184 77.0281 40.7377 77.0875 40.6597C77.1443 40.5868 77.2218 40.5478 77.3148 40.5478H77.9269C78.0818 40.5478 78.1774 40.6232 78.2161 40.7767C78.3633 41.4506 78.4847 42.0126 78.5829 42.46C78.681 42.9075 78.8153 43.5111 78.9858 44.2682H78.9909Z" fill="#272727"/>
<path d="M82.6094 47H82.0103C81.814 47 81.7158 46.9012 81.7158 46.7034V40.8418C81.7158 40.644 81.814 40.5452 82.0103 40.5452H82.6094C82.8057 40.5452 82.9039 40.644 82.9039 40.8418V46.7034C82.9039 46.9012 82.8057 47 82.6094 47Z" fill="#272727"/>
<path d="M84.7842 47H84.185C83.9888 47 83.8906 46.9012 83.8906 46.7034V40.8418C83.8906 40.644 83.9888 40.5452 84.185 40.5452H84.7842C84.9805 40.5452 85.0787 40.644 85.0787 40.8418V46.7034C85.0787 46.9012 84.9805 47 84.7842 47Z" fill="#272727"/>
<path d="M86.959 47H86.3599C86.1636 47 86.0654 46.9012 86.0654 46.7034V40.8418C86.0654 40.644 86.1636 40.5452 86.3599 40.5452H86.959C87.1553 40.5452 87.2535 40.644 87.2535 40.8418V46.7034C87.2535 46.9012 87.1553 47 86.959 47Z" fill="#272727"/>
<path d="M68.1341 42.3351L68.0489 44.1902C68.0386 44.4139 67.8552 44.5882 67.6331 44.583C55.4402 44.3801 35.0447 45.0748 22.8906 45.6497C22.3638 45.6758 22.2992 44.89 22.8209 44.8276C37.7695 43.0142 58.6453 41.82 67.7261 41.9033C67.9585 41.9033 68.1419 42.101 68.1315 42.3351H68.1341Z" fill="#272727"/>
<path d="M92.3701 42.3351L92.4554 44.1902C92.4657 44.4139 92.649 44.5882 92.8712 44.583C105.064 44.3801 125.46 45.0748 137.614 45.6497C138.14 45.6758 138.205 44.89 137.683 44.8276C122.735 43.0142 101.859 41.82 92.7782 41.9033C92.5457 41.9033 92.3624 42.101 92.3727 42.3351H92.3701Z" fill="#272727"/>
</g>
<defs>
<clipPath id="clip0_2133_2198">
<rect width="160" height="47" fill="white"/>
</clipPath>
</defs>
</svg>
